<svg width="1363" height="163" viewBox="0 0 1363 163" fill="none" xmlns="http://www.w3.org/2000/svg">
<path d="M0 15C0 6.71573 6.71573 0 15 0H37V163H15C6.71573 163 0 156.284 0 148V15Z" fill="#424242"/>
<rect width="1097" height="163" transform="translate(37)" fill="#F0F0F0"/>
<path d="M101.906 53.9219L94.3945 51.2383V48.0859L104.602 52.375V54.6367L101.906 53.9219ZM94.3945 56.1719L101.918 53.4297L104.602 52.7852V55.0352L94.3945 59.3242V56.1719ZM119.578 53.5117H115.195L115.172 51.0977H118.852C119.5 51.0977 120.031 51.0156 120.445 50.8516C120.859 50.6797 121.168 50.4336 121.371 50.1133C121.582 49.7852 121.688 49.3867 121.688 48.918C121.688 48.3867 121.586 47.957 121.383 47.6289C121.188 47.3008 120.879 47.0625 120.457 46.9141C120.043 46.7656 119.508 46.6914 118.852 46.6914H116.414V61H112.898V43.9375H118.852C119.844 43.9375 120.73 44.0312 121.512 44.2188C122.301 44.4062 122.969 44.6914 123.516 45.0742C124.062 45.457 124.48 45.9414 124.77 46.5273C125.059 47.1055 125.203 47.793 125.203 48.5898C125.203 49.293 125.043 49.9414 124.723 50.5352C124.41 51.1289 123.914 51.6133 123.234 51.9883C122.562 52.3633 121.684 52.5703 120.598 52.6094L119.578 53.5117ZM119.426 61H114.234L115.605 58.2578H119.426C120.043 58.2578 120.547 58.1602 120.938 57.9648C121.328 57.7617 121.617 57.4883 121.805 57.1445C121.992 56.8008 122.086 56.4062 122.086 55.9609C122.086 55.4609 122 55.0273 121.828 54.6602C121.664 54.293 121.398 54.0117 121.031 53.8164C120.664 53.6133 120.18 53.5117 119.578 53.5117H116.191L116.215 51.0977H120.434L121.242 52.0469C122.281 52.0312 123.117 52.2148 123.75 52.5977C124.391 52.9727 124.855 53.4609 125.145 54.0625C125.441 54.6641 125.59 55.3086 125.59 55.9961C125.59 57.0898 125.352 58.0117 124.875 58.7617C124.398 59.5039 123.699 60.0625 122.777 60.4375C121.863 60.8125 120.746 61 119.426 61ZM131.578 48.3203V61H128.191V48.3203H131.578ZM127.98 45.0156C127.98 44.5234 128.152 44.1172 128.496 43.7969C128.84 43.4766 129.301 43.3164 129.879 43.3164C130.449 43.3164 130.906 43.4766 131.25 43.7969C131.602 44.1172 131.777 44.5234 131.777 45.0156C131.777 45.5078 131.602 45.9141 131.25 46.2344C130.906 46.5547 130.449 46.7148 129.879 46.7148C129.301 46.7148 128.84 46.5547 128.496 46.2344C128.152 45.9141 127.98 45.5078 127.98 45.0156ZM137.672 51.0273V61H134.297V48.3203H137.461L137.672 51.0273ZM137.18 54.2148H136.266C136.266 53.2773 136.387 52.4336 136.629 51.6836C136.871 50.9258 137.211 50.2812 137.648 49.75C138.086 49.2109 138.605 48.8008 139.207 48.5195C139.816 48.2305 140.496 48.0859 141.246 48.0859C141.84 48.0859 142.383 48.1719 142.875 48.3438C143.367 48.5156 143.789 48.7891 144.141 49.1641C144.5 49.5391 144.773 50.0352 144.961 50.6523C145.156 51.2695 145.254 52.0234 145.254 52.9141V61H141.855V52.9023C141.855 52.3398 141.777 51.9023 141.621 51.5898C141.465 51.2773 141.234 51.0586 140.93 50.9336C140.633 50.8008 140.266 50.7344 139.828 50.7344C139.375 50.7344 138.98 50.8242 138.645 51.0039C138.316 51.1836 138.043 51.4336 137.824 51.7539C137.613 52.0664 137.453 52.4336 137.344 52.8555C137.234 53.2773 137.18 53.7305 137.18 54.2148ZM161.004 43.9375V61H157.5V43.9375H161.004ZM166.254 43.9375V46.6914H152.332V43.9375H166.254ZM170.602 51.0859V61H167.227V48.3203H170.402L170.602 51.0859ZM174.422 48.2383L174.363 51.3672C174.199 51.3438 174 51.3242 173.766 51.3086C173.539 51.2852 173.332 51.2734 173.145 51.2734C172.668 51.2734 172.254 51.3359 171.902 51.4609C171.559 51.5781 171.27 51.7539 171.035 51.9883C170.809 52.2227 170.637 52.5078 170.52 52.8438C170.41 53.1797 170.348 53.5625 170.332 53.9922L169.652 53.7812C169.652 52.9609 169.734 52.207 169.898 51.5195C170.062 50.8242 170.301 50.2188 170.613 49.7031C170.934 49.1875 171.324 48.7891 171.785 48.5078C172.246 48.2266 172.773 48.0859 173.367 48.0859C173.555 48.0859 173.746 48.1016 173.941 48.1328C174.137 48.1562 174.297 48.1914 174.422 48.2383ZM182.461 58.1406V52.4922C182.461 52.0859 182.395 51.7383 182.262 51.4492C182.129 51.1523 181.922 50.9219 181.641 50.7578C181.367 50.5938 181.012 50.5117 180.574 50.5117C180.199 50.5117 179.875 50.5781 179.602 50.7109C179.328 50.8359 179.117 51.0195 178.969 51.2617C178.82 51.4961 178.746 51.7734 178.746 52.0938H175.371C175.371 51.5547 175.496 51.043 175.746 50.5586C175.996 50.0742 176.359 49.6484 176.836 49.2812C177.312 48.9062 177.879 48.6133 178.535 48.4023C179.199 48.1914 179.941 48.0859 180.762 48.0859C181.746 48.0859 182.621 48.25 183.387 48.5781C184.152 48.9062 184.754 49.3984 185.191 50.0547C185.637 50.7109 185.859 51.5312 185.859 52.5156V57.9414C185.859 58.6367 185.902 59.207 185.988 59.6523C186.074 60.0898 186.199 60.4727 186.363 60.8008V61H182.953C182.789 60.6562 182.664 60.2266 182.578 59.7109C182.5 59.1875 182.461 58.6641 182.461 58.1406ZM182.906 53.2773L182.93 55.1875H181.043C180.598 55.1875 180.211 55.2383 179.883 55.3398C179.555 55.4414 179.285 55.5859 179.074 55.7734C178.863 55.9531 178.707 56.1641 178.605 56.4062C178.512 56.6484 178.465 56.9141 178.465 57.2031C178.465 57.4922 178.531 57.7539 178.664 57.9883C178.797 58.2148 178.988 58.3945 179.238 58.5273C179.488 58.6523 179.781 58.7148 180.117 58.7148C180.625 58.7148 181.066 58.6133 181.441 58.4102C181.816 58.207 182.105 57.957 182.309 57.6602C182.52 57.3633 182.629 57.082 182.637 56.8164L183.527 58.2461C183.402 58.5664 183.23 58.8984 183.012 59.2422C182.801 59.5859 182.531 59.9102 182.203 60.2148C181.875 60.5117 181.48 60.7578 181.02 60.9531C180.559 61.1406 180.012 61.2344 179.379 61.2344C178.574 61.2344 177.844 61.0742 177.188 60.7539C176.539 60.4258 176.023 59.9766 175.641 59.4062C175.266 58.8281 175.078 58.1719 175.078 57.4375C175.078 56.7734 175.203 56.1836 175.453 55.668C175.703 55.1523 176.07 54.7188 176.555 54.3672C177.047 54.0078 177.66 53.7383 178.395 53.5586C179.129 53.3711 179.98 53.2773 180.949 53.2773H182.906ZM193.699 58.5977C194.113 58.5977 194.48 58.5195 194.801 58.3633C195.121 58.1992 195.371 57.9727 195.551 57.6836C195.738 57.3867 195.836 57.0391 195.844 56.6406H199.02C199.012 57.5312 198.773 58.3242 198.305 59.0195C197.836 59.707 197.207 60.25 196.418 60.6484C195.629 61.0391 194.746 61.2344 193.77 61.2344C192.785 61.2344 191.926 61.0703 191.191 60.7422C190.465 60.4141 189.859 59.9609 189.375 59.3828C188.891 58.7969 188.527 58.1172 188.285 57.3438C188.043 56.5625 187.922 55.7266 187.922 54.8359V54.4961C187.922 53.5977 188.043 52.7617 188.285 51.9883C188.527 51.207 188.891 50.5273 189.375 49.9492C189.859 49.3633 190.465 48.9062 191.191 48.5781C191.918 48.25 192.77 48.0859 193.746 48.0859C194.785 48.0859 195.695 48.2852 196.477 48.6836C197.266 49.082 197.883 49.6523 198.328 50.3945C198.781 51.1289 199.012 52 199.02 53.0078H195.844C195.836 52.5859 195.746 52.2031 195.574 51.8594C195.41 51.5156 195.168 51.2422 194.848 51.0391C194.535 50.8281 194.148 50.7227 193.688 50.7227C193.195 50.7227 192.793 50.8281 192.48 51.0391C192.168 51.2422 191.926 51.5234 191.754 51.8828C191.582 52.2344 191.461 52.6367 191.391 53.0898C191.328 53.5352 191.297 54.0039 191.297 54.4961V54.8359C191.297 55.3281 191.328 55.8008 191.391 56.2539C191.453 56.707 191.57 57.1094 191.742 57.4609C191.922 57.8125 192.168 58.0898 192.48 58.293C192.793 58.4961 193.199 58.5977 193.699 58.5977ZM204.352 42.9883V61H200.977V42.9883H204.352ZM212.344 48.3203L206.836 54.6016L203.883 57.5898L202.652 55.1523L204.996 52.1758L208.289 48.3203H212.344ZM208.84 61L205.09 55.1406L207.422 53.1016L212.73 61H208.84ZM219.398 61.2344C218.414 61.2344 217.531 61.0781 216.75 60.7656C215.969 60.4453 215.305 60.0039 214.758 59.4414C214.219 58.8789 213.805 58.2266 213.516 57.4844C213.227 56.7344 213.082 55.9375 213.082 55.0938V54.625C213.082 53.6641 213.219 52.7852 213.492 51.9883C213.766 51.1914 214.156 50.5 214.664 49.9141C215.18 49.3281 215.805 48.8789 216.539 48.5664C217.273 48.2461 218.102 48.0859 219.023 48.0859C219.922 48.0859 220.719 48.2344 221.414 48.5312C222.109 48.8281 222.691 49.25 223.16 49.7969C223.637 50.3438 223.996 51 224.238 51.7656C224.48 52.5234 224.602 53.3672 224.602 54.2969V55.7031H214.523V53.4531H221.285V53.1953C221.285 52.7266 221.199 52.3086 221.027 51.9414C220.863 51.5664 220.613 51.2695 220.277 51.0508C219.941 50.832 219.512 50.7227 218.988 50.7227C218.543 50.7227 218.16 50.8203 217.84 51.0156C217.52 51.2109 217.258 51.4844 217.055 51.8359C216.859 52.1875 216.711 52.6016 216.609 53.0781C216.516 53.5469 216.469 54.0625 216.469 54.625V55.0938C216.469 55.6016 216.539 56.0703 216.68 56.5C216.828 56.9297 217.035 57.3008 217.301 57.6133C217.574 57.9258 217.902 58.168 218.285 58.3398C218.676 58.5117 219.117 58.5977 219.609 58.5977C220.219 58.5977 220.785 58.4805 221.309 58.2461C221.84 58.0039 222.297 57.6406 222.68 57.1562L224.32 58.9375C224.055 59.3203 223.691 59.6875 223.23 60.0391C222.777 60.3906 222.23 60.6797 221.59 60.9062C220.949 61.125 220.219 61.2344 219.398 61.2344ZM229.898 51.0859V61H226.523V48.3203H229.699L229.898 51.0859ZM233.719 48.2383L233.66 51.3672C233.496 51.3438 233.297 51.3242 233.062 51.3086C232.836 51.2852 232.629 51.2734 232.441 51.2734C231.965 51.2734 231.551 51.3359 231.199 51.4609C230.855 51.5781 230.566 51.7539 230.332 51.9883C230.105 52.2227 229.934 52.5078 229.816 52.8438C229.707 53.1797 229.645 53.5625 229.629 53.9922L228.949 53.7812C228.949 52.9609 229.031 52.207 229.195 51.5195C229.359 50.8242 229.598 50.2188 229.91 49.7031C230.23 49.1875 230.621 48.7891 231.082 48.5078C231.543 48.2266 232.07 48.0859 232.664 48.0859C232.852 48.0859 233.043 48.1016 233.238 48.1328C233.434 48.1562 233.594 48.1914 233.719 48.2383Z" fill="#888888"/>
<path d="M112.125 84.875V119H103.898V84.875H112.125ZM122.391 84.875V91.2266H93.8672V84.875H122.391ZM135.68 119.469C133.617 119.469 131.773 119.148 130.148 118.508C128.523 117.852 127.148 116.953 126.023 115.812C124.914 114.672 124.062 113.359 123.469 111.875C122.891 110.391 122.602 108.82 122.602 107.164V106.273C122.602 104.414 122.859 102.695 123.375 101.117C123.891 99.5234 124.656 98.1328 125.672 96.9453C126.688 95.7578 127.961 94.8359 129.492 94.1797C131.023 93.5078 132.805 93.1719 134.836 93.1719C136.633 93.1719 138.242 93.4609 139.664 94.0391C141.086 94.6172 142.289 95.4453 143.273 96.5234C144.273 97.6016 145.031 98.9062 145.547 100.438C146.078 101.969 146.344 103.688 146.344 105.594V108.805H125.625V103.859H138.633V103.25C138.648 102.406 138.5 101.688 138.188 101.094C137.891 100.5 137.453 100.047 136.875 99.7344C136.297 99.4219 135.594 99.2656 134.766 99.2656C133.906 99.2656 133.195 99.4531 132.633 99.8281C132.086 100.203 131.656 100.719 131.344 101.375C131.047 102.016 130.836 102.758 130.711 103.602C130.586 104.445 130.523 105.336 130.523 106.273V107.164C130.523 108.102 130.648 108.953 130.898 109.719C131.164 110.484 131.539 111.141 132.023 111.688C132.523 112.219 133.117 112.633 133.805 112.93C134.508 113.227 135.305 113.375 136.195 113.375C137.273 113.375 138.336 113.172 139.383 112.766C140.43 112.359 141.328 111.688 142.078 110.75L145.664 115.016C145.148 115.75 144.414 116.461 143.461 117.148C142.523 117.836 141.398 118.398 140.086 118.836C138.773 119.258 137.305 119.469 135.68 119.469ZM160.266 113.375C161 113.375 161.625 113.242 162.141 112.977C162.672 112.695 163.07 112.305 163.336 111.805C163.617 111.289 163.75 110.672 163.734 109.953H171.164C171.18 111.859 170.711 113.531 169.758 114.969C168.82 116.391 167.539 117.5 165.914 118.297C164.305 119.078 162.484 119.469 160.453 119.469C158.469 119.469 156.734 119.148 155.25 118.508C153.766 117.852 152.523 116.945 151.523 115.789C150.539 114.617 149.797 113.25 149.297 111.688C148.812 110.125 148.57 108.43 148.57 106.602V106.062C148.57 104.234 148.812 102.539 149.297 100.977C149.797 99.3984 150.539 98.0312 151.523 96.875C152.523 95.7031 153.758 94.7969 155.227 94.1562C156.711 93.5 158.438 93.1719 160.406 93.1719C162.516 93.1719 164.375 93.5703 165.984 94.3672C167.609 95.1641 168.883 96.3203 169.805 97.8359C170.727 99.3516 171.18 101.188 171.164 103.344H163.734C163.75 102.578 163.633 101.891 163.383 101.281C163.133 100.672 162.742 100.188 162.211 99.8281C161.695 99.4531 161.031 99.2656 160.219 99.2656C159.406 99.2656 158.75 99.4453 158.25 99.8047C157.75 100.164 157.367 100.664 157.102 101.305C156.852 101.93 156.68 102.648 156.586 103.461C156.508 104.273 156.469 105.141 156.469 106.062V106.602C156.469 107.539 156.508 108.422 156.586 109.25C156.68 110.062 156.859 110.781 157.125 111.406C157.391 112.016 157.773 112.5 158.273 112.859C158.773 113.203 159.438 113.375 160.266 113.375ZM182.273 83V119H174.375V83H182.273ZM181.336 105.453L179.484 105.5C179.484 103.719 179.703 102.078 180.141 100.578C180.578 99.0781 181.203 97.7734 182.016 96.6641C182.828 95.5547 183.805 94.6953 184.945 94.0859C186.086 93.4766 187.352 93.1719 188.742 93.1719C189.992 93.1719 191.133 93.3516 192.164 93.7109C193.211 94.0703 194.109 94.6484 194.859 95.4453C195.625 96.2422 196.211 97.2812 196.617 98.5625C197.039 99.8438 197.25 101.406 197.25 103.25V119H189.305V103.203C189.305 102.172 189.156 101.375 188.859 100.812C188.578 100.234 188.172 99.8359 187.641 99.6172C187.109 99.3828 186.461 99.2656 185.695 99.2656C184.773 99.2656 184.023 99.4219 183.445 99.7344C182.867 100.047 182.422 100.484 182.109 101.047C181.812 101.594 181.609 102.242 181.5 102.992C181.391 103.742 181.336 104.562 181.336 105.453ZM231.539 109.93C231.539 109.398 231.461 108.922 231.305 108.5C231.148 108.062 230.859 107.656 230.438 107.281C230.016 106.906 229.406 106.531 228.609 106.156C227.828 105.766 226.797 105.359 225.516 104.938C224.016 104.438 222.57 103.875 221.18 103.25C219.789 102.609 218.547 101.867 217.453 101.023C216.359 100.164 215.492 99.1641 214.852 98.0234C214.211 96.8672 213.891 95.5234 213.891 93.9922C213.891 92.5234 214.219 91.2031 214.875 90.0312C215.531 88.8438 216.445 87.8359 217.617 87.0078C218.805 86.1641 220.195 85.5234 221.789 85.0859C223.383 84.6328 225.125 84.4062 227.016 84.4062C229.516 84.4062 231.719 84.8438 233.625 85.7188C235.547 86.5781 237.047 87.8047 238.125 89.3984C239.219 90.9766 239.766 92.8438 239.766 95H231.586C231.586 94.1406 231.406 93.3828 231.047 92.7266C230.703 92.0703 230.18 91.5547 229.477 91.1797C228.773 90.8047 227.891 90.6172 226.828 90.6172C225.797 90.6172 224.93 90.7734 224.227 91.0859C223.523 91.3984 222.992 91.8203 222.633 92.3516C222.273 92.8672 222.094 93.4375 222.094 94.0625C222.094 94.5781 222.234 95.0469 222.516 95.4688C222.812 95.875 223.227 96.2578 223.758 96.6172C224.305 96.9766 224.961 97.3203 225.727 97.6484C226.508 97.9766 227.383 98.2969 228.352 98.6094C230.164 99.1875 231.773 99.8359 233.18 100.555C234.602 101.258 235.797 102.062 236.766 102.969C237.75 103.859 238.492 104.875 238.992 106.016C239.508 107.156 239.766 108.445 239.766 109.883C239.766 111.414 239.469 112.773 238.875 113.961C238.281 115.148 237.43 116.156 236.32 116.984C235.211 117.797 233.883 118.414 232.336 118.836C230.789 119.258 229.062 119.469 227.156 119.469C225.406 119.469 223.68 119.25 221.977 118.812C220.289 118.359 218.758 117.672 217.383 116.75C216.008 115.812 214.906 114.617 214.078 113.164C213.266 111.695 212.859 109.953 212.859 107.938H221.109C221.109 108.938 221.242 109.781 221.508 110.469C221.773 111.156 222.164 111.711 222.68 112.133C223.195 112.539 223.828 112.836 224.578 113.023C225.328 113.195 226.188 113.281 227.156 113.281C228.203 113.281 229.047 113.133 229.688 112.836C230.328 112.523 230.797 112.117 231.094 111.617C231.391 111.102 231.539 110.539 231.539 109.93ZM256.992 93.6406V99.125H241.711V93.6406H256.992ZM244.922 87.3359H252.82V110.727C252.82 111.398 252.898 111.922 253.055 112.297C253.211 112.656 253.477 112.914 253.852 113.07C254.242 113.211 254.758 113.281 255.398 113.281C255.852 113.281 256.227 113.273 256.523 113.258C256.82 113.227 257.102 113.188 257.367 113.141V118.789C256.695 119.008 255.992 119.172 255.258 119.281C254.523 119.406 253.742 119.469 252.914 119.469C251.227 119.469 249.781 119.203 248.578 118.672C247.391 118.141 246.484 117.305 245.859 116.164C245.234 115.023 244.922 113.539 244.922 111.711V87.3359ZM273.305 112.625V102.172C273.305 101.453 273.203 100.836 273 100.32C272.797 99.8047 272.477 99.4062 272.039 99.125C271.602 98.8281 271.016 98.6797 270.281 98.6797C269.688 98.6797 269.18 98.7812 268.758 98.9844C268.336 99.1875 268.016 99.4922 267.797 99.8984C267.578 100.305 267.469 100.82 267.469 101.445H259.57C259.57 100.273 259.828 99.1875 260.344 98.1875C260.875 97.1719 261.625 96.2891 262.594 95.5391C263.578 94.7891 264.75 94.2109 266.109 93.8047C267.484 93.3828 269.016 93.1719 270.703 93.1719C272.719 93.1719 274.516 93.5078 276.094 94.1797C277.688 94.8516 278.945 95.8594 279.867 97.2031C280.789 98.5312 281.25 100.203 281.25 102.219V112.602C281.25 114.258 281.344 115.516 281.531 116.375C281.719 117.219 281.984 117.961 282.328 118.602V119H274.406C274.031 118.219 273.75 117.266 273.562 116.141C273.391 115 273.305 113.828 273.305 112.625ZM274.266 103.508L274.312 107.727H270.82C270.086 107.727 269.461 107.828 268.945 108.031C268.445 108.234 268.039 108.516 267.727 108.875C267.43 109.219 267.211 109.609 267.07 110.047C266.945 110.484 266.883 110.945 266.883 111.43C266.883 111.898 266.992 112.32 267.211 112.695C267.445 113.055 267.758 113.336 268.148 113.539C268.539 113.742 268.977 113.844 269.461 113.844C270.336 113.844 271.078 113.68 271.688 113.352C272.312 113.008 272.789 112.594 273.117 112.109C273.445 111.625 273.609 111.172 273.609 110.75L275.344 113.984C275.031 114.609 274.672 115.242 274.266 115.883C273.875 116.523 273.383 117.117 272.789 117.664C272.211 118.195 271.5 118.633 270.656 118.977C269.812 119.305 268.789 119.469 267.586 119.469C266.023 119.469 264.586 119.148 263.273 118.508C261.977 117.867 260.938 116.977 260.156 115.836C259.375 114.68 258.984 113.352 258.984 111.852C258.984 110.539 259.219 109.367 259.688 108.336C260.172 107.305 260.898 106.43 261.867 105.711C262.836 104.992 264.07 104.445 265.57 104.07C267.07 103.695 268.836 103.508 270.867 103.508H274.266ZM296.344 113.375C297.078 113.375 297.703 113.242 298.219 112.977C298.75 112.695 299.148 112.305 299.414 111.805C299.695 111.289 299.828 110.672 299.812 109.953H307.242C307.258 111.859 306.789 113.531 305.836 114.969C304.898 116.391 303.617 117.5 301.992 118.297C300.383 119.078 298.562 119.469 296.531 119.469C294.547 119.469 292.812 119.148 291.328 118.508C289.844 117.852 288.602 116.945 287.602 115.789C286.617 114.617 285.875 113.25 285.375 111.688C284.891 110.125 284.648 108.43 284.648 106.602V106.062C284.648 104.234 284.891 102.539 285.375 100.977C285.875 99.3984 286.617 98.0312 287.602 96.875C288.602 95.7031 289.836 94.7969 291.305 94.1562C292.789 93.5 294.516 93.1719 296.484 93.1719C298.594 93.1719 300.453 93.5703 302.062 94.3672C303.688 95.1641 304.961 96.3203 305.883 97.8359C306.805 99.3516 307.258 101.188 307.242 103.344H299.812C299.828 102.578 299.711 101.891 299.461 101.281C299.211 100.672 298.82 100.188 298.289 99.8281C297.773 99.4531 297.109 99.2656 296.297 99.2656C295.484 99.2656 294.828 99.4453 294.328 99.8047C293.828 100.164 293.445 100.664 293.18 101.305C292.93 101.93 292.758 102.648 292.664 103.461C292.586 104.273 292.547 105.141 292.547 106.062V106.602C292.547 107.539 292.586 108.422 292.664 109.25C292.758 110.062 292.938 110.781 293.203 111.406C293.469 112.016 293.852 112.5 294.352 112.859C294.852 113.203 295.516 113.375 296.344 113.375ZM318.586 82.9766V119H310.688V82.9766H318.586ZM334.805 93.6406L323.789 106.555L318.023 112.32L314.578 107.305L319.383 101.047L325.336 93.6406H334.805ZM326.344 119L319.57 107.445L325.406 103.297L335.391 119H326.344Z" fill="black"/>
<path d="M1134 0H1348C1356.28 0 1363 6.71573 1363 15V148C1363 156.284 1356.28 163 1348 163H1134V0Z" fill="#3DA35D"/>
<path fill-rule="evenodd" clip-rule="evenodd" d="M1218.75 53C1218.62 53 1218.49 53.0527 1218.4 53.1464C1218.3 53.2402 1218.25 53.3674 1218.25 53.5V109.5C1218.25 109.633 1218.3 109.76 1218.4 109.854C1218.49 109.947 1218.62 110 1218.75 110H1278.25C1278.38 110 1278.51 109.947 1278.6 109.854C1278.7 109.76 1278.75 109.633 1278.75 109.5V64C1278.75 63.8674 1278.7 63.7402 1278.6 63.6464C1278.51 63.5527 1278.38 63.5 1278.25 63.5H1248.5C1247.61 63.5 1246.77 63.1045 1246.2 62.4206L1238.34 53H1218.75ZM1214.15 48.9038C1215.37 47.6848 1217.03 47 1218.75 47H1239.75C1240.64 47 1241.48 47.3955 1242.05 48.0794L1249.91 57.5H1278.25C1279.97 57.5 1281.63 58.1848 1282.85 59.4038C1284.07 60.6228 1284.75 62.2761 1284.75 64V109.5C1284.75 111.224 1284.07 112.877 1282.85 114.096C1281.63 115.315 1279.97 116 1278.25 116H1218.75C1217.03 116 1215.37 115.315 1214.15 114.096C1212.93 112.877 1212.25 111.224 1212.25 109.5V53.5C1212.25 51.7761 1212.93 50.1228 1214.15 48.9038Z" fill="white"/>
<path fill-rule="evenodd" clip-rule="evenodd" d="M1243.97 75.5251C1245.34 76.892 1245.34 79.108 1243.97 80.4749L1237.7 86.75L1243.97 93.0251C1245.34 94.392 1245.34 96.608 1243.97 97.9749C1242.61 99.3417 1240.39 99.3417 1239.03 97.9749L1230.28 89.2249C1228.91 87.858 1228.91 85.642 1230.28 84.2751L1239.03 75.5251C1240.39 74.1583 1242.61 74.1583 1243.97 75.5251Z" fill="white"/>
<path fill-rule="evenodd" clip-rule="evenodd" d="M1252.28 97.9749C1250.91 96.608 1250.91 94.392 1252.28 93.0251L1258.55 86.75L1252.28 80.4749C1250.91 79.108 1250.91 76.892 1252.28 75.5251C1253.64 74.1583 1255.86 74.1583 1257.22 75.5251L1265.97 84.2751C1267.34 85.642 1267.34 87.858 1265.97 89.2249L1257.22 97.9749C1255.86 99.3417 1253.64 99.3417 1252.28 97.9749Z" fill="white"/>
</svg>
