<svg width="206" height="94" viewBox="0 0 206 94" fill="none" xmlns="http://www.w3.org/2000/svg">
<g clip-path="url(#clip0_599_4179)">
<path d="M41.2999 85.3001C40.6999 84.1001 39.9999 83.1001 38.4999 83.0001C38.4999 82.2001 38.4999 81.4001 38.4999 80.6001H33.0999C33.0999 81.4001 33.0999 82.2001 33.0999 83.0001C32.0999 83.1001 31.2999 83.5001 30.7999 84.4001C29.8999 86.2001 28.9 88.0001 28.1 89.9001C27.3 91.7001 28.4999 93.6001 30.4999 93.7001C34.0999 93.7001 37.7 93.7001 41.2 93.7001C43.2 93.7001 44.4 91.6001 43.4999 89.8001C42.7999 88.3001 41.9999 86.8001 41.2999 85.3001Z" fill="#3DA35D"/>
<path d="M21.8 85.3001C21.2 84.1001 20.5 83.1001 19.1 83.0001C19.1 82.2001 19.1 81.4001 19.1 80.6001H13.7C13.7 81.4001 13.7 82.2001 13.7 83.0001C12.7 83.2001 11.8 83.6001 11.4 84.5001C10.5 86.3001 9.60003 88.0001 8.70003 89.9001C7.80003 91.7001 9.00003 93.7001 11 93.7001C14.6 93.7001 18.2 93.7001 21.7 93.7001C23.7 93.7001 24.9 91.6001 24 89.8001C23.3 88.3001 22.5 86.8001 21.8 85.3001Z" fill="#3DA35D"/>
<path d="M8.19995 81.6998C7.09995 81.1998 6.49995 80.4998 6.39995 79.1998C6.39995 78.4998 6.29995 77.8998 6.19995 77.1998C17 77.1998 27.7999 77.1998 38.5999 77.1998C38.7999 77.1998 39 77.1998 39.2 77.1998C40.2999 77.0998 41.3 76.1998 41.4 75.0998C41.5 74.2998 41.6 73.4998 41.7 72.7998C43.2 72.7998 44.6999 72.7998 46.0999 72.7998C45.8999 75.0998 45.7 77.4998 45.4 79.7998C45.3 80.7998 44.5 81.2998 43.7 81.6998C31.9 81.6998 20 81.6998 8.19995 81.6998Z" fill="#3DA35D"/>
<path d="M2.19995 29.2998C2.49995 26.7998 2.79995 24.3998 3.09995 21.8998C3.49995 19.0998 3.79995 16.2998 4.19995 13.4998C4.39995 11.9998 4.49995 10.5998 5.69995 9.3998C6.69995 8.3998 7.89995 7.7998 9.39995 7.7998C9.99995 7.7998 10.5 7.7998 11.1 7.7998C11.1 11.9998 11.1 16.1998 11.1 20.2998C11.1 21.5998 11.5 21.9998 12.8 21.9998C21.6 21.9998 30.2999 21.9998 39.0999 21.9998C40.3999 21.9998 40.7999 21.5998 40.7999 20.2998C40.7999 16.3998 40.7999 12.4998 40.7999 8.5998C41.2999 9.0998 42 9.5998 42.4 10.1998C43.1 11.1998 43.1 12.4998 43.2 13.6998C43.5 15.7998 43.7999 17.7998 44 19.8998C44.2 21.5998 44.5 23.1998 44.7 24.8998C44.9 26.2998 45 27.6998 45.2 29.0998C45 29.0998 44.9 29.0998 44.7 29.0998C30.7 29.0998 16.7 29.0998 2.69995 29.0998C2.49995 29.3998 2.39995 29.3998 2.19995 29.2998Z" fill="#9AE59C"/>
<path d="M40.8 8.8C40.8 12.7 40.8 16.6 40.8 20.5C40.8 21.8 40.4 22.2 39.1 22.2C30.3 22.2 21.6 22.2 12.8 22.2C11.5 22.2 11.1 21.8 11.1 20.5C11.1 16.3 11.1 12.1 11.1 8C19.2 8 27.4 8 35.5 8C37.3 8 39 8 40.8 8C40.8 8.2 40.8 8.5 40.8 8.8Z" fill="#3DA35D"/>
<path d="M2.2 29.2998C2.4 29.2998 2.6 29.2998 2.8 29.2998C16.8 29.2998 30.8 29.2998 44.8 29.2998C45 29.2998 45.1 29.2998 45.3 29.2998C45.9 29.2998 46.6 29.2998 47.2 29.2998C47.3 29.6998 47.5 30.0998 47.5 30.4998C47.5 31.4998 47.5 32.4998 47.5 33.5998C47.5 34.0998 47.3 34.4998 47.2 34.9998C46.6 34.9998 45.9 34.9998 45.3 34.9998C45.1 34.9998 44.9 34.9998 44.7 34.9998C30.7 34.9998 16.8 34.9998 3 34.9998C2.9 34.9998 2.8 34.9998 2.6 34.9998C2.4 34.9998 2.1 34.9998 1.9 35.0998C1.6 35.0998 1.3 35.0998 1 35.0998C0.3 35.0998 0 34.7998 0 34.0998C0 32.7998 0 31.4998 0 30.1998C0 29.5998 0.3 29.2998 0.9 29.2998C1.4 29.3998 1.8 29.3998 2.2 29.2998Z" fill="#4DAA6A"/>
<path d="M45.2 35.1001C45.8 35.1001 46.5 35.1001 47.1 35.1001C48 35.1001 48.8 35.1001 49.7 35.2001C49.4 38.0001 49.2 40.8001 48.9 43.6001C48.7 45.8001 48.5 48.1001 48.2 50.3001C47.9 53.5001 47.6 56.7001 47.2 60.0001C46.9 62.6001 46.7 65.2001 46.4 67.9001C46.2 69.6001 46.1 71.2001 45.9 72.9001C44.4 72.9001 42.9 72.9001 41.5 72.9001C41.7 71.0001 41.9 69.1001 42.1 67.1001C42.3 65.4001 42.4 63.7001 42.6 62.0001C42.8 60.3001 43 58.6001 43.1 56.9001C43.2 55.7001 43.3 54.6001 43.4 53.4001C43.6 51.6001 43.8 49.8001 43.9 48.1001C44.1 46.4001 44.2 44.7001 44.4 43.0001C44.6 41.3001 44.8 39.6001 44.9 37.9001C45.1 36.9001 45.2 36.0001 45.2 35.1001Z" fill="#94CCA6"/>
<path d="M5.90002 72.7998C6.00002 72.7998 6.10002 72.7998 6.30002 72.7998C18.1 72.7998 29.9 72.7998 41.7 72.7998C41.6 73.5998 41.5 74.3998 41.4 75.0998C41.3 76.1998 40.4 77.1998 39.2 77.1998C39 77.1998 38.8 77.1998 38.6 77.1998C27.8 77.1998 17 77.1998 6.20002 77.1998C6.10002 75.6998 6.00002 74.2998 5.90002 72.7998Z" fill="#4EAB6C"/>
<path d="M47.1 29.3999C46.5 29.3999 45.8001 29.3999 45.2001 29.3999C45.0001 27.9999 44.9001 26.5999 44.7001 25.1999C44.5001 23.4999 44.2 21.8999 44 20.1999C43.7 18.0999 43.4001 16.0999 43.2001 13.9999C43.1001 12.7999 43.1001 11.4999 42.4001 10.4999C42.0001 9.89989 41.3 9.39989 40.8 8.89989C40.8 8.59989 40.8 8.29989 40.8 7.99989C41.8 7.99989 42.9001 7.89989 43.9001 8.19989C46.0001 8.69989 47.3 10.3999 47.6 12.4999C48.1 16.3999 48.6 20.1999 49.1 24.0999C49.3 25.8999 49.5 27.6999 49.8 29.3999C48.9 29.2999 48 29.3999 47.1 29.3999Z" fill="#94CCA6"/>
<path d="M47.1 29.3998C48 29.3998 48.9 29.3998 49.7 29.2998C50.1 29.2998 50.6 29.2998 51 29.2998C51.6 29.2998 51.8 29.5998 51.8 30.0998C51.8 31.3998 51.8 32.7998 51.8 34.0998C51.8 34.6998 51.5 34.9998 50.9 34.9998C50.5 34.9998 50 34.9998 49.6 34.9998C48.7 34.9998 47.9 34.9998 47 34.8998C47.1 34.3998 47.3 33.9998 47.3 33.4998C47.3 32.4998 47.3 31.4998 47.3 30.3998C47.4 30.1998 47.2 29.7998 47.1 29.3998Z" fill="#3DA35D"/>
<path d="M1.90002 35.1C2.10002 35.1 2.40002 35.1 2.60002 35C2.40002 35 2.30002 35.1 2.20002 35.1C2.10002 35.1 2.00002 35.1 1.90002 35.1Z" fill="#94CCA6"/>
<path d="M44.5999 35C30.6999 35 16.8 35 2.99995 35C2.89995 35 2.79995 35 2.59995 35C2.39995 35 2.29995 35.1 2.19995 35.1C2.29995 35.7 2.29995 36.3 2.39995 37C2.59995 39.2 2.79995 41.3 2.99995 43.5C3.29995 46.2 3.59995 49 3.79995 51.7C3.99995 53.9 4.19995 56 4.39995 58.2C4.69995 60.9 4.89995 63.6 5.19995 66.3C5.39995 68.4 5.59995 70.6 5.89995 72.7C5.99995 72.7 6.09995 72.7 6.29995 72.7C18.1 72.7 29.9 72.7 41.7 72.7C41.9 70.8 42.0999 68.9 42.2999 66.9C42.5 65.2 42.5999 63.5 42.7999 61.8C43 60.1 43.2 58.4 43.2999 56.7C43.3999 55.5 43.5 54.4 43.5999 53.2C43.7999 51.4 44 49.6 44.0999 47.9C44.2999 46.2 44.3999 44.5 44.5999 42.8C44.7999 41.1 45 39.4 45.0999 37.7C45.1999 36.8 45.2 35.9 45.2999 35C45 35.1 44.7999 35 44.5999 35Z" fill="#9BE59D"/>
<path d="M8 47.1002C8.2 46.3002 8.8 45.8002 9.4 45.3002C12.5 42.5002 16 40.7002 20 40.0002C27.1 38.7002 33.4 40.4002 38.9 45.0002C39.3 45.3002 39.7 45.7002 40 46.1002C40.6 46.7002 40.8 47.4002 40.5 48.1002C40.2 48.8002 39.7 49.3002 38.9 49.3002C38.3 49.4002 37.8 49.1002 37.4 48.7002C36.8 48.2002 36.2 47.6002 35.5 47.1002C32.8 45.1002 29.8 43.8002 26.5 43.5002C22.1 43.0002 18 44.0002 14.2 46.4002C13.1 47.1002 12.2 47.9002 11.3 48.8002C10.6 49.3002 9.8 49.5002 9 49.0002C8.6 48.8002 8.3 48.4002 8.1 48.0002C8.1 47.9002 8 47.8002 8 47.7002C8 47.5002 8 47.3002 8 47.1002Z" fill="white"/>
<path d="M24.6 45.7002C28.7 45.8002 32.5 47.3002 35.6 50.3002C36.1 50.8002 36.4 51.4002 36.2 52.2002C36 52.9002 35.6 53.4002 34.9 53.6002C34.3 53.8002 33.8 53.7002 33.3 53.3002C32.8 52.9002 32.3 52.4002 31.8 52.0002C30 50.6002 27.9 49.8002 25.7 49.6002C22.1 49.3002 19 50.3002 16.3 52.6002C15.9 53.0002 15.5 53.4002 14.9 53.6002C14.1 53.8002 13.3 53.5002 12.8 52.8002C12.4 52.1002 12.4 51.2002 12.9 50.6002C13.7 49.7002 14.6 49.0002 15.5 48.4002C18.1 46.6002 21.1 45.8002 24.6 45.7002Z" fill="white"/>
<path d="M24.3 51.8999C27.1 51.8999 29.4 52.8999 31.4 54.7999C32.2 55.4999 32.2 56.6999 31.5 57.3999C30.8 58.0999 29.7 58.1999 28.9 57.4999C28.2 56.8999 27.4 56.2999 26.5 55.9999C24.2 55.2999 22.2 55.6999 20.4 57.1999C20.1 57.3999 19.8 57.6999 19.5 57.8999C18.7 58.1999 17.7 57.8999 17.3 57.1999C16.8 56.4999 16.9 55.4999 17.6 54.7999C19.4 53.0999 21.5 52.0999 24 51.9999C24 51.9999 24.2 51.9999 24.3 51.8999Z" fill="white"/>
<path d="M27.6 61.9002C27.6 63.7002 26.2 65.1002 24.4 65.1002C22.6 65.1002 21.2 63.7002 21.2 61.9002C21.2 60.1002 22.6999 58.7002 24.4 58.7002C26.2 58.7002 27.6 60.1002 27.6 61.9002Z" fill="white"/>
<path d="M36 5.2C37.436 5.2 38.6 4.03594 38.6 2.6C38.6 1.16406 37.436 0 36 0C34.5641 0 33.4 1.16406 33.4 2.6C33.4 4.03594 34.5641 5.2 36 5.2Z" fill="#3DA35D"/>
<path d="M33.4301 2.10596L31.7291 11.96L36.8532 12.8445L38.5542 2.99048L33.4301 2.10596Z" fill="#3DA35D"/>
<path d="M15.6 5.2C17.0359 5.2 18.2 4.03594 18.2 2.6C18.2 1.16406 17.0359 0 15.6 0C14.1641 0 13 1.16406 13 2.6C13 4.03594 14.1641 5.2 15.6 5.2Z" fill="#3DA35D"/>
<path d="M18.2066 2.12375L13.0825 3.00879L14.7845 12.8628L19.9086 11.9777L18.2066 2.12375Z" fill="#3DA35D"/>
<path d="M32 17.7C33.436 17.7 34.6 16.5359 34.6 15.1C34.6 13.6641 33.436 12.5 32 12.5C30.5641 12.5 29.4 13.6641 29.4 15.1C29.4 16.5359 30.5641 17.7 32 17.7Z" fill="white"/>
<path d="M20.1 17.7C21.5359 17.7 22.7 16.5359 22.7 15.1C22.7 13.6641 21.5359 12.5 20.1 12.5C18.6641 12.5 17.5 13.6641 17.5 15.1C17.5 16.5359 18.6641 17.7 20.1 17.7Z" fill="white"/>
<path d="M68.2 44.6001C67.1 44.6001 66.3 44.4001 65.6 43.9001C65 43.4001 64.7 42.8001 64.7 42.2001V9.1001C64.7 8.3001 65.1 7.6001 65.8 7.2001C66.6 6.8001 67.4 6.6001 68.2 6.6001H78.9C80.6 6.6001 82.3 6.9001 83.9 7.4001C85.5 7.9001 86.8 8.9001 87.8 10.2001C88.8 11.5001 89.3 13.4001 89.3 15.9001C89.3 18.0001 88.9 19.8001 88.1 21.2001C87.3 22.6001 86.3 23.5001 84.9 24.1001C86 24.5001 86.9 25.0001 87.7 25.7001C88.5 26.3001 89.1 27.2001 89.6 28.2001C90.1 29.3001 90.3 30.7001 90.3 32.4001V33.5001C90.3 36.2001 89.8 38.4001 88.9 40.1001C88 41.7001 86.8 42.9001 85.2 43.6001C83.6 44.3001 81.9 44.7001 79.9 44.7001H68.2V44.6001ZM72.8 37.5001H78C79.3 37.5001 80.3 37.1001 81.1 36.4001C81.9 35.7001 82.2 34.4001 82.2 32.8001V32.0001C82.2 30.2001 81.8 29.0001 81.1 28.3001C80.4 27.6001 79.3 27.2001 78 27.2001H72.8V37.5001ZM72.8 20.9001H78.3C79.3 20.9001 80.1 20.5001 80.5 19.8001C81 19.0001 81.2 18.2001 81.2 17.4001C81.2 16.8001 81.1 16.2001 80.8 15.6001C80.6 15.0001 80.3 14.6001 79.8 14.2001C79.4 13.9001 78.8 13.7001 78.2 13.7001H72.7V20.9001H72.8ZM98 15.1001C96.8 15.1001 95.8 14.7001 95 14.0001C94.2 13.3001 93.8 12.4001 93.8 11.4001C93.8 10.4001 94.2 9.5001 95 8.8001C95.8 8.1001 96.8 7.7001 98 7.7001C99.2 7.7001 100.2 8.1001 101 8.8001C101.8 9.5001 102.2 10.4001 102.2 11.4001C102.2 12.4001 101.8 13.2001 101 14.0001C100.2 14.7001 99.2 15.1001 98 15.1001ZM98 44.6001C96.8 44.6001 95.9 44.3001 95.1 43.8001C94.4 43.3001 94 42.7001 94 42.1001V22.3001C94 21.6001 94.4 21.0001 95.1 20.5001C95.9 20.0001 96.8 19.8001 98 19.8001C99.1 19.8001 100.1 20.0001 100.9 20.5001C101.7 21.0001 102.1 21.5001 102.1 22.3001V42.1001C102.1 42.7001 101.7 43.3001 100.9 43.8001C100.1 44.3001 99.1 44.6001 98 44.6001ZM110.7 44.6001C109.5 44.6001 108.6 44.3001 107.8 43.8001C107.1 43.3001 106.7 42.7001 106.7 42.1001V22.3001C106.7 21.6001 107.1 21.0001 107.8 20.5001C108.6 20.0001 109.5 19.8001 110.7 19.8001C111.7 19.8001 112.5 20.0001 113.2 20.5001C113.9 21.0001 114.2 21.5001 114.2 22.3001V23.5001C114.7 22.5001 115.5 21.6001 116.7 20.8001C117.9 20.0001 119.4 19.6001 121.1 19.6001C122.7 19.6001 124.2 20.1001 125.5 21.1001C126.9 22.1001 127.9 23.4001 128.7 25.1001C129.5 26.7001 129.9 28.5001 129.9 30.6001V42.2001C129.9 43.0001 129.5 43.7001 128.6 44.1001C127.8 44.5001 126.9 44.7001 125.8 44.7001C124.9 44.7001 124 44.5001 123.1 44.1001C122.2 43.7001 121.8 43.1001 121.8 42.2001V30.5001C121.8 29.8001 121.6 29.2001 121.3 28.6001C121 28.0001 120.5 27.5001 119.9 27.1001C119.3 26.7001 118.7 26.5001 118 26.5001C117.4 26.5001 116.9 26.7001 116.3 27.0001C115.8 27.3001 115.3 27.8001 115 28.4001C114.7 29.0001 114.5 29.6001 114.5 30.5001V42.1001C114.5 42.7001 114.1 43.3001 113.3 43.8001C112.8 44.3001 111.8 44.6001 110.7 44.6001ZM74.3 92.6001C73.8 92.6001 73.5 92.5001 73.1 92.3001C72.8 92.1001 72.6 91.7001 72.6 91.3001V57.8001H63.9C63.5 57.8001 63.2 57.6001 62.9 57.3001C62.7 57.0001 62.5 56.6001 62.5 56.2001C62.5 55.8001 62.6 55.4001 62.9 55.1001C63.1 54.8001 63.5 54.6001 63.9 54.6001H84.8C85.3 54.6001 85.6 54.8001 85.8 55.1001C86 55.4001 86.1 55.8001 86.1 56.1001C86.1 56.5001 86 56.9001 85.8 57.2001C85.6 57.5001 85.3 57.7001 84.8 57.7001H76V91.1001C76 91.6001 75.8 91.9001 75.4 92.1001C75.1 92.5001 74.7 92.6001 74.3 92.6001ZM86.8 92.6001C86.3 92.6001 86 92.5001 85.6 92.2001C85.3 91.9001 85.1 91.6001 85.1 91.3001V69.3001C85.1 68.9001 85.3 68.6001 85.6 68.4001C85.9 68.2001 86.3 68.0001 86.8 68.0001C87.3 68.0001 87.6 68.1001 87.9 68.4001C88.2 68.6001 88.4 68.9001 88.4 69.3001V71.8001C88.8 71.1001 89.3 70.4001 90 69.8001C90.7 69.2001 91.4 68.7001 92.3 68.3001C93.2 67.9001 94.2 67.7001 95.4 67.7001H97.2C97.6 67.7001 97.9 67.9001 98.1 68.2001C98.4 68.5001 98.5 68.9001 98.5 69.3001C98.5 69.8001 98.4 70.1001 98.1 70.4001C97.9 70.7001 97.5 70.8001 97.2 70.8001H95.4C94.3 70.8001 93.1 71.1001 92.1 71.7001C91.1 72.3001 90.2 73.2001 89.6 74.3001C88.9 75.4001 88.6 76.8001 88.6 78.4001V91.2001C88.6 91.5001 88.4 91.9001 88.1 92.1001C87.7 92.5001 87.3 92.6001 86.8 92.6001ZM106.6 93.0001C104.6 93.0001 102.9 92.4001 101.6 91.3001C100.2 90.2001 99.6 88.4001 99.6 86.1001C99.6 84.2001 100.1 82.7001 101.1 81.7001C102.1 80.7001 103.6 79.9001 105.4 79.6001C107.2 79.2001 109.4 79.0001 111.7 79.0001H114.4V77.8001C114.4 76.7001 114.2 75.5001 113.8 74.5001C113.4 73.4001 112.8 72.5001 111.9 71.8001C111 71.1001 109.8 70.7001 108.3 70.7001C107.2 70.7001 106.2 70.8001 105.5 71.1001C104.8 71.3001 104.2 71.6001 103.8 71.9001C103.4 72.1001 103 72.3001 102.8 72.3001C102.4 72.3001 102 72.1001 101.8 71.7001C101.6 71.3001 101.4 70.9001 101.4 70.6001C101.4 70.1001 101.8 69.7001 102.5 69.3001C103.2 68.9001 104.1 68.6001 105.2 68.3001C106.3 68.0001 107.4 67.9001 108.5 67.9001C110.8 67.9001 112.7 68.4001 114 69.4001C115.4 70.3001 116.4 71.6001 117 73.1001C117.6 74.6001 117.9 76.3001 117.9 78.0001V91.5001C117.9 91.9001 117.7 92.2001 117.4 92.5001C117.1 92.7001 116.7 92.9001 116.2 92.9001C115.8 92.9001 115.4 92.8001 115.1 92.5001C114.8 92.2001 114.6 91.9001 114.6 91.5001V89.0001C113.7 90.0001 112.7 91.0001 111.4 91.8001C109.9 92.6001 108.3 93.0001 106.6 93.0001ZM107.4 90.1001C108.5 90.1001 109.6 89.8001 110.7 89.2001C111.7 88.6001 112.6 87.9001 113.2 87.1001C113.9 86.2001 114.2 85.4001 114.2 84.7001V81.4001H112C110.4 81.4001 108.9 81.5001 107.5 81.7001C106.1 81.9001 105 82.3001 104.1 82.9001C103.2 83.5001 102.8 84.5001 102.8 85.9001C102.8 87.4001 103.2 88.5001 104.1 89.2001C105.1 89.8001 106.2 90.1001 107.4 90.1001ZM133.2 93.0001C130.9 93.0001 129 92.6001 127.5 91.7001C126 90.8001 124.9 89.7001 124.2 88.2001C123.5 86.7001 123.1 85.0001 123.1 83.2001V77.7001C123.1 75.8001 123.4 74.1001 124.1 72.7001C124.8 71.2001 125.9 70.0001 127.4 69.2001C128.9 68.3001 130.8 67.9001 133.1 67.9001C134.6 67.9001 135.8 68.1001 136.9 68.5001C138 68.8001 138.9 69.3001 139.4 69.8001C140 70.3001 140.3 70.8001 140.3 71.3001C140.3 71.5001 140.2 71.8001 140.1 72.1001C140 72.3001 139.8 72.6001 139.6 72.7001C139.4 72.9001 139.1 73.0001 138.9 73.0001C138.6 73.0001 138.2 72.8001 137.8 72.5001C137.4 72.2001 136.9 71.8001 136.2 71.5001C135.5 71.2001 134.5 71.0001 133.2 71.0001C130.9 71.0001 129.2 71.6001 128.1 72.8001C127 74.0001 126.4 75.6001 126.4 77.7001V83.2001C126.4 85.3001 127 87.0001 128.1 88.2001C129.3 89.4001 131 90.0001 133.3 90.0001C134.6 90.0001 135.6 89.8001 136.4 89.5001C137.1 89.2001 137.7 88.8001 138.1 88.5001C138.5 88.2001 138.9 88.0001 139.2 88.0001C139.5 88.0001 139.8 88.1001 140 88.3001C140.2 88.5001 140.4 88.7001 140.5 88.9001C140.6 89.1001 140.7 89.4001 140.7 89.7001C140.7 90.2001 140.4 90.7001 139.8 91.2001C139.2 91.7001 138.3 92.2001 137.1 92.6001C136.1 92.8001 134.7 93.0001 133.2 93.0001ZM147.1 92.6001C146.7 92.6001 146.3 92.5001 145.9 92.2001C145.6 91.9001 145.4 91.6001 145.4 91.3001V54.3001C145.4 53.9001 145.6 53.6001 145.9 53.4001C146.2 53.2001 146.6 53.0001 147.1 53.0001C147.6 53.0001 148 53.1001 148.3 53.4001C148.6 53.6001 148.8 53.9001 148.8 54.3001V79.6001L161.5 68.3001C161.8 68.1001 162 68.0001 162.3 68.0001C162.6 68.0001 162.8 68.1001 163.1 68.3001C163.4 68.4001 163.6 68.6001 163.8 68.9001C164 69.1001 164.1 69.4001 164.1 69.7001C164.1 69.9001 164.1 70.0001 164 70.2001C164 70.3001 163.9 70.5001 163.7 70.6001L156.1 77.4001L165.1 90.5001C165.2 90.7001 165.3 91.0001 165.3 91.2001C165.3 91.4001 165.2 91.7001 165 92.0001C164.8 92.3001 164.6 92.5001 164.3 92.7001C164 92.9001 163.7 93.0001 163.5 93.0001C163.1 93.0001 162.7 92.8001 162.5 92.4001L153.8 79.6001L149 83.8001V91.5001C149 91.8001 148.8 92.2001 148.5 92.4001C147.9 92.5001 147.6 92.6001 147.1 92.6001ZM178.7 93.0001C176.5 93.0001 174.6 92.6001 172.9 91.8001C171.2 91.0001 169.9 89.8001 168.9 88.4001C168 86.9001 167.5 85.2001 167.5 83.2001V77.4001C167.5 75.7001 168 74.1001 168.9 72.6001C169.8 71.1001 171 69.9001 172.5 69.1001C174 68.2001 175.7 67.8001 177.5 67.8001C179.2 67.8001 180.8 68.2001 182.3 69.0001C183.8 69.8001 185 70.9001 185.9 72.3001C186.8 73.7001 187.3 75.4001 187.3 77.2001C187.3 78.5001 187.1 79.5001 186.6 80.1001C186.2 80.7001 185.6 81.1001 184.9 81.2001C184.2 81.3001 183.5 81.4001 182.8 81.4001H171V83.3001C171 85.4001 171.7 87.0001 173.2 88.2001C174.7 89.4001 176.6 90.0001 178.9 90.0001C180.3 90.0001 181.4 89.8001 182.1 89.5001C182.9 89.2001 183.5 88.8001 183.9 88.5001C184.4 88.2001 184.8 88.0001 185.1 88.0001C185.4 88.0001 185.6 88.1001 185.8 88.3001C186 88.5001 186.2 88.7001 186.3 88.9001C186.4 89.1001 186.5 89.4001 186.5 89.6001C186.5 90.0001 186.2 90.4001 185.6 91.0001C185 91.6001 184.1 92.0001 182.9 92.5001C181.7 92.8001 180.3 93.0001 178.7 93.0001ZM170.9 78.8001H181.3C182.3 78.8001 183 78.7001 183.4 78.5001C183.7 78.3001 183.9 77.8001 183.9 77.0001C183.9 75.9001 183.6 74.9001 183.1 73.9001C182.5 72.9001 181.8 72.1001 180.8 71.5001C179.8 70.8001 178.7 70.5001 177.4 70.5001C176.2 70.5001 175.1 70.8001 174.1 71.4001C173.1 72.0001 172.3 72.8001 171.8 73.7001C171.2 74.6001 170.9 75.7001 170.9 76.9001V78.8001ZM193.9 92.6001C193.4 92.6001 193.1 92.5001 192.7 92.2001C192.4 91.9001 192.2 91.6001 192.2 91.3001V69.3001C192.2 68.9001 192.4 68.6001 192.7 68.4001C193 68.2001 193.4 68.0001 193.9 68.0001C194.4 68.0001 194.7 68.1001 195 68.4001C195.3 68.6001 195.5 68.9001 195.5 69.3001V71.8001C195.9 71.1001 196.4 70.4001 197.1 69.8001C197.8 69.2001 198.5 68.7001 199.4 68.3001C200.3 67.9001 201.3 67.7001 202.5 67.7001H204.3C204.7 67.7001 205 67.9001 205.2 68.2001C205.5 68.5001 205.6 68.9001 205.6 69.3001C205.6 69.8001 205.5 70.1001 205.2 70.4001C205 70.7001 204.6 70.8001 204.3 70.8001H202.5C201.4 70.8001 200.2 71.1001 199.2 71.7001C198.2 72.3001 197.3 73.2001 196.7 74.3001C196 75.4001 195.7 76.8001 195.7 78.4001V91.2001C195.7 91.5001 195.5 91.9001 195.2 92.1001C194.8 92.5001 194.4 92.6001 193.9 92.6001Z" fill="#4EAB6C"/>
</g>
<defs>
<clipPath id="clip0_599_4179">
<rect width="205.6" height="93.7" fill="white"/>
</clipPath>
</defs>
</svg>
