<svg width="52" height="95" viewBox="0 0 52 95" fill="none" xmlns="http://www.w3.org/2000/svg">
<g id="Logo">
<path id="Vector" d="M41.2997 85.7345C40.7267 84.508 39.9926 83.559 38.5422 83.4516C38.5422 82.6279 38.5422 81.8669 38.5422 81.079H33.1615C33.1615 81.8758 33.1615 82.6368 33.1615 83.4516C32.1409 83.5769 31.3261 83.9798 30.8785 84.8661C29.9384 86.6925 28.9894 88.51 28.1389 90.3632C27.3063 92.1627 28.5507 94.0966 30.5383 94.1145C34.1195 94.1503 37.6917 94.1503 41.2728 94.1145C43.3141 94.0876 44.4959 91.9837 43.5648 90.1752C42.7859 88.7069 42.007 87.2386 41.2997 85.7345Z" fill="#00A787"/>
<path id="Vector_2" d="M21.7824 85.6988C21.2094 84.4722 20.4663 83.5322 19.0697 83.4247C19.0697 82.5831 19.0697 81.8042 19.0697 81.0522H13.6532C13.6532 81.858 13.6532 82.619 13.6532 83.4158C12.6415 83.568 11.791 83.9709 11.3165 84.9199C10.4212 86.7015 9.49902 88.4652 8.6485 90.2737C7.78006 92.118 8.99766 94.0787 11.03 94.0966C14.6111 94.1324 18.1833 94.1414 21.7645 94.0966C23.8058 94.0697 24.9876 91.9658 24.0475 90.1484C23.2596 88.6711 22.4807 87.2029 21.7824 85.6988Z" fill="#00A787"/>
<path id="Vector_3" d="M8.2278 82.0907C7.11763 81.6341 6.49093 80.8463 6.44617 79.6108C6.41931 78.9483 6.33873 78.2947 6.27606 77.6322C17.0643 77.6322 27.8526 77.6322 38.6408 77.6232C38.8288 77.6232 39.0258 77.6322 39.2138 77.6232C40.3598 77.5606 41.273 76.6474 41.3715 75.5104C41.4431 74.7315 41.5595 73.9525 41.658 73.1736L41.6401 73.1378C43.1173 73.1557 44.5945 73.1647 46.0718 73.1826C45.8479 75.5104 45.642 77.8381 45.3824 80.1569C45.266 81.1596 44.5319 81.7058 43.6724 82.0907C31.8545 82.0907 20.0456 82.0907 8.2278 82.0907Z" fill="#00A787"/>
<path id="Vector_4" d="M2.15771 29.752C2.47107 27.29 2.77547 24.8279 3.09777 22.3659C3.45589 19.5726 3.84086 16.7793 4.19898 13.9859C4.38699 12.5087 4.54814 11.0404 5.68516 9.89447C6.7237 8.84698 7.93234 8.30085 9.40062 8.31876C9.97361 8.32771 10.5466 8.32771 11.1285 8.33666C11.1196 12.5087 11.1196 16.6897 11.1106 20.8618C11.1106 22.1868 11.4956 22.5718 12.8206 22.5718C21.5766 22.5718 30.3415 22.5718 39.0974 22.5718C40.4135 22.5718 40.8074 22.1779 40.8074 20.8528C40.8164 16.9673 40.8253 13.0817 40.8253 9.18719C41.3715 9.73332 42.034 10.1989 42.4548 10.8256C43.1531 11.8641 43.1262 13.1265 43.2784 14.3351C43.5291 16.4122 43.8335 18.4803 44.1111 20.5484C44.3349 22.2226 44.5856 23.8879 44.7915 25.5621C44.9616 26.9498 45.0959 28.3464 45.2481 29.7431C45.078 29.752 44.9168 29.761 44.7467 29.761C30.7444 29.761 16.742 29.761 2.73965 29.761C2.54269 29.7789 2.35468 29.761 2.15771 29.752Z" fill="#9AE59C"/>
<path id="Vector_5" d="M40.8253 9.20507C40.8164 13.0906 40.8074 16.9762 40.8074 20.8707C40.8074 22.1957 40.4135 22.5897 39.0974 22.5897C30.3414 22.5897 21.5765 22.5897 12.8206 22.5897C11.4956 22.5897 11.1106 22.2047 11.1106 20.8797C11.1106 16.7076 11.1195 12.5266 11.1285 8.35455C19.2667 8.34559 27.3959 8.34559 35.5341 8.33664C37.2889 8.33664 39.0347 8.34559 40.7895 8.35455C40.7984 8.63209 40.8074 8.91858 40.8253 9.20507Z" fill="#00A787"/>
<path id="Vector_6" d="M2.15765 29.752C2.34566 29.761 2.54263 29.7789 2.73064 29.7789C16.733 29.7789 30.7353 29.7789 44.7377 29.7789C44.9078 29.7789 45.069 29.7699 45.2391 29.761C45.8658 29.7699 46.4925 29.7789 47.1192 29.7878C47.2177 30.1997 47.3788 30.6025 47.3967 31.0144C47.4325 32.035 47.4415 33.0556 47.3967 34.0763C47.3788 34.5508 47.2266 35.0253 47.1281 35.4998C46.4925 35.4908 45.8568 35.4729 45.2211 35.464C45.0063 35.455 44.7914 35.4282 44.5765 35.4282C30.7085 35.4282 16.8315 35.4282 2.96341 35.4282C2.84703 35.4282 2.72169 35.4371 2.6053 35.4461C2.36357 35.4729 2.12184 35.4908 1.88011 35.5177C1.59362 35.5266 1.30712 35.5535 1.02063 35.5445C0.34021 35.5266 0.00895346 35.2133 0.00895346 34.5418C5.46309e-07 33.2526 0.00895291 31.9634 0 30.6742C0 30.0475 0.304398 29.761 0.931102 29.7699C1.35189 29.7878 1.75477 29.761 2.15765 29.752Z" fill="#0BB393"/>
<path id="Vector_7" d="M45.23 35.4729C45.8657 35.4819 46.5013 35.4998 47.137 35.5088C48.0054 35.5267 48.8649 35.5446 49.7333 35.5625C49.4737 38.3558 49.223 41.1401 48.9544 43.9334C48.7396 46.1717 48.5068 48.4099 48.283 50.6571C47.9606 53.8712 47.6383 57.0942 47.316 60.3083C47.0564 62.9315 46.8057 65.5547 46.555 68.1779C46.3939 69.8432 46.2327 71.5174 46.0716 73.1826C44.5944 73.1647 43.1171 73.1557 41.6399 73.1378C41.8279 71.213 42.0159 69.297 42.2039 67.3722C42.3651 65.689 42.4994 63.9969 42.6605 62.3138C42.8306 60.6038 43.0276 58.9027 43.1977 57.1927C43.3141 56.0288 43.4036 54.865 43.52 53.7011C43.6991 51.9194 43.896 50.1468 44.0661 48.3651C44.2273 46.682 44.3616 44.9899 44.5317 43.3067C44.7018 41.5967 44.8988 39.8957 45.0599 38.1857C45.1494 37.2904 45.1763 36.3772 45.23 35.4729Z" fill="#6ED6A2"/>
<path id="Vector_8" d="M5.8551 73.1915C5.97149 73.1826 6.09683 73.1646 6.21322 73.1646C18.0311 73.1646 29.84 73.1646 41.6578 73.1646C41.5593 73.9436 41.434 74.7225 41.3713 75.5014C41.2728 76.6384 40.3596 77.5516 39.2136 77.6142C39.0256 77.6232 38.8287 77.6142 38.6407 77.6142C27.8524 77.6142 17.0641 77.6142 6.27589 77.6232C6.13264 76.146 5.99835 74.6687 5.8551 73.1915Z" fill="#0CB494"/>
<path id="Vector_9" d="M47.128 29.7968C46.5013 29.7878 45.8746 29.7789 45.2479 29.7699C45.0957 28.3733 44.9614 26.9766 44.7913 25.5889C44.5854 23.9147 44.3347 22.2495 44.1109 20.5753C43.8333 18.5072 43.5289 16.4301 43.2783 14.362C43.135 13.1533 43.1529 11.891 42.4546 10.8524C42.0338 10.2257 41.3802 9.75122 40.8252 9.21405C40.8073 8.92755 40.7983 8.64106 40.7804 8.35457C41.8279 8.39933 42.9112 8.2919 43.9139 8.52467C45.9731 8.99918 47.2981 10.7271 47.5667 12.84C48.0502 16.6987 48.5963 20.5574 49.1066 24.4161C49.3394 26.1888 49.5453 27.9704 49.7602 29.752C48.8828 29.752 48.0054 29.7699 47.128 29.7968Z" fill="#70D6A2"/>
<path id="Vector_10" d="M47.1281 29.7967C48.0054 29.7788 48.8828 29.7609 49.7602 29.7341C50.1899 29.743 50.6197 29.7609 51.0494 29.7699C51.6045 29.7699 51.891 30.0295 51.891 30.6025C51.891 31.9365 51.882 33.2794 51.891 34.6134C51.9 35.2222 51.5597 35.4729 51.0136 35.5177C50.5839 35.5535 50.1541 35.5445 49.7244 35.5624C48.856 35.5445 47.9965 35.5266 47.1281 35.5087C47.2176 35.0342 47.3787 34.5597 47.3966 34.0762C47.4414 33.0556 47.4325 32.035 47.3966 31.0143C47.3877 30.6025 47.2265 30.1996 47.1281 29.7967Z" fill="#00A887"/>
<path id="Vector_11" d="M1.8891 35.5267C2.13083 35.4998 2.37256 35.4819 2.61429 35.455C2.46209 35.4908 2.31884 35.5267 2.16664 35.5714C2.07711 35.5535 1.97863 35.5356 1.8891 35.5267Z" fill="#6ED6A2"/>
<path id="Vector_12" d="M44.5855 35.4371C30.7174 35.4371 16.8404 35.4371 2.97233 35.4371C2.85594 35.4371 2.7306 35.4461 2.61421 35.455C2.46201 35.4908 2.31876 35.5266 2.16656 35.5714C2.22028 36.1891 2.26505 36.8069 2.32772 37.4336C2.53363 39.6002 2.7306 41.7668 2.94547 43.9334C3.21405 46.673 3.50055 49.4036 3.76914 52.1432C3.98401 54.3098 4.18097 56.4764 4.39584 58.6431C4.66443 61.3558 4.94197 64.0685 5.21055 66.7812C5.42542 68.921 5.64925 71.0607 5.86412 73.2005C5.9805 73.1915 6.10584 73.1736 6.22223 73.1736C18.0401 73.1736 29.849 73.1736 41.6668 73.1736L41.6489 73.1378C41.8369 71.2129 42.0249 69.297 42.2129 67.3721C42.3741 65.689 42.5084 63.9969 42.6695 62.3137C42.8396 60.6037 43.0366 58.9027 43.2067 57.1927C43.3231 56.0288 43.4126 54.8649 43.529 53.701C43.7081 51.9194 43.905 50.1467 44.0751 48.3651C44.2363 46.682 44.3706 44.9899 44.5407 43.3067C44.7108 41.5967 44.9078 39.8957 45.0689 38.1856C45.1495 37.2814 45.1853 36.3772 45.2301 35.4729C45.0152 35.464 44.8003 35.4371 44.5855 35.4371Z" fill="#9BE59D"/>
<g id="Wifi Icon">
<path id="Vector_13" d="M8.02185 47.4788C8.22777 46.682 8.83656 46.2075 9.4006 45.6971C12.4535 42.9486 15.981 41.1043 20.0277 40.3702C27.0916 39.0899 33.4213 40.7372 38.9363 45.3748C39.3302 45.7061 39.7152 46.0642 40.0822 46.4313C40.6463 47.0043 40.8432 47.6847 40.5567 48.4457C40.2792 49.1888 39.7152 49.6006 38.9183 49.6633C38.3185 49.717 37.835 49.4574 37.3964 49.0634C36.7876 48.5173 36.1877 47.9533 35.5431 47.4609C32.8662 45.4196 29.8491 44.202 26.5007 43.826C22.069 43.3336 17.9775 44.2826 14.2262 46.6999C13.1698 47.3803 12.2118 48.1861 11.3076 49.0545C10.6092 49.726 9.77662 49.8603 9.00667 49.4395C8.58588 49.2156 8.29939 48.8754 8.13824 48.4188C8.11138 48.3293 8.06662 48.2487 8.02185 48.1681C8.02185 47.9443 8.02185 47.7116 8.02185 47.4788Z" fill="white"/>
<path id="Vector_14" d="M24.6294 46.1448C28.7299 46.2075 32.508 47.7295 35.6505 50.7735C36.1876 51.2927 36.4204 51.9194 36.2234 52.6536C36.0444 53.3609 35.5788 53.8175 34.8805 54.0055C34.2896 54.1577 33.7345 54.0592 33.26 53.6652C32.7408 53.2445 32.2573 52.7789 31.7291 52.376C29.9206 50.9883 27.8704 50.1915 25.6142 49.9856C22.0599 49.6633 18.8996 50.6571 16.1868 53.0206C15.7571 53.3967 15.39 53.8443 14.7991 54.0055C14.0202 54.2114 13.1876 53.9159 12.731 53.2355C12.2923 52.5819 12.3013 51.6688 12.8205 51.06C13.5726 50.1826 14.4858 49.4753 15.4437 48.8396C18.1386 47.0491 21.1199 46.1717 24.6294 46.1448Z" fill="white"/>
<path id="Vector_15" d="M24.2535 52.3492C27.0468 52.385 29.3835 53.334 31.3263 55.2141C32.0784 55.9483 32.1052 57.0853 31.4069 57.8552C30.7444 58.5894 29.6074 58.6789 28.8195 57.9895C28.0854 57.3539 27.3244 56.754 26.3843 56.4586C24.1192 55.7334 22.078 56.1363 20.2516 57.6672C19.9651 57.909 19.6607 58.1686 19.3205 58.3208C18.4968 58.6699 17.5657 58.3387 17.0912 57.5956C16.6077 56.8525 16.7152 55.8677 17.3687 55.232C19.1504 53.5041 21.2722 52.5193 23.7701 52.385C23.967 52.3671 24.155 52.3582 24.2535 52.3492Z" fill="white"/>
<path id="Vector_16" d="M27.5573 62.26C27.5573 64.0327 26.1337 65.4651 24.3611 65.4651C22.5884 65.4741 21.1649 64.0506 21.1559 62.269C21.147 60.4873 22.6063 59.028 24.37 59.0459C26.1516 59.0728 27.5573 60.4873 27.5573 62.26Z" fill="white"/>
</g>
<g id="right ear">
<circle id="Ellipse 3" cx="36.0063" cy="3.00518" r="2.60059" transform="rotate(9.79596 36.0063 3.00518)" fill="#00A787"/>
<rect id="Rectangle 1" x="33.4437" y="2.56273" width="5.20118" height="9.98626" transform="rotate(9.79596 33.4437 2.56273)" fill="#00A787"/>
</g>
<g id="left ear">
<circle id="Ellipse 3_2" cx="15.6097" cy="3.00526" r="2.60059" transform="rotate(-9.8 15.6097 3.00526)" fill="#00A787"/>
<rect id="Rectangle 1_2" x="13.047" y="3.44795" width="5.20118" height="9.98626" transform="rotate(-9.8 13.047 3.44795)" fill="#00A787"/>
</g>
<circle id="right eye" cx="31.9526" cy="15.4995" r="2.60059" fill="white"/>
<circle id="left eye" cx="20.0941" cy="15.4995" r="2.60059" fill="white"/>
</g>
</svg>
