<svg width="187" height="76" viewBox="0 0 207 96" fill="none" xmlns="http://www.w3.org/2000/svg">
<path d="M41.2998 85.7345C40.7268 84.508 39.9926 83.559 38.5423 83.4516C38.5423 82.6279 38.5423 81.8669 38.5423 81.079H33.1616C33.1616 81.8758 33.1616 82.6368 33.1616 83.4516C32.1409 83.5769 31.3262 83.9798 30.8786 84.8661C29.9385 86.6925 28.9895 88.51 28.139 90.3632C27.3063 92.1627 28.5508 94.0966 30.5383 94.1145C34.1195 94.1503 37.6917 94.1503 41.2729 94.1145C43.3142 94.0876 44.4959 91.9837 43.5648 90.1752C42.7859 88.7069 42.007 87.2386 41.2998 85.7345Z" fill="#00A787"/>
<path d="M21.7825 85.6988C21.2096 84.4722 20.4665 83.5322 19.0698 83.4247C19.0698 82.5831 19.0698 81.8042 19.0698 81.0522H13.6533C13.6533 81.858 13.6533 82.619 13.6533 83.4158C12.6416 83.568 11.7911 83.9709 11.3166 84.9199C10.4213 86.7015 9.49914 88.4652 8.64862 90.2737C7.78019 92.118 8.99778 94.0787 11.0301 94.0966C14.6113 94.1324 18.1835 94.1414 21.7646 94.0966C23.8059 94.0697 24.9877 91.9658 24.0476 90.1484C23.2598 88.6711 22.4809 87.2029 21.7825 85.6988Z" fill="#00A787"/>
<path d="M8.22786 82.0907C7.1177 81.6341 6.49099 80.8463 6.44623 79.6108C6.41937 78.9483 6.33879 78.2947 6.27612 77.6322C17.0644 77.6322 27.8526 77.6322 38.6409 77.6232C38.8289 77.6232 39.0259 77.6322 39.2139 77.6232C40.3599 77.5606 41.2731 76.6474 41.3715 75.5104C41.4432 74.7315 41.5596 73.9525 41.658 73.1736L41.6401 73.1378C43.1174 73.1557 44.5946 73.1647 46.0718 73.1826C45.848 75.5104 45.6421 77.8381 45.3824 80.1569C45.2661 81.1596 44.5319 81.7058 43.6724 82.0907C31.8546 82.0907 20.0457 82.0907 8.22786 82.0907Z" fill="#00A787"/>
<path d="M2.15771 29.752C2.47107 27.29 2.77547 24.8279 3.09777 22.3659C3.45589 19.5726 3.84086 16.7793 4.19898 13.986C4.38699 12.5087 4.54814 11.0404 5.68516 9.89447C6.7237 8.84698 7.93234 8.30086 9.40062 8.31876C9.97361 8.32772 10.5466 8.32772 11.1285 8.33667C11.1196 12.5087 11.1196 16.6897 11.1106 20.8618C11.1106 22.1868 11.4956 22.5718 12.8206 22.5718C21.5766 22.5718 30.3415 22.5718 39.0974 22.5718C40.4135 22.5718 40.8074 22.1779 40.8074 20.8528C40.8164 16.9673 40.8253 13.0817 40.8253 9.1872C41.3715 9.73332 42.034 10.1989 42.4548 10.8256C43.1531 11.8641 43.1262 13.1265 43.2784 14.3351C43.5291 16.4122 43.8335 18.4803 44.1111 20.5484C44.3349 22.2226 44.5856 23.8879 44.7915 25.5621C44.9616 26.9498 45.0959 28.3464 45.2481 29.7431C45.078 29.752 44.9168 29.761 44.7467 29.761C30.7444 29.761 16.742 29.761 2.73965 29.761C2.54269 29.7789 2.35468 29.761 2.15771 29.752Z" fill="#9AE59C"/>
<path d="M40.8253 9.20507C40.8164 13.0906 40.8074 16.9762 40.8074 20.8707C40.8074 22.1957 40.4135 22.5897 39.0974 22.5897C30.3414 22.5897 21.5765 22.5897 12.8206 22.5897C11.4956 22.5897 11.1106 22.2047 11.1106 20.8797C11.1106 16.7076 11.1195 12.5266 11.1285 8.35454C19.2667 8.34559 27.3959 8.34559 35.5341 8.33664C37.2889 8.33664 39.0347 8.34559 40.7895 8.35454C40.7984 8.63208 40.8074 8.91857 40.8253 9.20507Z" fill="#00A787"/>
<path d="M2.15765 29.752C2.34566 29.761 2.54263 29.7789 2.73064 29.7789C16.733 29.7789 30.7353 29.7789 44.7377 29.7789C44.9078 29.7789 45.069 29.7699 45.2391 29.761C45.8658 29.7699 46.4925 29.7789 47.1192 29.7878C47.2177 30.1997 47.3788 30.6025 47.3967 31.0144C47.4325 32.035 47.4415 33.0556 47.3967 34.0763C47.3788 34.5508 47.2266 35.0253 47.1281 35.4998C46.4925 35.4908 45.8568 35.4729 45.2211 35.464C45.0063 35.455 44.7914 35.4282 44.5765 35.4282C30.7085 35.4282 16.8315 35.4282 2.96341 35.4282C2.84703 35.4282 2.72169 35.4371 2.6053 35.4461C2.36357 35.4729 2.12184 35.4908 1.88011 35.5177C1.59362 35.5266 1.30712 35.5535 1.02063 35.5445C0.34021 35.5266 0.00895346 35.2133 0.00895346 34.5418C5.46309e-07 33.2526 0.00895291 31.9634 0 30.6742C0 30.0475 0.304398 29.761 0.931102 29.7699C1.35189 29.7878 1.75477 29.761 2.15765 29.752Z" fill="#0BB393"/>
<path d="M45.23 35.4729C45.8657 35.4819 46.5013 35.4998 47.137 35.5088C48.0054 35.5267 48.8649 35.5446 49.7333 35.5625C49.4737 38.3558 49.223 41.1401 48.9544 43.9334C48.7396 46.1717 48.5068 48.4099 48.283 50.6571C47.9606 53.8712 47.6383 57.0942 47.316 60.3083C47.0564 62.9315 46.8057 65.5547 46.555 68.1779C46.3939 69.8432 46.2327 71.5174 46.0716 73.1826C44.5944 73.1647 43.1171 73.1557 41.6399 73.1378C41.8279 71.213 42.0159 69.297 42.2039 67.3722C42.3651 65.689 42.4994 63.9969 42.6605 62.3138C42.8306 60.6038 43.0276 58.9027 43.1977 57.1927C43.3141 56.0288 43.4036 54.8649 43.52 53.7011C43.6991 51.9194 43.896 50.1468 44.0661 48.3651C44.2273 46.682 44.3616 44.9899 44.5317 43.3067C44.7018 41.5967 44.8988 39.8957 45.0599 38.1857C45.1494 37.2904 45.1763 36.3772 45.23 35.4729Z" fill="#6ED6A2"/>
<path d="M5.85522 73.1915C5.97161 73.1826 6.09695 73.1646 6.21334 73.1646C18.0312 73.1646 29.8401 73.1646 41.6579 73.1646C41.5594 73.9436 41.4341 74.7225 41.3714 75.5014C41.2729 76.6384 40.3597 77.5516 39.2138 77.6142C39.0258 77.6232 38.8288 77.6142 38.6408 77.6142C27.8525 77.6142 17.0643 77.6142 6.27601 77.6232C6.13277 76.146 5.99847 74.6687 5.85522 73.1915Z" fill="#0CB494"/>
<path d="M47.1279 29.7968C46.5012 29.7878 45.8745 29.7789 45.2478 29.7699C45.0956 28.3733 44.9613 26.9766 44.7912 25.5889C44.5853 23.9147 44.3346 22.2495 44.1108 20.5753C43.8332 18.5072 43.5288 16.4301 43.2781 14.362C43.1349 13.1533 43.1528 11.891 42.4545 10.8524C42.0337 10.2257 41.3801 9.75122 40.825 9.21404C40.8071 8.92755 40.7982 8.64106 40.7803 8.35457C41.8278 8.39933 42.9111 8.2919 43.9138 8.52467C45.973 8.99918 47.298 10.7271 47.5666 12.84C48.05 16.6987 48.5962 20.5574 49.1065 24.4161C49.3393 26.1888 49.5452 27.9704 49.76 29.752C48.8827 29.752 48.0053 29.7699 47.1279 29.7968Z" fill="#70D6A2"/>
<path d="M47.1282 29.7967C48.0056 29.7788 48.8829 29.7609 49.7603 29.7341C50.1901 29.743 50.6198 29.7609 51.0495 29.7699C51.6046 29.7699 51.8911 30.0295 51.8911 30.6025C51.8911 31.9365 51.8822 33.2794 51.8911 34.6134C51.9001 35.2222 51.5599 35.4729 51.0137 35.5177C50.584 35.5535 50.1543 35.5445 49.7245 35.5624C48.8561 35.5445 47.9966 35.5266 47.1282 35.5087C47.2177 35.0342 47.3789 34.5597 47.3968 34.0762C47.4415 33.0556 47.4326 32.035 47.3968 31.0143C47.3878 30.6025 47.2267 30.1996 47.1282 29.7967Z" fill="#00A887"/>
<path d="M1.88916 35.5267C2.13089 35.4998 2.37262 35.4819 2.61435 35.455C2.46215 35.4908 2.3189 35.5267 2.1667 35.5714C2.07717 35.5535 1.97869 35.5356 1.88916 35.5267Z" fill="#6ED6A2"/>
<path d="M44.5854 35.4371C30.7173 35.4371 16.8403 35.4371 2.97227 35.4371C2.85588 35.4371 2.73054 35.4461 2.61415 35.455C2.46195 35.4908 2.3187 35.5266 2.1665 35.5714C2.22022 36.1891 2.26498 36.8069 2.32766 37.4336C2.53357 39.6002 2.73054 41.7668 2.94541 43.9334C3.21399 46.673 3.50049 49.4036 3.76907 52.1432C3.98394 54.3098 4.18091 56.4764 4.39578 58.643C4.66437 61.3558 4.94191 64.0685 5.21049 66.7812C5.42536 68.921 5.64919 71.0607 5.86406 73.2005C5.98044 73.1915 6.10578 73.1736 6.22217 73.1736C18.04 73.1736 29.8489 73.1736 41.6667 73.1736L41.6488 73.1378C41.8368 71.2129 42.0249 69.297 42.2129 67.3721C42.374 65.689 42.5083 63.9969 42.6695 62.3137C42.8396 60.6037 43.0365 58.9027 43.2066 57.1927C43.323 56.0288 43.4126 54.8649 43.5289 53.701C43.708 51.9194 43.905 50.1467 44.0751 48.3651C44.2362 46.682 44.3705 44.9899 44.5406 43.3067C44.7107 41.5967 44.9077 39.8957 45.0689 38.1856C45.1494 37.2814 45.1852 36.3772 45.23 35.4729C45.0151 35.464 44.8003 35.4371 44.5854 35.4371Z" fill="#9BE59D"/>
<path d="M8.02173 47.4788C8.22765 46.682 8.83644 46.2075 9.40048 45.6971C12.4534 42.9486 15.9809 41.1043 20.0276 40.3702C27.0914 39.0899 33.4211 40.7372 38.9361 45.3748C39.3301 45.7061 39.715 46.0642 40.0821 46.4313C40.6461 47.0043 40.8431 47.6847 40.5566 48.4457C40.2791 49.1888 39.715 49.6006 38.9182 49.6633C38.3184 49.717 37.8349 49.4574 37.3962 49.0634C36.7874 48.5173 36.1876 47.9533 35.543 47.4609C32.8661 45.4196 29.8489 44.202 26.5005 43.826C22.0688 43.3336 17.9774 44.2826 14.2261 46.6999C13.1697 47.3803 12.2117 48.186 11.3074 49.0545C10.6091 49.7259 9.7765 49.8602 9.00655 49.4395C8.58576 49.2156 8.29927 48.8754 8.13812 48.4188C8.11126 48.3293 8.06649 48.2487 8.02173 48.1681C8.02173 47.9443 8.02173 47.7115 8.02173 47.4788Z" fill="white"/>
<path d="M24.6294 46.1448C28.7298 46.2075 32.5079 47.7295 35.6504 50.7735C36.1876 51.2927 36.4203 51.9194 36.2234 52.6536C36.0443 53.3609 35.5788 53.8175 34.8804 54.0055C34.2896 54.1577 33.7345 54.0592 33.26 53.6652C32.7407 53.2445 32.2572 52.7789 31.729 52.376C29.9205 50.9883 27.8703 50.1915 25.6142 49.9856C22.0599 49.6633 18.8995 50.6571 16.1868 53.0206C15.757 53.3967 15.39 53.8443 14.7991 54.0055C14.0202 54.2114 13.1875 53.9159 12.7309 53.2355C12.2923 52.5819 12.3012 51.6688 12.8205 51.06C13.5725 50.1826 14.4857 49.4753 15.4437 48.8396C18.1385 47.0491 21.1198 46.1717 24.6294 46.1448Z" fill="white"/>
<path d="M24.2534 52.3492C27.0467 52.385 29.3834 53.334 31.3262 55.2141C32.0782 55.9483 32.1051 57.0853 31.4068 57.8552C30.7443 58.5894 29.6072 58.6789 28.8194 57.9895C28.0852 57.3539 27.3242 56.754 26.3842 56.4586C24.1191 55.7334 22.0778 56.1363 20.2514 57.6672C19.965 57.9089 19.6606 58.1686 19.3203 58.3208C18.4967 58.6699 17.5656 58.3387 17.0911 57.5956C16.6076 56.8525 16.715 55.8677 17.3686 55.232C19.1502 53.5041 21.2721 52.5193 23.7699 52.385C23.9669 52.3671 24.1549 52.3581 24.2534 52.3492Z" fill="white"/>
<path d="M27.5571 62.26C27.5571 64.0327 26.1336 65.4651 24.3609 65.4651C22.5883 65.4741 21.1648 64.0506 21.1558 62.269C21.1468 60.4873 22.6062 59.028 24.3699 59.0459C26.1515 59.0728 27.5571 60.4873 27.5571 62.26Z" fill="white"/>
<circle cx="36.0062" cy="3.00518" r="2.60059" transform="rotate(9.79596 36.0062 3.00518)" fill="#00A787"/>
<rect x="33.4436" y="2.56273" width="5.20118" height="9.98626" transform="rotate(9.79596 33.4436 2.56273)" fill="#00A787"/>
<circle cx="15.6098" cy="3.00526" r="2.60059" transform="rotate(-9.8 15.6098 3.00526)" fill="#00A787"/>
<rect x="13.0469" y="3.44794" width="5.20118" height="9.98626" transform="rotate(-9.8 13.0469 3.44794)" fill="#00A787"/>
<circle cx="31.9526" cy="15.4995" r="2.60059" fill="white"/>
<circle cx="20.094" cy="15.4995" r="2.60059" fill="white"/>
<path d="M68.2351 45C67.1604 45 66.2938 44.7573 65.6351 44.272C65.0111 43.7867 64.6991 43.2147 64.6991 42.556V9.484C64.6991 8.652 65.0631 8.028 65.7911 7.612C66.5538 7.196 67.3684 6.988 68.2351 6.988H78.8951C80.6284 6.988 82.2924 7.248 83.8871 7.768C85.4818 8.288 86.7818 9.224 87.7871 10.576C88.7924 11.8933 89.2951 13.7827 89.2951 16.244C89.2951 18.3587 88.8964 20.1093 88.0991 21.496C87.3364 22.848 86.2618 23.8187 84.8751 24.408C85.9498 24.7893 86.8858 25.3093 87.6831 25.968C88.4804 26.592 89.1044 27.4413 89.5551 28.516C90.0058 29.5907 90.2311 30.9947 90.2311 32.728V33.82C90.2311 36.5587 89.7631 38.7427 88.8271 40.372C87.9258 42.0013 86.6778 43.18 85.0831 43.908C83.5231 44.636 81.7551 45 79.7791 45H68.2351ZM72.7591 37.928H77.9591C79.2764 37.928 80.2991 37.5467 81.0271 36.784C81.7551 36.0213 82.1191 34.808 82.1191 33.144V32.312C82.1191 30.544 81.7551 29.3133 81.0271 28.62C80.2991 27.892 79.2764 27.528 77.9591 27.528H72.7591V37.928ZM72.7591 21.288H78.2191C79.2244 21.288 79.9698 20.9067 80.4551 20.144C80.9404 19.3813 81.1831 18.5667 81.1831 17.7C81.1831 17.076 81.0618 16.4867 80.8191 15.932C80.6111 15.3773 80.2818 14.9267 79.8311 14.58C79.4151 14.2333 78.8778 14.06 78.2191 14.06H72.7591V21.288ZM97.9929 15.464C96.8143 15.464 95.8089 15.0827 94.9769 14.32C94.1449 13.5573 93.7289 12.6907 93.7289 11.72C93.7289 10.7147 94.1449 9.848 94.9769 9.12C95.8089 8.392 96.8143 8.028 97.9929 8.028C99.1716 8.028 100.16 8.392 100.957 9.12C101.789 9.848 102.205 10.7147 102.205 11.72C102.205 12.6907 101.789 13.5573 100.957 14.32C100.16 15.0827 99.1716 15.464 97.9929 15.464ZM97.9929 45C96.8143 45 95.8436 44.74 95.0809 44.22C94.3529 43.7 93.9889 43.128 93.9889 42.504V22.692C93.9889 21.964 94.3529 21.3747 95.0809 20.924C95.8436 20.4733 96.8143 20.248 97.9929 20.248C99.1023 20.248 100.056 20.4733 100.853 20.924C101.65 21.3747 102.049 21.964 102.049 22.692V42.504C102.049 43.128 101.65 43.7 100.853 44.22C100.056 44.74 99.1023 45 97.9929 45ZM110.688 45C109.51 45 108.539 44.74 107.776 44.22C107.048 43.7 106.684 43.128 106.684 42.504V22.692C106.684 21.964 107.048 21.3747 107.776 20.924C108.539 20.4733 109.51 20.248 110.688 20.248C111.659 20.248 112.491 20.4733 113.184 20.924C113.878 21.3747 114.224 21.964 114.224 22.692V23.888C114.71 22.8827 115.559 21.9813 116.772 21.184C117.986 20.352 119.459 19.936 121.192 19.936C122.787 19.936 124.243 20.4387 125.56 21.444C126.912 22.4147 127.987 23.732 128.784 25.396C129.616 27.0253 130.032 28.8453 130.032 30.856V42.504C130.032 43.336 129.599 43.96 128.732 44.376C127.9 44.792 126.982 45 125.976 45C125.04 45 124.139 44.792 123.272 44.376C122.406 43.96 121.972 43.336 121.972 42.504V30.856C121.972 30.1973 121.799 29.5733 121.452 28.984C121.14 28.3947 120.69 27.9093 120.1 27.528C119.546 27.1467 118.922 26.956 118.228 26.956C117.674 26.956 117.119 27.112 116.564 27.424C116.044 27.736 115.611 28.1867 115.264 28.776C114.918 29.3307 114.744 30.024 114.744 30.856V42.504C114.744 43.128 114.346 43.7 113.548 44.22C112.751 44.74 111.798 45 110.688 45ZM74.3191 93C73.8684 93 73.4698 92.896 73.1231 92.688C72.7764 92.4453 72.6031 92.0987 72.6031 91.648V58.212H63.8671C63.4511 58.212 63.1218 58.056 62.8791 57.744C62.6364 57.3973 62.5151 57.016 62.5151 56.6C62.5151 56.184 62.6364 55.82 62.8791 55.508C63.1218 55.1613 63.4511 54.988 63.8671 54.988H84.7191C85.1698 54.988 85.4991 55.1613 85.7071 55.508C85.9151 55.82 86.0191 56.1667 86.0191 56.548C86.0191 56.964 85.9151 57.3453 85.7071 57.692C85.4991 58.0387 85.1698 58.212 84.7191 58.212H76.0351V91.648C76.0351 92.0987 75.8444 92.4453 75.4631 92.688C75.1164 92.896 74.7351 93 74.3191 93ZM86.7869 93C86.3363 93 85.9376 92.8613 85.5909 92.584C85.2789 92.3067 85.1229 91.9947 85.1229 91.648V69.704C85.1229 69.288 85.2789 68.976 85.5909 68.768C85.9376 68.5253 86.3363 68.404 86.7869 68.404C87.2376 68.404 87.6189 68.5253 87.9309 68.768C88.2429 68.976 88.3989 69.288 88.3989 69.704V72.252C88.7803 71.524 89.3003 70.848 89.9589 70.224C90.6176 69.6 91.3976 69.0973 92.2989 68.716C93.2003 68.3 94.2229 68.092 95.3669 68.092H97.1869C97.5683 68.092 97.8803 68.248 98.1229 68.56C98.4003 68.872 98.5389 69.236 98.5389 69.652C98.5389 70.1027 98.4003 70.484 98.1229 70.796C97.8803 71.0733 97.5683 71.212 97.1869 71.212H95.3669C94.2229 71.212 93.1136 71.524 92.0389 72.148C90.9989 72.772 90.1496 73.6387 89.4909 74.748C88.8323 75.8573 88.5029 77.2093 88.5029 78.804V91.648C88.5029 91.9947 88.3296 92.3067 87.9829 92.584C87.6709 92.8613 87.2723 93 86.7869 93ZM106.579 93.364C104.603 93.364 102.922 92.8093 101.535 91.7C100.183 90.556 99.507 88.8227 99.507 86.5C99.507 84.5933 100.01 83.1373 101.015 82.132C102.055 81.092 103.476 80.3813 105.279 80C107.116 79.584 109.231 79.376 111.623 79.376H114.275V78.18C114.275 77.036 114.067 75.9267 113.651 74.852C113.27 73.7427 112.628 72.8413 111.727 72.148C110.86 71.42 109.664 71.056 108.139 71.056C106.995 71.056 106.059 71.1773 105.331 71.42C104.603 71.6627 104.031 71.9227 103.615 72.2C103.199 72.4427 102.852 72.564 102.575 72.564C102.159 72.564 101.812 72.356 101.535 71.94C101.292 71.524 101.171 71.1427 101.171 70.796C101.171 70.3107 101.535 69.8773 102.263 69.496C102.991 69.08 103.892 68.7507 104.967 68.508C106.076 68.2307 107.168 68.092 108.243 68.092C110.566 68.092 112.403 68.5773 113.755 69.548C115.142 70.484 116.13 71.7147 116.719 73.24C117.343 74.7653 117.655 76.3947 117.655 78.128V91.648C117.655 92.0293 117.499 92.3587 117.187 92.636C116.91 92.8787 116.511 93 115.991 93C115.575 93 115.194 92.8787 114.847 92.636C114.535 92.3587 114.379 92.0293 114.379 91.648V89.36C113.512 90.4 112.438 91.336 111.155 92.168C109.872 92.9653 108.347 93.364 106.579 93.364ZM107.411 90.504C108.555 90.504 109.647 90.2093 110.687 89.62C111.727 89.0307 112.576 88.32 113.235 87.488C113.928 86.6213 114.275 85.8067 114.275 85.044V81.716H112.091C110.531 81.716 109.04 81.82 107.619 82.028C106.232 82.2013 105.088 82.6 104.187 83.224C103.32 83.848 102.887 84.836 102.887 86.188C102.887 87.6787 103.32 88.7707 104.187 89.464C105.088 90.1573 106.163 90.504 107.411 90.504ZM133.176 93.364C130.888 93.364 128.998 92.9307 127.508 92.064C126.017 91.1973 124.908 90.0187 124.18 88.528C123.452 87.0373 123.088 85.356 123.088 83.484V77.972C123.088 76.1 123.434 74.4187 124.128 72.928C124.856 71.4373 125.965 70.2587 127.456 69.392C128.981 68.5253 130.888 68.092 133.176 68.092C134.632 68.092 135.897 68.2827 136.972 68.664C138.081 69.0107 138.93 69.444 139.52 69.964C140.144 70.484 140.456 70.9867 140.456 71.472C140.456 71.7147 140.386 71.9747 140.248 72.252C140.144 72.4947 139.97 72.7027 139.728 72.876C139.52 73.0493 139.277 73.136 139 73.136C138.688 73.136 138.324 72.98 137.908 72.668C137.526 72.3213 136.989 71.992 136.296 71.68C135.602 71.368 134.614 71.212 133.332 71.212C131.078 71.212 129.362 71.8187 128.184 73.032C127.04 74.2107 126.468 75.8573 126.468 77.972V83.484C126.468 85.5987 127.04 87.2627 128.184 88.476C129.362 89.6547 131.096 90.244 133.384 90.244C134.701 90.244 135.724 90.088 136.452 89.776C137.18 89.4293 137.734 89.1 138.116 88.788C138.532 88.4413 138.913 88.268 139.26 88.268C139.572 88.268 139.832 88.3547 140.04 88.528C140.282 88.7013 140.456 88.9093 140.56 89.152C140.698 89.3947 140.768 89.6547 140.768 89.932C140.768 90.3827 140.456 90.8853 139.832 91.44C139.208 91.96 138.324 92.4107 137.18 92.792C136.07 93.1733 134.736 93.364 133.176 93.364ZM147.065 93C146.615 93 146.216 92.8613 145.869 92.584C145.557 92.3067 145.401 91.9947 145.401 91.648V54.624C145.401 54.208 145.557 53.896 145.869 53.688C146.216 53.4453 146.615 53.324 147.065 53.324C147.551 53.324 147.949 53.4453 148.261 53.688C148.608 53.896 148.781 54.208 148.781 54.624V79.896L161.469 68.612C161.747 68.404 162.007 68.3 162.249 68.3C162.527 68.3 162.787 68.3867 163.029 68.56C163.307 68.6987 163.532 68.8893 163.705 69.132C163.879 69.34 163.965 69.6 163.965 69.912C163.965 70.0853 163.931 70.2587 163.861 70.432C163.827 70.5707 163.74 70.7093 163.601 70.848L155.957 77.608L164.953 90.712C165.092 90.92 165.161 91.1627 165.161 91.44C165.161 91.6827 165.075 91.9427 164.901 92.22C164.728 92.4973 164.485 92.7227 164.173 92.896C163.896 93.0693 163.619 93.156 163.341 93.156C162.925 93.156 162.579 92.948 162.301 92.532L153.565 79.74L148.781 83.9V91.648C148.781 91.9947 148.608 92.3067 148.261 92.584C147.949 92.8613 147.551 93 147.065 93ZM178.7 93.364C176.516 93.364 174.575 92.948 172.876 92.116C171.212 91.284 169.895 90.14 168.924 88.684C167.988 87.1933 167.52 85.46 167.52 83.484V77.712C167.52 75.9787 167.971 74.384 168.872 72.928C169.774 71.4373 170.97 70.2587 172.46 69.392C173.986 68.5253 175.65 68.092 177.452 68.092C179.186 68.092 180.78 68.508 182.236 69.34C183.727 70.1373 184.923 71.2467 185.824 72.668C186.726 74.0893 187.176 75.736 187.176 77.608C187.176 78.9253 186.951 79.8787 186.5 80.468C186.05 81.0573 185.478 81.4213 184.784 81.56C184.126 81.664 183.415 81.716 182.652 81.716H170.9V83.64C170.9 85.72 171.646 87.3667 173.136 88.58C174.627 89.7933 176.516 90.4 178.804 90.4C180.191 90.4 181.266 90.2267 182.028 89.88C182.791 89.5333 183.38 89.1867 183.796 88.84C184.247 88.4933 184.663 88.32 185.044 88.32C185.322 88.32 185.564 88.424 185.772 88.632C186.015 88.8053 186.188 89.0133 186.292 89.256C186.431 89.4987 186.5 89.724 186.5 89.932C186.5 90.3133 186.188 90.7813 185.564 91.336C184.94 91.8907 184.039 92.376 182.86 92.792C181.682 93.1733 180.295 93.364 178.7 93.364ZM170.9 79.22H181.3C182.34 79.22 183.034 79.116 183.38 78.908C183.727 78.6653 183.9 78.18 183.9 77.452C183.9 76.3427 183.623 75.3027 183.068 74.332C182.514 73.3267 181.751 72.512 180.78 71.888C179.81 71.2293 178.683 70.9 177.4 70.9C176.222 70.9 175.13 71.1947 174.124 71.784C173.154 72.3733 172.374 73.136 171.784 74.072C171.195 75.008 170.9 76.0653 170.9 77.244V79.22ZM193.885 93C193.434 93 193.035 92.8613 192.689 92.584C192.377 92.3067 192.221 91.9947 192.221 91.648V69.704C192.221 69.288 192.377 68.976 192.689 68.768C193.035 68.5253 193.434 68.404 193.885 68.404C194.335 68.404 194.717 68.5253 195.029 68.768C195.341 68.976 195.497 69.288 195.497 69.704V72.252C195.878 71.524 196.398 70.848 197.057 70.224C197.715 69.6 198.495 69.0973 199.397 68.716C200.298 68.3 201.321 68.092 202.465 68.092H204.285C204.666 68.092 204.978 68.248 205.221 68.56C205.498 68.872 205.637 69.236 205.637 69.652C205.637 70.1027 205.498 70.484 205.221 70.796C204.978 71.0733 204.666 71.212 204.285 71.212H202.465C201.321 71.212 200.211 71.524 199.137 72.148C198.097 72.772 197.247 73.6387 196.589 74.748C195.93 75.8573 195.601 77.2093 195.601 78.804V91.648C195.601 91.9947 195.427 92.3067 195.081 92.584C194.769 92.8613 194.37 93 193.885 93Z" fill="#0CB494"/>
</svg>
