<svg width="109" height="48" viewBox="0 0 109 48" fill="none" xmlns="http://www.w3.org/2000/svg">
<g clip-path="url(#clip0_599_4281)">
<path d="M21 43.6C20.7 43 20.3 42.5 19.6 42.4C19.6 42 19.6 41.6 19.6 41.2H16.9C16.9 41.6 16.9 42 16.9 42.4C16.4 42.5 16 42.7 15.7 43.1C15.2 44 14.7 45 14.3 45.9C13.9 46.8 14.5 47.7999 15.5 47.7999C17.3 47.7999 19.1 47.7999 21 47.7999C22 47.7999 22.6 46.6999 22.2 45.7999C21.7 45.0999 21.3 44.3 21 43.6Z" fill="#3DA35D"/>
<path d="M11.1 43.4999C10.8 42.8999 10.4 42.3999 9.69997 42.2999C9.69997 41.8999 9.69997 41.4999 9.69997 41.0999H6.89998C6.89998 41.4999 6.89998 41.8999 6.89998 42.2999C6.39998 42.3999 5.99997 42.5999 5.69997 43.0999C5.19997 43.9999 4.79998 44.8999 4.29998 45.7999C3.89998 46.6999 4.49997 47.6999 5.49997 47.6999C7.29997 47.6999 9.09997 47.6999 11 47.6999C12 47.6999 12.6 46.5999 12.2 45.6999C11.8 44.9999 11.4 44.2999 11.1 43.4999Z" fill="#3DA35D"/>
<path d="M4.19995 41.6999C3.59995 41.4999 3.29995 41.0999 3.29995 40.3999C3.29995 40.0999 3.19995 39.6999 3.19995 39.3999C8.69995 39.3999 14.2 39.3999 19.6 39.3999C19.7 39.3999 19.7999 39.3999 19.9 39.3999C20.5 39.3999 20.9 38.8999 21 38.2999C21 37.8999 21.1 37.4999 21.1 37.0999C21.9 37.0999 22.6 37.0999 23.4 37.0999C23.2999 38.2999 23.2 39.4999 23 40.5999C22.9 41.0999 22.6 41.3999 22.1 41.5999C16.2 41.6999 10.2 41.6999 4.19995 41.6999Z" fill="#3DA35D"/>
<path d="M1.09998 15.1C1.29998 13.8 1.39998 12.6 1.59998 11.3C1.79998 9.89995 1.99998 8.49995 2.09998 7.09995C2.19998 6.29995 2.29998 5.59995 2.89998 4.99995C3.39998 4.49995 3.99998 4.19995 4.79998 4.19995C5.09998 4.19995 5.39998 4.19995 5.69998 4.19995C5.69998 6.29995 5.69998 8.39995 5.69998 10.6C5.69998 11.3 5.89998 11.5 6.59998 11.5C11 11.5 15.5 11.5 19.9 11.5C20.6 11.5 20.8 11.3 20.8 10.6C20.8 8.59995 20.8 6.69995 20.8 4.69995C21 4.89995 21.4 5.19995 21.6 5.49995C22 5.99995 21.9 6.69995 22 7.29995C22.1 8.39995 22.3 9.39995 22.4 10.5C22.5 11.4 22.6 12.2 22.7 13C22.8 13.7 22.9 14.4 22.9 15.1C22.8 15.1 22.7 15.1 22.6 15.1C15.5 15.1 8.39998 15.1 1.29998 15.1C1.29998 15.1 1.19998 15.1 1.09998 15.1Z" fill="#9AE59C"/>
<path d="M20.7 4.69995C20.7 6.69995 20.7 8.59995 20.7 10.6C20.7 11.3 20.5 11.5 19.8 11.5C15.4 11.5 10.9 11.5 6.49998 11.5C5.79998 11.5 5.59998 11.3 5.59998 10.6C5.59998 8.49995 5.59998 6.39995 5.59998 4.19995C9.69998 4.19995 13.9 4.19995 18 4.19995C18.9 4.19995 19.8 4.19995 20.7 4.19995C20.7 4.39995 20.7 4.49995 20.7 4.69995Z" fill="#3DA35D"/>
<path d="M1.09998 15.1C1.19998 15.1 1.29998 15.1 1.39998 15.1C8.49998 15.1 15.6 15.1 22.7 15.1C22.8 15.1 22.9 15.1 23 15.1C23.3 15.1 23.6 15.1 24 15.1C24 15.3 24.1 15.5 24.1 15.7C24.1 16.2 24.1 16.7 24.1 17.3C24.1 17.5 24 17.8 24 18C23.7 18 23.4 18 23 18C22.9 18 22.8 18 22.7 18C15.7 18 8.59998 18 1.59998 18C1.49998 18 1.49998 18 1.39998 18C1.29998 18 1.19998 18 0.999976 18C0.899976 18 0.699976 18 0.599976 18C0.299976 18 0.0999756 17.8 0.0999756 17.5C0.0999756 16.8 0.0999756 16.2 0.0999756 15.5C0.0999756 15.2 0.299976 15 0.599976 15C0.699976 15.1 0.899976 15.1 1.09998 15.1Z" fill="#4DAA6A"/>
<path d="M23 18C23.3 18 23.6 18 24 18C24.4 18 24.8999 18 25.2999 18C25.1999 19.4 24.9999 20.8 24.9 22.3C24.8 23.4 24.7 24.6 24.6 25.7C24.4 27.3 24.3 29 24.1 30.6C24 31.9 23.8 33.3 23.7 34.6C23.6 35.4 23.5 36.3 23.5 37.1C22.7 37.1 22 37.1 21.2 37.1C21.3 36.1 21.4 35.1 21.5 34.2C21.6 33.3 21.7 32.5 21.7 31.6C21.8 30.7 21.9 29.9 22 29C22.1 28.4 22.1 27.8 22.2 27.2C22.3 26.3 22.4 25.4 22.5 24.5C22.6 23.6 22.7 22.8 22.7 21.9C22.8 21 22.9 20.2 23 19.3C22.9 18.9 23 18.5 23 18Z" fill="#6ED6A2"/>
<path d="M3 37.2C3.1 37.2 3.1 37.2 3.2 37.2C9.2 37.2 15.2 37.2 21.2 37.2C21.1 37.6 21.1 38 21.1 38.4C21.1 39 20.6 39.4 20 39.5C19.9 39.5 19.8 39.5 19.7 39.5C14.2 39.5 8.7 39.5 3.3 39.5C3.1 38.7 3 37.9 3 37.2Z" fill="#4EAB6C"/>
<path d="M23.9 15.1C23.6 15.1 23.3 15.1 22.9 15.1C22.8 14.4 22.8 13.7 22.7 13C22.6 12.1 22.5 11.3 22.4 10.5C22.3 9.40005 22.1 8.40005 22 7.30005C21.9 6.70005 21.9 6.00005 21.6 5.50005C21.4 5.20005 21 4.90005 20.7 4.70005C20.7 4.60005 20.7 4.40005 20.7 4.30005C21.2 4.30005 21.7999 4.30005 22.2999 4.40005C23.2999 4.60005 24 5.50005 24.2 6.60005C24.4 8.60005 24.7 10.5 25 12.5C25.1 13.4 25.1999 14.3 25.2999 15.2C24.7999 15.1 24.4 15.1 23.9 15.1Z" fill="#6FD6A3"/>
<path d="M23.9 15.0999C24.3 15.0999 24.8 15.0999 25.2 15.0999C25.4 15.0999 25.6 15.0999 25.9 15.0999C26.2 15.0999 26.3 15.1999 26.3 15.4999C26.3 16.1999 26.3 16.8999 26.3 17.4999C26.3 17.7999 26.1 17.8999 25.9 17.9999C25.7 17.9999 25.5 17.9999 25.2 17.9999C24.8 17.9999 24.3 17.9999 23.9 17.9999C23.9 17.7999 24 17.4999 24 17.2999C24 16.7999 24 16.2999 24 15.6999C24.1 15.4999 24 15.2999 23.9 15.0999Z" fill="#3DA35D"/>
<path d="M1 18C1.1 18 1.2 18 1.4 18C1.3 18 1.2 18 1.2 18.1C1.1 18.1 1 18 1 18Z" fill="#6ED6A2"/>
<path d="M22.7 18C15.7 18 8.59995 18 1.59995 18C1.49995 18 1.49995 18 1.39995 18C1.29995 18 1.19995 18 1.19995 18.1C1.19995 18.4 1.29995 18.7 1.29995 19C1.39995 20.1 1.49995 21.2 1.59995 22.3C1.69995 23.7 1.89995 25.1 1.99995 26.5C2.09995 27.6 2.19995 28.7 2.29995 29.8C2.39995 31.2 2.59995 32.6 2.69995 33.9C2.79995 35 2.89995 36.1 2.99995 37.2C3.09995 37.2 3.09995 37.2 3.19995 37.2C9.19995 37.2 15.2 37.2 21.2 37.2C21.3 36.2 21.4 35.2 21.5 34.3C21.6 33.4 21.7 32.6 21.7 31.7C21.8 30.8 21.9 30 22 29.1C22.1 28.5 22.1 27.9 22.2 27.3C22.3 26.4 22.4 25.5 22.5 24.6C22.6 23.7 22.7 22.9 22.7 22C22.8 21.1 22.9 20.3 23 19.4C23 18.9 23.1 18.5 23.1 18C22.9 18 22.8 18 22.7 18Z" fill="#9BE59D"/>
<path d="M4.09998 24.0999C4.19998 23.6999 4.49998 23.4999 4.79998 23.1999C6.39998 21.7999 8.09998 20.8999 10.2 20.4999C13.8 19.7999 17 20.6999 19.8 22.9999C20 23.1999 20.2 23.3999 20.4 23.4999C20.7 23.7999 20.8 24.0999 20.6 24.4999C20.5 24.8999 20.2 25.0999 19.8 25.0999C19.5 25.0999 19.2 24.9999 19 24.7999C18.7 24.4999 18.4 24.1999 18.1 23.9999C16.7 22.9999 15.2 22.2999 13.5 22.1999C11.2 21.8999 9.19998 22.3999 7.29998 23.6999C6.79998 23.9999 6.29998 24.4999 5.79998 24.8999C5.39998 25.1999 4.99998 25.2999 4.59998 25.0999C4.39998 24.9999 4.19998 24.7999 4.19998 24.5999C4.19998 24.5999 4.19998 24.4999 4.09998 24.4999C4.09998 24.3999 4.09998 24.1999 4.09998 24.0999Z" fill="white"/>
<path d="M12.5 23.3999C14.6 23.3999 16.5 24.1999 18.1 25.7999C18.4 26.0999 18.5 26.3999 18.4 26.7999C18.3 27.1999 18.1 27.3999 17.7 27.4999C17.4 27.5999 17.1 27.4999 16.9 27.2999C16.6 27.0999 16.4 26.7999 16.1 26.5999C15.2 25.8999 14.1 25.4999 13 25.3999C11.2 25.1999 9.6 25.6999 8.2 26.8999C8 27.0999 7.8 27.2999 7.5 27.3999C7.1 27.4999 6.7 27.3999 6.4 26.9999C6.2 26.6999 6.2 26.1999 6.4 25.8999C6.8 25.4999 7.2 25.0999 7.7 24.7999C9.2 23.8999 10.7 23.4999 12.5 23.3999Z" fill="white"/>
<path d="M12.3001 26.5999C13.7001 26.5999 14.9001 27.0999 15.9001 28.0999C16.3001 28.4999 16.3001 29.0999 15.9001 29.3999C15.6001 29.7999 15.0001 29.7999 14.6001 29.4999C14.2001 29.1999 13.8001 28.8999 13.4001 28.6999C12.2001 28.2999 11.2001 28.4999 10.3001 29.2999C10.2001 29.3999 10.0001 29.5999 9.80006 29.5999C9.40006 29.7999 8.90006 29.5999 8.70006 29.1999C8.50006 28.7999 8.50006 28.2999 8.80006 27.9999C9.70006 27.0999 10.8001 26.5999 12.1001 26.5999C12.2001 26.5999 12.3001 26.5999 12.3001 26.5999Z" fill="white"/>
<path d="M14 31.6C14 32.5 13.3 33.2 12.4 33.2C11.5 33.2 10.8 32.5 10.8 31.6C10.8 30.7 11.5 30 12.4 30C13.3 30 14 30.7 14 31.6Z" fill="white"/>
<path d="M18.3 2.79995C19.018 2.79995 19.6 2.21792 19.6 1.49995C19.6 0.781981 19.018 0.199951 18.3 0.199951C17.582 0.199951 17 0.781981 17 1.49995C17 2.21792 17.582 2.79995 18.3 2.79995Z" fill="#3DA35D"/>
<path d="M16.9902 1.29477L16.1227 6.32031L18.6847 6.76257L19.5522 1.73703L16.9902 1.29477Z" fill="#3DA35D"/>
<path d="M7.89998 2.79995C8.61795 2.79995 9.19998 2.21792 9.19998 1.49995C9.19998 0.781981 8.61795 0.199951 7.89998 0.199951C7.18201 0.199951 6.59998 0.781981 6.59998 1.49995C6.59998 2.21792 7.18201 2.79995 7.89998 2.79995Z" fill="#3DA35D"/>
<path d="M9.15274 1.32603L6.5907 1.76855L7.45872 6.7941L10.0208 6.35158L9.15274 1.32603Z" fill="#3DA35D"/>
<path d="M16.2 9.19985C16.918 9.19985 17.5 8.61782 17.5 7.89985C17.5 7.18188 16.918 6.59985 16.2 6.59985C15.4821 6.59985 14.9 7.18188 14.9 7.89985C14.9 8.61782 15.4821 9.19985 16.2 9.19985Z" fill="white"/>
<path d="M10.2 9.19985C10.918 9.19985 11.5 8.61782 11.5 7.89985C11.5 7.18188 10.918 6.59985 10.2 6.59985C9.48205 6.59985 8.90002 7.18188 8.90002 7.89985C8.90002 8.61782 9.48205 9.19985 10.2 9.19985Z" fill="white"/>
<path d="M39.5 21.9C39 21.9 38.5 21.8 38.2 21.5C37.9 21.3 37.7 21 37.7 20.6V4.2C37.7 3.8 37.9 3.5 38.2 3.3C38.6 3.1 39 3 39.4 3H44.7C45.6 3 46.4 3.1 47.2 3.4C48 3.7 48.6 4.1 49.1 4.8C49.6 5.5 49.9 6.4 49.9 7.6C49.9 8.7 49.7 9.5 49.3 10.2C48.9 10.9 48.4 11.4 47.7 11.7C48.2 11.9 48.7 12.2 49.1 12.5C49.5 12.8 49.8 13.2 50 13.8C50.2 14.4 50.3 15 50.3 15.9V16.4C50.3 17.8 50.1 18.9 49.6 19.7C49.1 20.5 48.5 21.1 47.7 21.5C46.9 21.9 46 22 45 22H39.5V21.9ZM41.8 18.4H44.4C45.1 18.4 45.6 18.2 45.9 17.8C46.3 17.4 46.4 16.8 46.4 16V15.6C46.4 14.7 46.2 14.1 45.9 13.8C45.5 13.4 45 13.3 44.4 13.3H41.8V18.4ZM41.8 10.1H44.5C45 10.1 45.4 9.9 45.6 9.5C45.9 9.1 46 8.7 46 8.3C46 8 45.9 7.7 45.8 7.4C45.7 7.1 45.5 6.9 45.3 6.7C45.1 6.5 44.8 6.4 44.5 6.4H41.8V10.1ZM54.4 7.1C53.8 7.1 53.3 6.9 52.9 6.5C52.5 6.1 52.3 5.7 52.3 5.2C52.3 4.7 52.5 4.3 52.9 3.9C53.3 3.5 53.8 3.4 54.4 3.4C55 3.4 55.5 3.6 55.9 3.9C56.3 4.3 56.5 4.7 56.5 5.2C56.5 5.7 56.3 6.1 55.9 6.5C55.5 6.9 55 7.1 54.4 7.1ZM54.4 21.9C53.8 21.9 53.3 21.8 52.9 21.5C52.5 21.2 52.4 21 52.4 20.6V10.7C52.4 10.3 52.6 10 52.9 9.8C53.3 9.6 53.8 9.5 54.4 9.5C55 9.5 55.4 9.6 55.8 9.8C56.2 10 56.4 10.3 56.4 10.7V20.6C56.4 20.9 56.2 21.2 55.8 21.5C55.4 21.8 55 21.9 54.4 21.9ZM60.8 21.9C60.2 21.9 59.7 21.8 59.3 21.5C58.9 21.2 58.8 21 58.8 20.6V10.7C58.8 10.3 59 10 59.3 9.8C59.7 9.6 60.2 9.5 60.8 9.5C61.3 9.5 61.7 9.6 62 9.8C62.3 10 62.5 10.3 62.5 10.7V11.3C62.7 10.8 63.2 10.3 63.8 9.9C64.4 9.5 65.1 9.3 66 9.3C66.8 9.3 67.5 9.6 68.2 10.1C68.9 10.6 69.4 11.2 69.8 12.1C70.2 12.9 70.4 13.8 70.4 14.8V20.6C70.4 21 70.2 21.3 69.8 21.5C69.4 21.7 68.9 21.8 68.4 21.8C67.9 21.8 67.5 21.7 67 21.5C66.6 21.3 66.3 21 66.3 20.6V14.8C66.3 14.5 66.2 14.2 66 13.9C65.8 13.6 65.6 13.4 65.3 13.2C65 13 64.7 12.9 64.4 12.9C64.1 12.9 63.8 13 63.6 13.1C63.3 13.3 63.1 13.5 62.9 13.8C62.7 14.1 62.6 14.4 62.6 14.8V20.6C62.6 20.9 62.4 21.2 62 21.5C61.8 21.8 61.3 21.9 60.8 21.9ZM42.6 45.9C42.4 45.9 42.2 45.8 42 45.7C41.8 45.6 41.7 45.4 41.7 45.2V28.5H37.3C37.1 28.5 36.9 28.4 36.8 28.3C36.7 28.1 36.6 27.9 36.6 27.7C36.6 27.5 36.7 27.3 36.8 27.2C36.9 27 37.1 26.9 37.3 26.9H47.7C47.9 26.9 48.1 27 48.2 27.2C48.3 27.4 48.4 27.5 48.4 27.7C48.4 27.9 48.3 28.1 48.2 28.3C48.1 28.5 47.9 28.6 47.7 28.6H43.4V45.2C43.4 45.4 43.3 45.6 43.1 45.7C43 45.9 42.8 45.9 42.6 45.9ZM48.8 45.9C48.6 45.9 48.4 45.8 48.2 45.7C48.1 45.6 48 45.4 48 45.2V34.2C48 34 48.1 33.8 48.2 33.7C48.4 33.6 48.6 33.5 48.8 33.5C49 33.5 49.2 33.6 49.4 33.7C49.6 33.8 49.6 34 49.6 34.2V35.5C49.8 35.1 50.1 34.8 50.4 34.5C50.7 34.2 51.1 33.9 51.6 33.7C52.1 33.5 52.6 33.4 53.1 33.4H54C54.2 33.4 54.3 33.5 54.5 33.6C54.6 33.8 54.7 33.9 54.7 34.1C54.7 34.3 54.6 34.5 54.5 34.7C54.4 34.8 54.2 34.9 54 34.9H53.1C52.5 34.9 52 35.1 51.4 35.4C50.9 35.7 50.5 36.1 50.1 36.7C49.7 37.3 49.6 37.9 49.6 38.7V45.2C49.6 45.4 49.5 45.5 49.3 45.7C49.3 45.8 49.1 45.9 48.8 45.9ZM58.7 46.1C57.7 46.1 56.9 45.8 56.2 45.3C55.5 44.7 55.2 43.9 55.2 42.7C55.2 41.7 55.5 41 56 40.5C56.5 40 57.2 39.6 58.1 39.4C59 39.2 60.1 39.1 61.3 39.1H62.6V38.5C62.6 37.9 62.5 37.4 62.3 36.8C62.1 36.2 61.8 35.8 61.3 35.4C60.9 35 60.3 34.9 59.5 34.9C58.9 34.9 58.5 35 58.1 35.1C57.7 35.2 57.4 35.4 57.2 35.5C57 35.6 56.8 35.7 56.7 35.7C56.5 35.7 56.3 35.6 56.2 35.4C56.1 35.2 56 35 56 34.8C56 34.6 56.2 34.3 56.5 34.2C56.9 34 57.3 33.8 57.9 33.7C58.5 33.6 59 33.5 59.5 33.5C60.7 33.5 61.6 33.7 62.3 34.2C63 34.7 63.5 35.3 63.8 36C64.1 36.8 64.3 37.6 64.3 38.4V45.2C64.3 45.4 64.2 45.6 64.1 45.7C64 45.8 63.8 45.9 63.5 45.9C63.3 45.9 63.1 45.8 62.9 45.7C62.7 45.6 62.7 45.4 62.7 45.2V44.1C62.3 44.6 61.7 45.1 61.1 45.5C60.4 45.9 59.6 46.1 58.7 46.1ZM59.1 44.7C59.7 44.7 60.2 44.6 60.7 44.3C61.2 44 61.6 43.6 62 43.2C62.3 42.8 62.5 42.4 62.5 42V40.3H61.4C60.6 40.3 59.9 40.4 59.2 40.5C58.5 40.6 57.9 40.8 57.5 41.1C57.1 41.4 56.8 41.9 56.8 42.6C56.8 43.3 57 43.9 57.5 44.2C58 44.5 58.5 44.7 59.1 44.7ZM72 46.1C70.9 46.1 69.9 45.9 69.2 45.5C68.5 45.1 67.9 44.5 67.5 43.7C67.1 42.9 67 42.1 67 41.2V38.4C67 37.5 67.2 36.6 67.5 35.9C67.9 35.2 68.4 34.6 69.2 34.1C70 33.7 70.9 33.5 72.1 33.5C72.8 33.5 73.5 33.6 74 33.8C74.6 34 75 34.2 75.3 34.4C75.6 34.7 75.8 34.9 75.8 35.2C75.8 35.3 75.8 35.5 75.7 35.6C75.6 35.7 75.6 35.8 75.4 35.9C75.3 36 75.2 36 75 36C74.8 36 74.7 35.9 74.5 35.8C74.3 35.6 74 35.5 73.7 35.3C73.4 35.1 72.9 35.1 72.2 35.1C71.1 35.1 70.2 35.4 69.6 36C69 36.6 68.7 37.4 68.7 38.5V41.2C68.7 42.3 69 43.1 69.6 43.7C70.2 44.3 71.1 44.6 72.2 44.6C72.9 44.6 73.4 44.5 73.7 44.4C74.1 44.2 74.3 44.1 74.5 43.9C74.7 43.7 74.9 43.6 75.1 43.6C75.3 43.6 75.4 43.6 75.5 43.7C75.6 43.8 75.7 43.9 75.8 44C75.9 44.1 75.9 44.3 75.9 44.4C75.9 44.6 75.7 44.9 75.4 45.2C75.1 45.5 74.6 45.7 74.1 45.9C73.5 46 72.8 46.1 72 46.1ZM78.9 45.9C78.7 45.9 78.5 45.8 78.3 45.7C78.1 45.6 78.1 45.4 78.1 45.2V26.7C78.1 26.5 78.2 26.3 78.3 26.2C78.5 26.1 78.7 26 78.9 26C79.1 26 79.3 26.1 79.5 26.2C79.7 26.3 79.8 26.5 79.8 26.7V39.3L86.1 33.7C86.2 33.6 86.4 33.5 86.5 33.5C86.6 33.5 86.8 33.5 86.9 33.6C87 33.7 87.2 33.8 87.2 33.9C87.3 34 87.3 34.1 87.3 34.3C87.3 34.4 87.3 34.5 87.2 34.6C87.2 34.7 87.1 34.7 87.1 34.8L83.4 38.2L87.9 44.8C88 44.9 88 45 88 45.2C88 45.3 88 45.5 87.9 45.6C87.8 45.7 87.7 45.9 87.5 45.9C87.4 46 87.2 46 87.1 46C86.9 46 86.7 45.9 86.6 45.7L82.2 39.3L79.8 41.4V45.2C79.8 45.4 79.7 45.5 79.5 45.7C79.4 45.8 79.2 45.9 78.9 45.9ZM94.8 46.1C93.7 46.1 92.7 45.9 91.9 45.5C91.1 45.1 90.4 44.5 89.9 43.8C89.4 43.1 89.2 42.2 89.2 41.2V38.3C89.2 37.4 89.4 36.6 89.9 35.9C90.4 35.2 90.9 34.6 91.7 34.1C92.5 33.7 93.3 33.5 94.2 33.5C95.1 33.5 95.9 33.7 96.6 34.1C97.3 34.5 97.9 35.1 98.4 35.8C98.9 36.5 99.1 37.3 99.1 38.3C99.1 39 99 39.4 98.8 39.7C98.6 40 98.3 40.2 97.9 40.2C97.6 40.3 97.2 40.3 96.8 40.3H90.9V41.3C90.9 42.3 91.3 43.2 92 43.8C92.7 44.4 93.7 44.7 94.8 44.7C95.5 44.7 96 44.6 96.4 44.4C96.8 44.2 97.1 44.1 97.3 43.9C97.5 43.7 97.7 43.6 97.9 43.6C98 43.6 98.2 43.7 98.3 43.8C98.4 43.9 98.5 44 98.6 44.1C98.7 44.2 98.7 44.3 98.7 44.4C98.7 44.6 98.5 44.8 98.2 45.1C97.9 45.4 97.4 45.6 96.8 45.8C96.3 46 95.6 46.1 94.8 46.1ZM90.9 39H96.1C96.6 39 97 38.9 97.1 38.8C97.3 38.7 97.4 38.4 97.4 38.1C97.4 37.5 97.3 37 97 36.5C96.7 36 96.3 35.6 95.9 35.3C95.4 35 94.9 34.8 94.2 34.8C93.6 34.8 93.1 34.9 92.6 35.2C92.1 35.5 91.7 35.9 91.4 36.3C91.1 36.8 91 37.3 91 37.9V39H90.9ZM102.4 45.9C102.2 45.9 102 45.8 101.8 45.7C101.6 45.6 101.6 45.4 101.6 45.2V34.2C101.6 34 101.7 33.8 101.8 33.7C102 33.6 102.2 33.5 102.4 33.5C102.6 33.5 102.8 33.6 103 33.7C103.2 33.8 103.2 34 103.2 34.2V35.5C103.4 35.1 103.7 34.8 104 34.5C104.3 34.2 104.7 33.9 105.2 33.7C105.7 33.5 106.2 33.4 106.7 33.4H107.6C107.8 33.4 107.9 33.5 108.1 33.6C108.2 33.8 108.3 33.9 108.3 34.1C108.3 34.3 108.2 34.5 108.1 34.7C108 34.8 107.8 34.9 107.6 34.9H106.7C106.1 34.9 105.6 35.1 105 35.4C104.5 35.7 104.1 36.1 103.7 36.7C103.4 37.3 103.2 37.9 103.2 38.7V45.2C103.2 45.4 103.1 45.5 102.9 45.7C102.8 45.8 102.6 45.9 102.4 45.9Z" fill="#4EAB6C"/>
</g>
<defs>
<clipPath id="clip0_599_4281">
<rect width="108.2" height="47.6" fill="white" transform="translate(0 0.199951)"/>
</clipPath>
</defs>
</svg>
