<svg width="52" height="94" viewBox="0 0 52 94" fill="none" xmlns="http://www.w3.org/2000/svg">
<g clip-path="url(#clip0_599_4252)">
<path d="M41.2999 85.3001C40.6999 84.1001 39.9999 83.1001 38.4999 83.0001C38.4999 82.2001 38.4999 81.4001 38.4999 80.6001H33.0999C33.0999 81.4001 33.0999 82.2001 33.0999 83.0001C32.0999 83.1001 31.2999 83.5001 30.7999 84.4001C29.8999 86.2001 28.9 88.0001 28.1 89.9001C27.3 91.7001 28.4999 93.6001 30.4999 93.7001C34.0999 93.7001 37.7 93.7001 41.2 93.7001C43.2 93.7001 44.4 91.6001 43.4999 89.8001C42.7999 88.3001 41.9999 86.8001 41.2999 85.3001Z" fill="#3DA35D"/>
<path d="M21.8 85.3001C21.2 84.1001 20.5 83.1001 19.1 83.0001C19.1 82.2001 19.1 81.4001 19.1 80.6001H13.7C13.7 81.4001 13.7 82.2001 13.7 83.0001C12.7 83.2001 11.8 83.6001 11.4 84.5001C10.5 86.3001 9.60003 88.0001 8.70003 89.9001C7.80003 91.7001 9.00003 93.7001 11 93.7001C14.6 93.7001 18.2 93.7001 21.7 93.7001C23.7 93.7001 24.9 91.6001 24 89.8001C23.3 88.3001 22.5 86.8001 21.8 85.3001Z" fill="#3DA35D"/>
<path d="M8.19995 81.6998C7.09995 81.1998 6.49995 80.4998 6.39995 79.1998C6.39995 78.4998 6.29995 77.8998 6.19995 77.1998C17 77.1998 27.7999 77.1998 38.5999 77.1998C38.7999 77.1998 39 77.1998 39.2 77.1998C40.2999 77.0998 41.3 76.1998 41.4 75.0998C41.5 74.2998 41.6 73.4998 41.7 72.7998C43.2 72.7998 44.6999 72.7998 46.0999 72.7998C45.8999 75.0998 45.7 77.4998 45.4 79.7998C45.3 80.7998 44.5 81.2998 43.7 81.6998C31.9 81.6998 20 81.6998 8.19995 81.6998Z" fill="#3DA35D"/>
<path d="M2.19995 29.2998C2.49995 26.7998 2.79995 24.3998 3.09995 21.8998C3.49995 19.0998 3.79995 16.2998 4.19995 13.4998C4.39995 11.9998 4.49995 10.5998 5.69995 9.3998C6.69995 8.3998 7.89995 7.7998 9.39995 7.7998C9.99995 7.7998 10.5 7.7998 11.1 7.7998C11.1 11.9998 11.1 16.1998 11.1 20.2998C11.1 21.5998 11.5 21.9998 12.8 21.9998C21.6 21.9998 30.2999 21.9998 39.0999 21.9998C40.3999 21.9998 40.7999 21.5998 40.7999 20.2998C40.7999 16.3998 40.7999 12.4998 40.7999 8.5998C41.2999 9.0998 42 9.5998 42.4 10.1998C43.1 11.1998 43.1 12.4998 43.2 13.6998C43.5 15.7998 43.7999 17.7998 44 19.8998C44.2 21.5998 44.5 23.1998 44.7 24.8998C44.9 26.2998 45 27.6998 45.2 29.0998C45 29.0998 44.9 29.0998 44.7 29.0998C30.7 29.0998 16.7 29.0998 2.69995 29.0998C2.49995 29.3998 2.39995 29.3998 2.19995 29.2998Z" fill="#9AE59C"/>
<path d="M40.8 8.8C40.8 12.7 40.8 16.6 40.8 20.5C40.8 21.8 40.4 22.2 39.1 22.2C30.3 22.2 21.6 22.2 12.8 22.2C11.5 22.2 11.1 21.8 11.1 20.5C11.1 16.3 11.1 12.1 11.1 8C19.2 8 27.4 8 35.5 8C37.3 8 39 8 40.8 8C40.8 8.2 40.8 8.5 40.8 8.8Z" fill="#3DA35D"/>
<path d="M2.2 29.2998C2.4 29.2998 2.6 29.2998 2.8 29.2998C16.8 29.2998 30.8 29.2998 44.8 29.2998C45 29.2998 45.1 29.2998 45.3 29.2998C45.9 29.2998 46.6 29.2998 47.2 29.2998C47.3 29.6998 47.5 30.0998 47.5 30.4998C47.5 31.4998 47.5 32.4998 47.5 33.5998C47.5 34.0998 47.3 34.4998 47.2 34.9998C46.6 34.9998 45.9 34.9998 45.3 34.9998C45.1 34.9998 44.9 34.9998 44.7 34.9998C30.7 34.9998 16.8 34.9998 3 34.9998C2.9 34.9998 2.8 34.9998 2.6 34.9998C2.4 34.9998 2.1 34.9998 1.9 35.0998C1.6 35.0998 1.3 35.0998 1 35.0998C0.3 35.0998 0 34.7998 0 34.0998C0 32.7998 0 31.4998 0 30.1998C0 29.5998 0.3 29.2998 0.9 29.2998C1.4 29.3998 1.8 29.3998 2.2 29.2998Z" fill="#4DAA6A"/>
<path d="M45.2 35.1001C45.8 35.1001 46.5 35.1001 47.1 35.1001C48 35.1001 48.8 35.1001 49.7 35.2001C49.4 38.0001 49.2 40.8001 48.9 43.6001C48.7 45.8001 48.5 48.1001 48.2 50.3001C47.9 53.5001 47.6 56.7001 47.2 60.0001C46.9 62.6001 46.7 65.2001 46.4 67.9001C46.2 69.6001 46.1 71.2001 45.9 72.9001C44.4 72.9001 42.9 72.9001 41.5 72.9001C41.7 71.0001 41.9 69.1001 42.1 67.1001C42.3 65.4001 42.4 63.7001 42.6 62.0001C42.8 60.3001 43 58.6001 43.1 56.9001C43.2 55.7001 43.3 54.6001 43.4 53.4001C43.6 51.6001 43.8 49.8001 43.9 48.1001C44.1 46.4001 44.2 44.7001 44.4 43.0001C44.6 41.3001 44.8 39.6001 44.9 37.9001C45.1 36.9001 45.2 36.0001 45.2 35.1001Z" fill="#94CCA6"/>
<path d="M5.90002 72.7998C6.00002 72.7998 6.10002 72.7998 6.30002 72.7998C18.1 72.7998 29.9 72.7998 41.7 72.7998C41.6 73.5998 41.5 74.3998 41.4 75.0998C41.3 76.1998 40.4 77.1998 39.2 77.1998C39 77.1998 38.8 77.1998 38.6 77.1998C27.8 77.1998 17 77.1998 6.20002 77.1998C6.10002 75.6998 6.00002 74.2998 5.90002 72.7998Z" fill="#4EAB6C"/>
<path d="M47.1 29.3999C46.5 29.3999 45.8001 29.3999 45.2001 29.3999C45.0001 27.9999 44.9001 26.5999 44.7001 25.1999C44.5001 23.4999 44.2 21.8999 44 20.1999C43.7 18.0999 43.4001 16.0999 43.2001 13.9999C43.1001 12.7999 43.1001 11.4999 42.4001 10.4999C42.0001 9.89989 41.3 9.39989 40.8 8.89989C40.8 8.59989 40.8 8.29989 40.8 7.99989C41.8 7.99989 42.9001 7.89989 43.9001 8.19989C46.0001 8.69989 47.3 10.3999 47.6 12.4999C48.1 16.3999 48.6 20.1999 49.1 24.0999C49.3 25.8999 49.5 27.6999 49.8 29.3999C48.9 29.2999 48 29.3999 47.1 29.3999Z" fill="#94CCA6"/>
<path d="M47.1 29.3998C48 29.3998 48.9 29.3998 49.7 29.2998C50.1 29.2998 50.6 29.2998 51 29.2998C51.6 29.2998 51.8 29.5998 51.8 30.0998C51.8 31.3998 51.8 32.7998 51.8 34.0998C51.8 34.6998 51.5 34.9998 50.9 34.9998C50.5 34.9998 50 34.9998 49.6 34.9998C48.7 34.9998 47.9 34.9998 47 34.8998C47.1 34.3998 47.3 33.9998 47.3 33.4998C47.3 32.4998 47.3 31.4998 47.3 30.3998C47.4 30.1998 47.2 29.7998 47.1 29.3998Z" fill="#3DA35D"/>
<path d="M1.90002 35.1C2.10002 35.1 2.40002 35.1 2.60002 35C2.40002 35 2.30002 35.1 2.20002 35.1C2.10002 35.1 2.00002 35.1 1.90002 35.1Z" fill="#94CCA6"/>
<path d="M44.5999 35C30.6999 35 16.8 35 2.99995 35C2.89995 35 2.79995 35 2.59995 35C2.39995 35 2.29995 35.1 2.19995 35.1C2.29995 35.7 2.29995 36.3 2.39995 37C2.59995 39.2 2.79995 41.3 2.99995 43.5C3.29995 46.2 3.59995 49 3.79995 51.7C3.99995 53.9 4.19995 56 4.39995 58.2C4.69995 60.9 4.89995 63.6 5.19995 66.3C5.39995 68.4 5.59995 70.6 5.89995 72.7C5.99995 72.7 6.09995 72.7 6.29995 72.7C18.1 72.7 29.9 72.7 41.7 72.7C41.9 70.8 42.0999 68.9 42.2999 66.9C42.5 65.2 42.5999 63.5 42.7999 61.8C43 60.1 43.2 58.4 43.2999 56.7C43.3999 55.5 43.5 54.4 43.5999 53.2C43.7999 51.4 44 49.6 44.0999 47.9C44.2999 46.2 44.3999 44.5 44.5999 42.8C44.7999 41.1 45 39.4 45.0999 37.7C45.1999 36.8 45.2 35.9 45.2999 35C45 35.1 44.7999 35 44.5999 35Z" fill="#9BE59D"/>
<path d="M8 47.1002C8.2 46.3002 8.8 45.8002 9.4 45.3002C12.5 42.5002 16 40.7002 20 40.0002C27.1 38.7002 33.4 40.4002 38.9 45.0002C39.3 45.3002 39.7 45.7002 40 46.1002C40.6 46.7002 40.8 47.4002 40.5 48.1002C40.2 48.8002 39.7 49.3002 38.9 49.3002C38.3 49.4002 37.8 49.1002 37.4 48.7002C36.8 48.2002 36.2 47.6002 35.5 47.1002C32.8 45.1002 29.8 43.8002 26.5 43.5002C22.1 43.0002 18 44.0002 14.2 46.4002C13.1 47.1002 12.2 47.9002 11.3 48.8002C10.6 49.3002 9.8 49.5002 9 49.0002C8.6 48.8002 8.3 48.4002 8.1 48.0002C8.1 47.9002 8 47.8002 8 47.7002C8 47.5002 8 47.3002 8 47.1002Z" fill="white"/>
<path d="M24.6 45.7002C28.7 45.8002 32.5 47.3002 35.6 50.3002C36.1 50.8002 36.4 51.4002 36.2 52.2002C36 52.9002 35.6 53.4002 34.9 53.6002C34.3 53.8002 33.8 53.7002 33.3 53.3002C32.8 52.9002 32.3 52.4002 31.8 52.0002C30 50.6002 27.9 49.8002 25.7 49.6002C22.1 49.3002 19 50.3002 16.3 52.6002C15.9 53.0002 15.5 53.4002 14.9 53.6002C14.1 53.8002 13.3 53.5002 12.8 52.8002C12.4 52.1002 12.4 51.2002 12.9 50.6002C13.7 49.7002 14.6 49.0002 15.5 48.4002C18.1 46.6002 21.1 45.8002 24.6 45.7002Z" fill="white"/>
<path d="M24.3 51.8999C27.1 51.8999 29.4 52.8999 31.4 54.7999C32.2 55.4999 32.2 56.6999 31.5 57.3999C30.8 58.0999 29.7 58.1999 28.9 57.4999C28.2 56.8999 27.4 56.2999 26.5 55.9999C24.2 55.2999 22.2 55.6999 20.4 57.1999C20.1 57.3999 19.8 57.6999 19.5 57.8999C18.7 58.1999 17.7 57.8999 17.3 57.1999C16.8 56.4999 16.9 55.4999 17.6 54.7999C19.4 53.0999 21.5 52.0999 24 51.9999C24 51.9999 24.2 51.9999 24.3 51.8999Z" fill="white"/>
<path d="M27.6 61.9002C27.6 63.7002 26.2 65.1002 24.4 65.1002C22.6 65.1002 21.2 63.7002 21.2 61.9002C21.2 60.1002 22.6999 58.7002 24.4 58.7002C26.2 58.7002 27.6 60.1002 27.6 61.9002Z" fill="white"/>
<path d="M36 5.2C37.436 5.2 38.6 4.03594 38.6 2.6C38.6 1.16406 37.436 0 36 0C34.5641 0 33.4 1.16406 33.4 2.6C33.4 4.03594 34.5641 5.2 36 5.2Z" fill="#3DA35D"/>
<path d="M33.4301 2.10596L31.7291 11.96L36.8532 12.8445L38.5542 2.99048L33.4301 2.10596Z" fill="#3DA35D"/>
<path d="M15.6 5.2C17.0359 5.2 18.2 4.03594 18.2 2.6C18.2 1.16406 17.0359 0 15.6 0C14.1641 0 13 1.16406 13 2.6C13 4.03594 14.1641 5.2 15.6 5.2Z" fill="#3DA35D"/>
<path d="M18.2066 2.12375L13.0825 3.00879L14.7845 12.8628L19.9086 11.9777L18.2066 2.12375Z" fill="#3DA35D"/>
<path d="M32 17.7C33.436 17.7 34.6 16.5359 34.6 15.1C34.6 13.6641 33.436 12.5 32 12.5C30.5641 12.5 29.4 13.6641 29.4 15.1C29.4 16.5359 30.5641 17.7 32 17.7Z" fill="white"/>
<path d="M20.1 17.7C21.5359 17.7 22.7 16.5359 22.7 15.1C22.7 13.6641 21.5359 12.5 20.1 12.5C18.6641 12.5 17.5 13.6641 17.5 15.1C17.5 16.5359 18.6641 17.7 20.1 17.7Z" fill="white"/>
</g>
<defs>
<clipPath id="clip0_599_4252">
<rect width="52" height="94" fill="white"/>
</clipPath>
</defs>
</svg>
