<svg width="1363" height="163" viewBox="0 0 1363 163" fill="none" xmlns="http://www.w3.org/2000/svg">
<path d="M0 15C0 6.71573 6.71573 0 15 0H37V163H15C6.71573 163 0 156.284 0 148V15Z" fill="#424242"/>
<rect width="1097" height="163" transform="translate(37)" fill="#F0F0F0"/>
<path d="M101.906 53.9219L94.3945 51.2383V48.0859L104.602 52.375V54.6367L101.906 53.9219ZM94.3945 56.1719L101.918 53.4297L104.602 52.7852V55.0352L94.3945 59.3242V56.1719ZM119.578 53.5117H115.195L115.172 51.0977H118.852C119.5 51.0977 120.031 51.0156 120.445 50.8516C120.859 50.6797 121.168 50.4336 121.371 50.1133C121.582 49.7852 121.688 49.3867 121.688 48.918C121.688 48.3867 121.586 47.957 121.383 47.6289C121.188 47.3008 120.879 47.0625 120.457 46.9141C120.043 46.7656 119.508 46.6914 118.852 46.6914H116.414V61H112.898V43.9375H118.852C119.844 43.9375 120.73 44.0312 121.512 44.2188C122.301 44.4062 122.969 44.6914 123.516 45.0742C124.062 45.457 124.48 45.9414 124.77 46.5273C125.059 47.1055 125.203 47.793 125.203 48.5898C125.203 49.293 125.043 49.9414 124.723 50.5352C124.41 51.1289 123.914 51.6133 123.234 51.9883C122.562 52.3633 121.684 52.5703 120.598 52.6094L119.578 53.5117ZM119.426 61H114.234L115.605 58.2578H119.426C120.043 58.2578 120.547 58.1602 120.938 57.9648C121.328 57.7617 121.617 57.4883 121.805 57.1445C121.992 56.8008 122.086 56.4062 122.086 55.9609C122.086 55.4609 122 55.0273 121.828 54.6602C121.664 54.293 121.398 54.0117 121.031 53.8164C120.664 53.6133 120.18 53.5117 119.578 53.5117H116.191L116.215 51.0977H120.434L121.242 52.0469C122.281 52.0312 123.117 52.2148 123.75 52.5977C124.391 52.9727 124.855 53.4609 125.145 54.0625C125.441 54.6641 125.59 55.3086 125.59 55.9961C125.59 57.0898 125.352 58.0117 124.875 58.7617C124.398 59.5039 123.699 60.0625 122.777 60.4375C121.863 60.8125 120.746 61 119.426 61ZM131.578 48.3203V61H128.191V48.3203H131.578ZM127.98 45.0156C127.98 44.5234 128.152 44.1172 128.496 43.7969C128.84 43.4766 129.301 43.3164 129.879 43.3164C130.449 43.3164 130.906 43.4766 131.25 43.7969C131.602 44.1172 131.777 44.5234 131.777 45.0156C131.777 45.5078 131.602 45.9141 131.25 46.2344C130.906 46.5547 130.449 46.7148 129.879 46.7148C129.301 46.7148 128.84 46.5547 128.496 46.2344C128.152 45.9141 127.98 45.5078 127.98 45.0156ZM137.672 51.0273V61H134.297V48.3203H137.461L137.672 51.0273ZM137.18 54.2148H136.266C136.266 53.2773 136.387 52.4336 136.629 51.6836C136.871 50.9258 137.211 50.2812 137.648 49.75C138.086 49.2109 138.605 48.8008 139.207 48.5195C139.816 48.2305 140.496 48.0859 141.246 48.0859C141.84 48.0859 142.383 48.1719 142.875 48.3438C143.367 48.5156 143.789 48.7891 144.141 49.1641C144.5 49.5391 144.773 50.0352 144.961 50.6523C145.156 51.2695 145.254 52.0234 145.254 52.9141V61H141.855V52.9023C141.855 52.3398 141.777 51.9023 141.621 51.5898C141.465 51.2773 141.234 51.0586 140.93 50.9336C140.633 50.8008 140.266 50.7344 139.828 50.7344C139.375 50.7344 138.98 50.8242 138.645 51.0039C138.316 51.1836 138.043 51.4336 137.824 51.7539C137.613 52.0664 137.453 52.4336 137.344 52.8555C137.234 53.2773 137.18 53.7305 137.18 54.2148ZM161.004 43.9375V61H157.5V43.9375H161.004ZM166.254 43.9375V46.6914H152.332V43.9375H166.254ZM170.602 51.0859V61H167.227V48.3203H170.402L170.602 51.0859ZM174.422 48.2383L174.363 51.3672C174.199 51.3438 174 51.3242 173.766 51.3086C173.539 51.2852 173.332 51.2734 173.145 51.2734C172.668 51.2734 172.254 51.3359 171.902 51.4609C171.559 51.5781 171.27 51.7539 171.035 51.9883C170.809 52.2227 170.637 52.5078 170.52 52.8438C170.41 53.1797 170.348 53.5625 170.332 53.9922L169.652 53.7812C169.652 52.9609 169.734 52.207 169.898 51.5195C170.062 50.8242 170.301 50.2188 170.613 49.7031C170.934 49.1875 171.324 48.7891 171.785 48.5078C172.246 48.2266 172.773 48.0859 173.367 48.0859C173.555 48.0859 173.746 48.1016 173.941 48.1328C174.137 48.1562 174.297 48.1914 174.422 48.2383ZM182.461 58.1406V52.4922C182.461 52.0859 182.395 51.7383 182.262 51.4492C182.129 51.1523 181.922 50.9219 181.641 50.7578C181.367 50.5938 181.012 50.5117 180.574 50.5117C180.199 50.5117 179.875 50.5781 179.602 50.7109C179.328 50.8359 179.117 51.0195 178.969 51.2617C178.82 51.4961 178.746 51.7734 178.746 52.0938H175.371C175.371 51.5547 175.496 51.043 175.746 50.5586C175.996 50.0742 176.359 49.6484 176.836 49.2812C177.312 48.9062 177.879 48.6133 178.535 48.4023C179.199 48.1914 179.941 48.0859 180.762 48.0859C181.746 48.0859 182.621 48.25 183.387 48.5781C184.152 48.9062 184.754 49.3984 185.191 50.0547C185.637 50.7109 185.859 51.5312 185.859 52.5156V57.9414C185.859 58.6367 185.902 59.207 185.988 59.6523C186.074 60.0898 186.199 60.4727 186.363 60.8008V61H182.953C182.789 60.6562 182.664 60.2266 182.578 59.7109C182.5 59.1875 182.461 58.6641 182.461 58.1406ZM182.906 53.2773L182.93 55.1875H181.043C180.598 55.1875 180.211 55.2383 179.883 55.3398C179.555 55.4414 179.285 55.5859 179.074 55.7734C178.863 55.9531 178.707 56.1641 178.605 56.4062C178.512 56.6484 178.465 56.9141 178.465 57.2031C178.465 57.4922 178.531 57.7539 178.664 57.9883C178.797 58.2148 178.988 58.3945 179.238 58.5273C179.488 58.6523 179.781 58.7148 180.117 58.7148C180.625 58.7148 181.066 58.6133 181.441 58.4102C181.816 58.207 182.105 57.957 182.309 57.6602C182.52 57.3633 182.629 57.082 182.637 56.8164L183.527 58.2461C183.402 58.5664 183.23 58.8984 183.012 59.2422C182.801 59.5859 182.531 59.9102 182.203 60.2148C181.875 60.5117 181.48 60.7578 181.02 60.9531C180.559 61.1406 180.012 61.2344 179.379 61.2344C178.574 61.2344 177.844 61.0742 177.188 60.7539C176.539 60.4258 176.023 59.9766 175.641 59.4062C175.266 58.8281 175.078 58.1719 175.078 57.4375C175.078 56.7734 175.203 56.1836 175.453 55.668C175.703 55.1523 176.07 54.7188 176.555 54.3672C177.047 54.0078 177.66 53.7383 178.395 53.5586C179.129 53.3711 179.98 53.2773 180.949 53.2773H182.906ZM193.699 58.5977C194.113 58.5977 194.48 58.5195 194.801 58.3633C195.121 58.1992 195.371 57.9727 195.551 57.6836C195.738 57.3867 195.836 57.0391 195.844 56.6406H199.02C199.012 57.5312 198.773 58.3242 198.305 59.0195C197.836 59.707 197.207 60.25 196.418 60.6484C195.629 61.0391 194.746 61.2344 193.77 61.2344C192.785 61.2344 191.926 61.0703 191.191 60.7422C190.465 60.4141 189.859 59.9609 189.375 59.3828C188.891 58.7969 188.527 58.1172 188.285 57.3438C188.043 56.5625 187.922 55.7266 187.922 54.8359V54.4961C187.922 53.5977 188.043 52.7617 188.285 51.9883C188.527 51.207 188.891 50.5273 189.375 49.9492C189.859 49.3633 190.465 48.9062 191.191 48.5781C191.918 48.25 192.77 48.0859 193.746 48.0859C194.785 48.0859 195.695 48.2852 196.477 48.6836C197.266 49.082 197.883 49.6523 198.328 50.3945C198.781 51.1289 199.012 52 199.02 53.0078H195.844C195.836 52.5859 195.746 52.2031 195.574 51.8594C195.41 51.5156 195.168 51.2422 194.848 51.0391C194.535 50.8281 194.148 50.7227 193.688 50.7227C193.195 50.7227 192.793 50.8281 192.48 51.0391C192.168 51.2422 191.926 51.5234 191.754 51.8828C191.582 52.2344 191.461 52.6367 191.391 53.0898C191.328 53.5352 191.297 54.0039 191.297 54.4961V54.8359C191.297 55.3281 191.328 55.8008 191.391 56.2539C191.453 56.707 191.57 57.1094 191.742 57.4609C191.922 57.8125 192.168 58.0898 192.48 58.293C192.793 58.4961 193.199 58.5977 193.699 58.5977ZM204.352 42.9883V61H200.977V42.9883H204.352ZM212.344 48.3203L206.836 54.6016L203.883 57.5898L202.652 55.1523L204.996 52.1758L208.289 48.3203H212.344ZM208.84 61L205.09 55.1406L207.422 53.1016L212.73 61H208.84ZM219.398 61.2344C218.414 61.2344 217.531 61.0781 216.75 60.7656C215.969 60.4453 215.305 60.0039 214.758 59.4414C214.219 58.8789 213.805 58.2266 213.516 57.4844C213.227 56.7344 213.082 55.9375 213.082 55.0938V54.625C213.082 53.6641 213.219 52.7852 213.492 51.9883C213.766 51.1914 214.156 50.5 214.664 49.9141C215.18 49.3281 215.805 48.8789 216.539 48.5664C217.273 48.2461 218.102 48.0859 219.023 48.0859C219.922 48.0859 220.719 48.2344 221.414 48.5312C222.109 48.8281 222.691 49.25 223.16 49.7969C223.637 50.3438 223.996 51 224.238 51.7656C224.48 52.5234 224.602 53.3672 224.602 54.2969V55.7031H214.523V53.4531H221.285V53.1953C221.285 52.7266 221.199 52.3086 221.027 51.9414C220.863 51.5664 220.613 51.2695 220.277 51.0508C219.941 50.832 219.512 50.7227 218.988 50.7227C218.543 50.7227 218.16 50.8203 217.84 51.0156C217.52 51.2109 217.258 51.4844 217.055 51.8359C216.859 52.1875 216.711 52.6016 216.609 53.0781C216.516 53.5469 216.469 54.0625 216.469 54.625V55.0938C216.469 55.6016 216.539 56.0703 216.68 56.5C216.828 56.9297 217.035 57.3008 217.301 57.6133C217.574 57.9258 217.902 58.168 218.285 58.3398C218.676 58.5117 219.117 58.5977 219.609 58.5977C220.219 58.5977 220.785 58.4805 221.309 58.2461C221.84 58.0039 222.297 57.6406 222.68 57.1562L224.32 58.9375C224.055 59.3203 223.691 59.6875 223.23 60.0391C222.777 60.3906 222.23 60.6797 221.59 60.9062C220.949 61.125 220.219 61.2344 219.398 61.2344ZM229.898 51.0859V61H226.523V48.3203H229.699L229.898 51.0859ZM233.719 48.2383L233.66 51.3672C233.496 51.3438 233.297 51.3242 233.062 51.3086C232.836 51.2852 232.629 51.2734 232.441 51.2734C231.965 51.2734 231.551 51.3359 231.199 51.4609C230.855 51.5781 230.566 51.7539 230.332 51.9883C230.105 52.2227 229.934 52.5078 229.816 52.8438C229.707 53.1797 229.645 53.5625 229.629 53.9922L228.949 53.7812C228.949 52.9609 229.031 52.207 229.195 51.5195C229.359 50.8242 229.598 50.2188 229.91 49.7031C230.23 49.1875 230.621 48.7891 231.082 48.5078C231.543 48.2266 232.07 48.0859 232.664 48.0859C232.852 48.0859 233.043 48.1016 233.238 48.1328C233.434 48.1562 233.594 48.1914 233.719 48.2383Z" fill="#888888"/>
<path d="M109.219 107.422H100.734V101.07H109.219C110.375 101.07 111.312 100.875 112.031 100.484C112.75 100.094 113.273 99.5547 113.602 98.8672C113.945 98.1641 114.117 97.375 114.117 96.5C114.117 95.5625 113.945 94.6953 113.602 93.8984C113.273 93.1016 112.75 92.4609 112.031 91.9766C111.312 91.4766 110.375 91.2266 109.219 91.2266H103.828V119H95.6016V84.875H109.219C111.953 84.875 114.305 85.375 116.273 86.375C118.258 87.375 119.781 88.75 120.844 90.5C121.906 92.2344 122.438 94.2188 122.438 96.4531C122.438 98.6562 121.906 100.578 120.844 102.219C119.781 103.859 118.258 105.141 116.273 106.062C114.305 106.969 111.953 107.422 109.219 107.422ZM134.461 99.9219V119H126.562V93.6406H133.945L134.461 99.9219ZM141.961 93.4531L141.82 100.789C141.508 100.758 141.086 100.719 140.555 100.672C140.023 100.625 139.578 100.602 139.219 100.602C138.297 100.602 137.5 100.711 136.828 100.93C136.172 101.133 135.625 101.445 135.188 101.867C134.766 102.273 134.453 102.789 134.25 103.414C134.062 104.039 133.977 104.766 133.992 105.594L132.562 104.656C132.562 102.953 132.727 101.406 133.055 100.016C133.398 98.6094 133.883 97.3984 134.508 96.3828C135.133 95.3516 135.891 94.5625 136.781 94.0156C137.672 93.4531 138.672 93.1719 139.781 93.1719C140.172 93.1719 140.555 93.1953 140.93 93.2422C141.32 93.2891 141.664 93.3594 141.961 93.4531ZM142.852 106.578V106.086C142.852 104.227 143.117 102.516 143.648 100.953C144.18 99.375 144.961 98.0078 145.992 96.8516C147.023 95.6953 148.297 94.7969 149.812 94.1562C151.328 93.5 153.078 93.1719 155.062 93.1719C157.062 93.1719 158.82 93.5 160.336 94.1562C161.867 94.7969 163.148 95.6953 164.18 96.8516C165.211 98.0078 165.992 99.375 166.523 100.953C167.055 102.516 167.32 104.227 167.32 106.086V106.578C167.32 108.422 167.055 110.133 166.523 111.711C165.992 113.273 165.211 114.641 164.18 115.812C163.148 116.969 161.875 117.867 160.359 118.508C158.844 119.148 157.094 119.469 155.109 119.469C153.125 119.469 151.367 119.148 149.836 118.508C148.305 117.867 147.023 116.969 145.992 115.812C144.961 114.641 144.18 113.273 143.648 111.711C143.117 110.133 142.852 108.422 142.852 106.578ZM150.75 106.086V106.578C150.75 107.531 150.82 108.422 150.961 109.25C151.102 110.078 151.336 110.805 151.664 111.43C151.992 112.039 152.438 112.516 153 112.859C153.562 113.203 154.266 113.375 155.109 113.375C155.938 113.375 156.625 113.203 157.172 112.859C157.734 112.516 158.18 112.039 158.508 111.43C158.836 110.805 159.07 110.078 159.211 109.25C159.352 108.422 159.422 107.531 159.422 106.578V106.086C159.422 105.164 159.352 104.297 159.211 103.484C159.07 102.656 158.836 101.93 158.508 101.305C158.18 100.664 157.734 100.164 157.172 99.8047C156.609 99.4453 155.906 99.2656 155.062 99.2656C154.234 99.2656 153.539 99.4453 152.977 99.8047C152.43 100.164 151.992 100.664 151.664 101.305C151.336 101.93 151.102 102.656 150.961 103.484C150.82 104.297 150.75 105.164 150.75 106.086ZM184.195 93.6406V99.125H168.914V93.6406H184.195ZM172.125 87.3359H180.023V110.727C180.023 111.398 180.102 111.922 180.258 112.297C180.414 112.656 180.68 112.914 181.055 113.07C181.445 113.211 181.961 113.281 182.602 113.281C183.055 113.281 183.43 113.273 183.727 113.258C184.023 113.227 184.305 113.188 184.57 113.141V118.789C183.898 119.008 183.195 119.172 182.461 119.281C181.727 119.406 180.945 119.469 180.117 119.469C178.43 119.469 176.984 119.203 175.781 118.672C174.594 118.141 173.688 117.305 173.062 116.164C172.438 115.023 172.125 113.539 172.125 111.711V87.3359ZM185.648 106.578V106.086C185.648 104.227 185.914 102.516 186.445 100.953C186.977 99.375 187.758 98.0078 188.789 96.8516C189.82 95.6953 191.094 94.7969 192.609 94.1562C194.125 93.5 195.875 93.1719 197.859 93.1719C199.859 93.1719 201.617 93.5 203.133 94.1562C204.664 94.7969 205.945 95.6953 206.977 96.8516C208.008 98.0078 208.789 99.375 209.32 100.953C209.852 102.516 210.117 104.227 210.117 106.086V106.578C210.117 108.422 209.852 110.133 209.32 111.711C208.789 113.273 208.008 114.641 206.977 115.812C205.945 116.969 204.672 117.867 203.156 118.508C201.641 119.148 199.891 119.469 197.906 119.469C195.922 119.469 194.164 119.148 192.633 118.508C191.102 117.867 189.82 116.969 188.789 115.812C187.758 114.641 186.977 113.273 186.445 111.711C185.914 110.133 185.648 108.422 185.648 106.578ZM193.547 106.086V106.578C193.547 107.531 193.617 108.422 193.758 109.25C193.898 110.078 194.133 110.805 194.461 111.43C194.789 112.039 195.234 112.516 195.797 112.859C196.359 113.203 197.062 113.375 197.906 113.375C198.734 113.375 199.422 113.203 199.969 112.859C200.531 112.516 200.977 112.039 201.305 111.43C201.633 110.805 201.867 110.078 202.008 109.25C202.148 108.422 202.219 107.531 202.219 106.578V106.086C202.219 105.164 202.148 104.297 202.008 103.484C201.867 102.656 201.633 101.93 201.305 101.305C200.977 100.664 200.531 100.164 199.969 99.8047C199.406 99.4453 198.703 99.2656 197.859 99.2656C197.031 99.2656 196.336 99.4453 195.773 99.8047C195.227 100.164 194.789 100.664 194.461 101.305C194.133 101.93 193.898 102.656 193.758 103.484C193.617 104.297 193.547 105.164 193.547 106.086ZM226.992 93.6406V99.125H211.711V93.6406H226.992ZM214.922 87.3359H222.82V110.727C222.82 111.398 222.898 111.922 223.055 112.297C223.211 112.656 223.477 112.914 223.852 113.07C224.242 113.211 224.758 113.281 225.398 113.281C225.852 113.281 226.227 113.273 226.523 113.258C226.82 113.227 227.102 113.188 227.367 113.141V118.789C226.695 119.008 225.992 119.172 225.258 119.281C224.523 119.406 223.742 119.469 222.914 119.469C221.227 119.469 219.781 119.203 218.578 118.672C217.391 118.141 216.484 117.305 215.859 116.164C215.234 115.023 214.922 113.539 214.922 111.711V87.3359ZM237.914 116.023L244.477 93.6406H252.961L242.766 122.773C242.547 123.414 242.258 124.102 241.898 124.836C241.539 125.586 241.047 126.297 240.422 126.969C239.797 127.641 238.992 128.188 238.008 128.609C237.039 129.031 235.836 129.242 234.398 129.242C233.633 129.242 233.07 129.203 232.711 129.125C232.367 129.062 231.836 128.945 231.117 128.773V123.125C231.32 123.125 231.492 123.125 231.633 123.125C231.789 123.125 231.961 123.125 232.148 123.125C232.992 123.125 233.664 123.039 234.164 122.867C234.68 122.695 235.07 122.445 235.336 122.117C235.617 121.789 235.836 121.391 235.992 120.922L237.914 116.023ZM236.25 93.6406L241.242 111.383L242.109 119.75H236.812L227.789 93.6406H236.25ZM262.992 98.5156V128.75H255.094V93.6406H262.453L262.992 98.5156ZM278.555 106.016V106.508C278.555 108.352 278.344 110.062 277.922 111.641C277.5 113.219 276.875 114.594 276.047 115.766C275.219 116.938 274.188 117.852 272.953 118.508C271.734 119.148 270.32 119.469 268.711 119.469C267.195 119.469 265.891 119.133 264.797 118.461C263.703 117.789 262.789 116.859 262.055 115.672C261.32 114.484 260.727 113.125 260.273 111.594C259.82 110.062 259.461 108.445 259.195 106.742V106.109C259.461 104.281 259.82 102.586 260.273 101.023C260.727 99.4453 261.32 98.0703 262.055 96.8984C262.789 95.7266 263.695 94.8125 264.773 94.1562C265.867 93.5 267.172 93.1719 268.688 93.1719C270.297 93.1719 271.711 93.4766 272.93 94.0859C274.164 94.6953 275.195 95.5703 276.023 96.7109C276.867 97.8359 277.5 99.1875 277.922 100.766C278.344 102.344 278.555 104.094 278.555 106.016ZM270.656 106.508V106.016C270.656 105.031 270.586 104.133 270.445 103.32C270.305 102.492 270.078 101.773 269.766 101.164C269.469 100.555 269.07 100.086 268.57 99.7578C268.07 99.4297 267.453 99.2656 266.719 99.2656C265.875 99.2656 265.164 99.3984 264.586 99.6641C264.023 99.9141 263.57 100.305 263.227 100.836C262.898 101.352 262.664 102 262.523 102.781C262.398 103.547 262.344 104.445 262.359 105.477V107.398C262.328 108.586 262.445 109.633 262.711 110.539C262.977 111.43 263.438 112.125 264.094 112.625C264.75 113.125 265.641 113.375 266.766 113.375C267.516 113.375 268.141 113.203 268.641 112.859C269.141 112.5 269.539 112.008 269.836 111.383C270.133 110.742 270.344 110.008 270.469 109.18C270.594 108.352 270.656 107.461 270.656 106.508ZM290.414 93.6406V119H282.492V93.6406H290.414ZM282.023 87.1016C282.023 85.9766 282.43 85.0547 283.242 84.3359C284.055 83.6172 285.109 83.2578 286.406 83.2578C287.703 83.2578 288.758 83.6172 289.57 84.3359C290.383 85.0547 290.789 85.9766 290.789 87.1016C290.789 88.2266 290.383 89.1484 289.57 89.8672C288.758 90.5859 287.703 90.9453 286.406 90.9453C285.109 90.9453 284.055 90.5859 283.242 89.8672C282.43 89.1484 282.023 88.2266 282.023 87.1016ZM303.047 99.0547V119H295.148V93.6406H302.555L303.047 99.0547ZM302.109 105.453L300.258 105.5C300.258 103.562 300.492 101.836 300.961 100.32C301.43 98.7891 302.094 97.4922 302.953 96.4297C303.812 95.3672 304.836 94.5625 306.023 94.0156C307.227 93.4531 308.562 93.1719 310.031 93.1719C311.203 93.1719 312.273 93.3438 313.242 93.6875C314.227 94.0312 315.07 94.5859 315.773 95.3516C316.492 96.1172 317.039 97.1328 317.414 98.3984C317.805 99.6484 318 101.195 318 103.039V119H310.055V103.016C310.055 102 309.914 101.227 309.633 100.695C309.352 100.148 308.945 99.7734 308.414 99.5703C307.883 99.3672 307.234 99.2656 306.469 99.2656C305.656 99.2656 304.969 99.4219 304.406 99.7344C303.844 100.047 303.391 100.484 303.047 101.047C302.719 101.594 302.477 102.242 302.32 102.992C302.18 103.742 302.109 104.562 302.109 105.453ZM338.32 93.6406H345.492V118.016C345.492 120.359 344.953 122.344 343.875 123.969C342.797 125.609 341.289 126.852 339.352 127.695C337.43 128.555 335.18 128.984 332.602 128.984C331.461 128.984 330.297 128.836 329.109 128.539C327.922 128.258 326.812 127.836 325.781 127.273C324.75 126.711 323.883 126.016 323.18 125.188L326.484 120.547C327.125 121.266 327.93 121.875 328.898 122.375C329.867 122.891 331.008 123.148 332.32 123.148C333.461 123.148 334.414 122.945 335.18 122.539C335.961 122.133 336.555 121.539 336.961 120.758C337.367 119.992 337.57 119.062 337.57 117.969V99.6406L338.32 93.6406ZM321.469 106.625V106.133C321.469 104.211 321.703 102.461 322.172 100.883C322.656 99.2891 323.344 97.9219 324.234 96.7812C325.141 95.625 326.234 94.7344 327.516 94.1094C328.797 93.4844 330.242 93.1719 331.852 93.1719C333.586 93.1719 335.008 93.5078 336.117 94.1797C337.242 94.8359 338.141 95.7578 338.812 96.9453C339.5 98.1328 340.031 99.5234 340.406 101.117C340.797 102.695 341.125 104.398 341.391 106.227V106.812C341.125 108.531 340.758 110.156 340.289 111.688C339.836 113.203 339.242 114.547 338.508 115.719C337.773 116.891 336.852 117.812 335.742 118.484C334.648 119.141 333.336 119.469 331.805 119.469C330.211 119.469 328.773 119.148 327.492 118.508C326.227 117.867 325.141 116.969 324.234 115.812C323.344 114.656 322.656 113.297 322.172 111.734C321.703 110.172 321.469 108.469 321.469 106.625ZM329.367 106.133V106.625C329.367 107.578 329.453 108.461 329.625 109.273C329.812 110.086 330.094 110.805 330.469 111.43C330.844 112.039 331.305 112.516 331.852 112.859C332.414 113.203 333.07 113.375 333.82 113.375C334.961 113.375 335.883 113.133 336.586 112.648C337.289 112.164 337.797 111.477 338.109 110.586C338.422 109.695 338.555 108.648 338.508 107.445V105.594C338.539 104.562 338.469 103.656 338.297 102.875C338.125 102.078 337.852 101.414 337.477 100.883C337.117 100.352 336.633 99.9531 336.023 99.6875C335.43 99.4062 334.711 99.2656 333.867 99.2656C333.133 99.2656 332.484 99.4375 331.922 99.7812C331.359 100.125 330.891 100.609 330.516 101.234C330.141 101.844 329.852 102.57 329.648 103.414C329.461 104.242 329.367 105.148 329.367 106.133Z" fill="black"/>
<path d="M1134 0H1348C1356.28 0 1363 6.71573 1363 15V148C1363 156.284 1356.28 163 1348 163H1134V0Z" fill="#3DA35D"/>
<path fill-rule="evenodd" clip-rule="evenodd" d="M1202.75 46.5018C1202.75 45.3973 1203.65 44.5018 1204.75 44.5018H1292.25C1293.35 44.5018 1294.25 45.3973 1294.25 46.5018V116.498C1294.25 117.603 1293.35 118.498 1292.25 118.498H1204.75C1203.65 118.498 1202.75 117.603 1202.75 116.498V46.5018ZM1206.75 48.5018V52.9963H1290.25V48.5018H1206.75ZM1290.25 56.9963H1235.19V114.498H1290.25V56.9963ZM1231.19 114.498V56.9963H1206.75V114.498H1231.19Z" fill="white"/>
<path fill-rule="evenodd" clip-rule="evenodd" d="M1209.72 62.3022C1209.72 61.1976 1210.62 60.3022 1211.72 60.3022H1225.72C1226.83 60.3022 1227.72 61.1976 1227.72 62.3022V81.6974C1227.72 82.802 1226.83 83.6974 1225.72 83.6974H1211.72C1210.62 83.6974 1209.72 82.802 1209.72 81.6974V62.3022ZM1213.72 64.3022V79.6974H1223.72V64.3022H1213.72ZM1239.33 63.1982C1239.33 62.0936 1240.22 61.1982 1241.33 61.1982H1284.25C1285.36 61.1982 1286.25 62.0936 1286.25 63.1982V109.407C1286.25 110.511 1285.36 111.407 1284.25 111.407H1241.33C1240.22 111.407 1239.33 110.511 1239.33 109.407V63.1982ZM1243.33 65.1982V107.407H1282.25V65.1982H1243.33ZM1209.56 93.4381C1209.56 92.3336 1210.46 91.4381 1211.56 91.4381H1220.48C1221.59 91.4381 1222.48 92.3336 1222.48 93.4381C1222.48 94.5427 1221.59 95.4381 1220.48 95.4381H1211.56C1210.46 95.4381 1209.56 94.5427 1209.56 93.4381ZM1209.56 100.438C1209.56 99.3335 1210.46 98.4381 1211.56 98.4381H1226.1C1227.21 98.4381 1228.1 99.3335 1228.1 100.438C1228.1 101.543 1227.21 102.438 1226.1 102.438H1211.56C1210.46 102.438 1209.56 101.543 1209.56 100.438ZM1209.56 107.438C1209.56 106.334 1210.46 105.438 1211.56 105.438H1220.48C1221.59 105.438 1222.48 106.334 1222.48 107.438C1222.48 108.543 1221.59 109.438 1220.48 109.438H1211.56C1210.46 109.438 1209.56 108.543 1209.56 107.438Z" fill="white"/>
</svg>
