<svg width="1363" height="163" viewBox="0 0 1363 163" fill="none" xmlns="http://www.w3.org/2000/svg">
<path d="M0 15C0 6.71573 6.71573 0 15 0H37V163H15C6.71573 163 0 156.284 0 148V15Z" fill="#424242"/>
<rect width="1097" height="163" transform="translate(37)" fill="#F0F0F0"/>
<path d="M101.906 53.9219L94.3945 51.2383V48.0859L104.602 52.375V54.6367L101.906 53.9219ZM94.3945 56.1719L101.918 53.4297L104.602 52.7852V55.0352L94.3945 59.3242V56.1719ZM119.578 53.5117H115.195L115.172 51.0977H118.852C119.5 51.0977 120.031 51.0156 120.445 50.8516C120.859 50.6797 121.168 50.4336 121.371 50.1133C121.582 49.7852 121.688 49.3867 121.688 48.918C121.688 48.3867 121.586 47.957 121.383 47.6289C121.188 47.3008 120.879 47.0625 120.457 46.9141C120.043 46.7656 119.508 46.6914 118.852 46.6914H116.414V61H112.898V43.9375H118.852C119.844 43.9375 120.73 44.0312 121.512 44.2188C122.301 44.4062 122.969 44.6914 123.516 45.0742C124.062 45.457 124.48 45.9414 124.77 46.5273C125.059 47.1055 125.203 47.793 125.203 48.5898C125.203 49.293 125.043 49.9414 124.723 50.5352C124.41 51.1289 123.914 51.6133 123.234 51.9883C122.562 52.3633 121.684 52.5703 120.598 52.6094L119.578 53.5117ZM119.426 61H114.234L115.605 58.2578H119.426C120.043 58.2578 120.547 58.1602 120.938 57.9648C121.328 57.7617 121.617 57.4883 121.805 57.1445C121.992 56.8008 122.086 56.4062 122.086 55.9609C122.086 55.4609 122 55.0273 121.828 54.6602C121.664 54.293 121.398 54.0117 121.031 53.8164C120.664 53.6133 120.18 53.5117 119.578 53.5117H116.191L116.215 51.0977H120.434L121.242 52.0469C122.281 52.0312 123.117 52.2148 123.75 52.5977C124.391 52.9727 124.855 53.4609 125.145 54.0625C125.441 54.6641 125.59 55.3086 125.59 55.9961C125.59 57.0898 125.352 58.0117 124.875 58.7617C124.398 59.5039 123.699 60.0625 122.777 60.4375C121.863 60.8125 120.746 61 119.426 61ZM131.578 48.3203V61H128.191V48.3203H131.578ZM127.98 45.0156C127.98 44.5234 128.152 44.1172 128.496 43.7969C128.84 43.4766 129.301 43.3164 129.879 43.3164C130.449 43.3164 130.906 43.4766 131.25 43.7969C131.602 44.1172 131.777 44.5234 131.777 45.0156C131.777 45.5078 131.602 45.9141 131.25 46.2344C130.906 46.5547 130.449 46.7148 129.879 46.7148C129.301 46.7148 128.84 46.5547 128.496 46.2344C128.152 45.9141 127.98 45.5078 127.98 45.0156ZM137.672 51.0273V61H134.297V48.3203H137.461L137.672 51.0273ZM137.18 54.2148H136.266C136.266 53.2773 136.387 52.4336 136.629 51.6836C136.871 50.9258 137.211 50.2812 137.648 49.75C138.086 49.2109 138.605 48.8008 139.207 48.5195C139.816 48.2305 140.496 48.0859 141.246 48.0859C141.84 48.0859 142.383 48.1719 142.875 48.3438C143.367 48.5156 143.789 48.7891 144.141 49.1641C144.5 49.5391 144.773 50.0352 144.961 50.6523C145.156 51.2695 145.254 52.0234 145.254 52.9141V61H141.855V52.9023C141.855 52.3398 141.777 51.9023 141.621 51.5898C141.465 51.2773 141.234 51.0586 140.93 50.9336C140.633 50.8008 140.266 50.7344 139.828 50.7344C139.375 50.7344 138.98 50.8242 138.645 51.0039C138.316 51.1836 138.043 51.4336 137.824 51.7539C137.613 52.0664 137.453 52.4336 137.344 52.8555C137.234 53.2773 137.18 53.7305 137.18 54.2148ZM161.004 43.9375V61H157.5V43.9375H161.004ZM166.254 43.9375V46.6914H152.332V43.9375H166.254ZM170.602 51.0859V61H167.227V48.3203H170.402L170.602 51.0859ZM174.422 48.2383L174.363 51.3672C174.199 51.3438 174 51.3242 173.766 51.3086C173.539 51.2852 173.332 51.2734 173.145 51.2734C172.668 51.2734 172.254 51.3359 171.902 51.4609C171.559 51.5781 171.27 51.7539 171.035 51.9883C170.809 52.2227 170.637 52.5078 170.52 52.8438C170.41 53.1797 170.348 53.5625 170.332 53.9922L169.652 53.7812C169.652 52.9609 169.734 52.207 169.898 51.5195C170.062 50.8242 170.301 50.2188 170.613 49.7031C170.934 49.1875 171.324 48.7891 171.785 48.5078C172.246 48.2266 172.773 48.0859 173.367 48.0859C173.555 48.0859 173.746 48.1016 173.941 48.1328C174.137 48.1562 174.297 48.1914 174.422 48.2383ZM182.461 58.1406V52.4922C182.461 52.0859 182.395 51.7383 182.262 51.4492C182.129 51.1523 181.922 50.9219 181.641 50.7578C181.367 50.5938 181.012 50.5117 180.574 50.5117C180.199 50.5117 179.875 50.5781 179.602 50.7109C179.328 50.8359 179.117 51.0195 178.969 51.2617C178.82 51.4961 178.746 51.7734 178.746 52.0938H175.371C175.371 51.5547 175.496 51.043 175.746 50.5586C175.996 50.0742 176.359 49.6484 176.836 49.2812C177.312 48.9062 177.879 48.6133 178.535 48.4023C179.199 48.1914 179.941 48.0859 180.762 48.0859C181.746 48.0859 182.621 48.25 183.387 48.5781C184.152 48.9062 184.754 49.3984 185.191 50.0547C185.637 50.7109 185.859 51.5312 185.859 52.5156V57.9414C185.859 58.6367 185.902 59.207 185.988 59.6523C186.074 60.0898 186.199 60.4727 186.363 60.8008V61H182.953C182.789 60.6562 182.664 60.2266 182.578 59.7109C182.5 59.1875 182.461 58.6641 182.461 58.1406ZM182.906 53.2773L182.93 55.1875H181.043C180.598 55.1875 180.211 55.2383 179.883 55.3398C179.555 55.4414 179.285 55.5859 179.074 55.7734C178.863 55.9531 178.707 56.1641 178.605 56.4062C178.512 56.6484 178.465 56.9141 178.465 57.2031C178.465 57.4922 178.531 57.7539 178.664 57.9883C178.797 58.2148 178.988 58.3945 179.238 58.5273C179.488 58.6523 179.781 58.7148 180.117 58.7148C180.625 58.7148 181.066 58.6133 181.441 58.4102C181.816 58.207 182.105 57.957 182.309 57.6602C182.52 57.3633 182.629 57.082 182.637 56.8164L183.527 58.2461C183.402 58.5664 183.23 58.8984 183.012 59.2422C182.801 59.5859 182.531 59.9102 182.203 60.2148C181.875 60.5117 181.48 60.7578 181.02 60.9531C180.559 61.1406 180.012 61.2344 179.379 61.2344C178.574 61.2344 177.844 61.0742 177.188 60.7539C176.539 60.4258 176.023 59.9766 175.641 59.4062C175.266 58.8281 175.078 58.1719 175.078 57.4375C175.078 56.7734 175.203 56.1836 175.453 55.668C175.703 55.1523 176.07 54.7188 176.555 54.3672C177.047 54.0078 177.66 53.7383 178.395 53.5586C179.129 53.3711 179.98 53.2773 180.949 53.2773H182.906ZM193.699 58.5977C194.113 58.5977 194.48 58.5195 194.801 58.3633C195.121 58.1992 195.371 57.9727 195.551 57.6836C195.738 57.3867 195.836 57.0391 195.844 56.6406H199.02C199.012 57.5312 198.773 58.3242 198.305 59.0195C197.836 59.707 197.207 60.25 196.418 60.6484C195.629 61.0391 194.746 61.2344 193.77 61.2344C192.785 61.2344 191.926 61.0703 191.191 60.7422C190.465 60.4141 189.859 59.9609 189.375 59.3828C188.891 58.7969 188.527 58.1172 188.285 57.3438C188.043 56.5625 187.922 55.7266 187.922 54.8359V54.4961C187.922 53.5977 188.043 52.7617 188.285 51.9883C188.527 51.207 188.891 50.5273 189.375 49.9492C189.859 49.3633 190.465 48.9062 191.191 48.5781C191.918 48.25 192.77 48.0859 193.746 48.0859C194.785 48.0859 195.695 48.2852 196.477 48.6836C197.266 49.082 197.883 49.6523 198.328 50.3945C198.781 51.1289 199.012 52 199.02 53.0078H195.844C195.836 52.5859 195.746 52.2031 195.574 51.8594C195.41 51.5156 195.168 51.2422 194.848 51.0391C194.535 50.8281 194.148 50.7227 193.688 50.7227C193.195 50.7227 192.793 50.8281 192.48 51.0391C192.168 51.2422 191.926 51.5234 191.754 51.8828C191.582 52.2344 191.461 52.6367 191.391 53.0898C191.328 53.5352 191.297 54.0039 191.297 54.4961V54.8359C191.297 55.3281 191.328 55.8008 191.391 56.2539C191.453 56.707 191.57 57.1094 191.742 57.4609C191.922 57.8125 192.168 58.0898 192.48 58.293C192.793 58.4961 193.199 58.5977 193.699 58.5977ZM204.352 42.9883V61H200.977V42.9883H204.352ZM212.344 48.3203L206.836 54.6016L203.883 57.5898L202.652 55.1523L204.996 52.1758L208.289 48.3203H212.344ZM208.84 61L205.09 55.1406L207.422 53.1016L212.73 61H208.84ZM219.398 61.2344C218.414 61.2344 217.531 61.0781 216.75 60.7656C215.969 60.4453 215.305 60.0039 214.758 59.4414C214.219 58.8789 213.805 58.2266 213.516 57.4844C213.227 56.7344 213.082 55.9375 213.082 55.0938V54.625C213.082 53.6641 213.219 52.7852 213.492 51.9883C213.766 51.1914 214.156 50.5 214.664 49.9141C215.18 49.3281 215.805 48.8789 216.539 48.5664C217.273 48.2461 218.102 48.0859 219.023 48.0859C219.922 48.0859 220.719 48.2344 221.414 48.5312C222.109 48.8281 222.691 49.25 223.16 49.7969C223.637 50.3438 223.996 51 224.238 51.7656C224.48 52.5234 224.602 53.3672 224.602 54.2969V55.7031H214.523V53.4531H221.285V53.1953C221.285 52.7266 221.199 52.3086 221.027 51.9414C220.863 51.5664 220.613 51.2695 220.277 51.0508C219.941 50.832 219.512 50.7227 218.988 50.7227C218.543 50.7227 218.16 50.8203 217.84 51.0156C217.52 51.2109 217.258 51.4844 217.055 51.8359C216.859 52.1875 216.711 52.6016 216.609 53.0781C216.516 53.5469 216.469 54.0625 216.469 54.625V55.0938C216.469 55.6016 216.539 56.0703 216.68 56.5C216.828 56.9297 217.035 57.3008 217.301 57.6133C217.574 57.9258 217.902 58.168 218.285 58.3398C218.676 58.5117 219.117 58.5977 219.609 58.5977C220.219 58.5977 220.785 58.4805 221.309 58.2461C221.84 58.0039 222.297 57.6406 222.68 57.1562L224.32 58.9375C224.055 59.3203 223.691 59.6875 223.23 60.0391C222.777 60.3906 222.23 60.6797 221.59 60.9062C220.949 61.125 220.219 61.2344 219.398 61.2344ZM229.898 51.0859V61H226.523V48.3203H229.699L229.898 51.0859ZM233.719 48.2383L233.66 51.3672C233.496 51.3438 233.297 51.3242 233.062 51.3086C232.836 51.2852 232.629 51.2734 232.441 51.2734C231.965 51.2734 231.551 51.3359 231.199 51.4609C230.855 51.5781 230.566 51.7539 230.332 51.9883C230.105 52.2227 229.934 52.5078 229.816 52.8438C229.707 53.1797 229.645 53.5625 229.629 53.9922L228.949 53.7812C228.949 52.9609 229.031 52.207 229.195 51.5195C229.359 50.8242 229.598 50.2188 229.91 49.7031C230.23 49.1875 230.621 48.7891 231.082 48.5078C231.543 48.2266 232.07 48.0859 232.664 48.0859C232.852 48.0859 233.043 48.1016 233.238 48.1328C233.434 48.1562 233.594 48.1914 233.719 48.2383Z" fill="#888888"/>
<path d="M112.125 84.875V119H103.898V84.875H112.125ZM122.391 84.875V91.2266H93.8672V84.875H122.391ZM134.695 112.625V102.172C134.695 101.453 134.594 100.836 134.391 100.32C134.188 99.8047 133.867 99.4062 133.43 99.125C132.992 98.8281 132.406 98.6797 131.672 98.6797C131.078 98.6797 130.57 98.7812 130.148 98.9844C129.727 99.1875 129.406 99.4922 129.188 99.8984C128.969 100.305 128.859 100.82 128.859 101.445H120.961C120.961 100.273 121.219 99.1875 121.734 98.1875C122.266 97.1719 123.016 96.2891 123.984 95.5391C124.969 94.7891 126.141 94.2109 127.5 93.8047C128.875 93.3828 130.406 93.1719 132.094 93.1719C134.109 93.1719 135.906 93.5078 137.484 94.1797C139.078 94.8516 140.336 95.8594 141.258 97.2031C142.18 98.5312 142.641 100.203 142.641 102.219V112.602C142.641 114.258 142.734 115.516 142.922 116.375C143.109 117.219 143.375 117.961 143.719 118.602V119H135.797C135.422 118.219 135.141 117.266 134.953 116.141C134.781 115 134.695 113.828 134.695 112.625ZM135.656 103.508L135.703 107.727H132.211C131.477 107.727 130.852 107.828 130.336 108.031C129.836 108.234 129.43 108.516 129.117 108.875C128.82 109.219 128.602 109.609 128.461 110.047C128.336 110.484 128.273 110.945 128.273 111.43C128.273 111.898 128.383 112.32 128.602 112.695C128.836 113.055 129.148 113.336 129.539 113.539C129.93 113.742 130.367 113.844 130.852 113.844C131.727 113.844 132.469 113.68 133.078 113.352C133.703 113.008 134.18 112.594 134.508 112.109C134.836 111.625 135 111.172 135 110.75L136.734 113.984C136.422 114.609 136.062 115.242 135.656 115.883C135.266 116.523 134.773 117.117 134.18 117.664C133.602 118.195 132.891 118.633 132.047 118.977C131.203 119.305 130.18 119.469 128.977 119.469C127.414 119.469 125.977 119.148 124.664 118.508C123.367 117.867 122.328 116.977 121.547 115.836C120.766 114.68 120.375 113.352 120.375 111.852C120.375 110.539 120.609 109.367 121.078 108.336C121.562 107.305 122.289 106.43 123.258 105.711C124.227 104.992 125.461 104.445 126.961 104.07C128.461 103.695 130.227 103.508 132.258 103.508H135.656ZM147.094 83H154.992V112.766L154.172 119H147.094V83ZM170.555 106.039V106.531C170.555 108.453 170.359 110.203 169.969 111.781C169.578 113.359 168.977 114.727 168.164 115.883C167.352 117.023 166.328 117.906 165.094 118.531C163.859 119.156 162.398 119.469 160.711 119.469C159.18 119.469 157.867 119.141 156.773 118.484C155.68 117.812 154.766 116.891 154.031 115.719C153.297 114.531 152.703 113.164 152.25 111.617C151.797 110.055 151.438 108.383 151.172 106.602V106.016C151.438 104.25 151.797 102.594 152.25 101.047C152.703 99.4844 153.297 98.1172 154.031 96.9453C154.766 95.7578 155.672 94.8359 156.75 94.1797C157.844 93.5078 159.148 93.1719 160.664 93.1719C162.367 93.1719 163.836 93.4922 165.07 94.1328C166.32 94.7734 167.352 95.6719 168.164 96.8281C168.977 97.9844 169.578 99.3438 169.969 100.906C170.359 102.469 170.555 104.18 170.555 106.039ZM162.656 106.531V106.039C162.656 105.117 162.602 104.25 162.492 103.438C162.383 102.625 162.188 101.906 161.906 101.281C161.625 100.656 161.227 100.164 160.711 99.8047C160.195 99.4453 159.523 99.2656 158.695 99.2656C157.852 99.2656 157.141 99.4062 156.562 99.6875C156 99.9688 155.547 100.375 155.203 100.906C154.875 101.422 154.641 102.062 154.5 102.828C154.359 103.578 154.297 104.43 154.312 105.383V107.234C154.281 108.531 154.398 109.641 154.664 110.562C154.93 111.484 155.391 112.188 156.047 112.672C156.703 113.156 157.602 113.398 158.742 113.398C159.586 113.398 160.266 113.234 160.781 112.906C161.312 112.578 161.711 112.109 161.977 111.5C162.242 110.891 162.422 110.164 162.516 109.32C162.609 108.477 162.656 107.547 162.656 106.531ZM182.414 83V119H174.492V83H182.414ZM199.57 119.469C197.508 119.469 195.664 119.148 194.039 118.508C192.414 117.852 191.039 116.953 189.914 115.812C188.805 114.672 187.953 113.359 187.359 111.875C186.781 110.391 186.492 108.82 186.492 107.164V106.273C186.492 104.414 186.75 102.695 187.266 101.117C187.781 99.5234 188.547 98.1328 189.562 96.9453C190.578 95.7578 191.852 94.8359 193.383 94.1797C194.914 93.5078 196.695 93.1719 198.727 93.1719C200.523 93.1719 202.133 93.4609 203.555 94.0391C204.977 94.6172 206.18 95.4453 207.164 96.5234C208.164 97.6016 208.922 98.9062 209.438 100.438C209.969 101.969 210.234 103.688 210.234 105.594V108.805H189.516V103.859H202.523V103.25C202.539 102.406 202.391 101.688 202.078 101.094C201.781 100.5 201.344 100.047 200.766 99.7344C200.188 99.4219 199.484 99.2656 198.656 99.2656C197.797 99.2656 197.086 99.4531 196.523 99.8281C195.977 100.203 195.547 100.719 195.234 101.375C194.938 102.016 194.727 102.758 194.602 103.602C194.477 104.445 194.414 105.336 194.414 106.273V107.164C194.414 108.102 194.539 108.953 194.789 109.719C195.055 110.484 195.43 111.141 195.914 111.688C196.414 112.219 197.008 112.633 197.695 112.93C198.398 113.227 199.195 113.375 200.086 113.375C201.164 113.375 202.227 113.172 203.273 112.766C204.32 112.359 205.219 111.688 205.969 110.75L209.555 115.016C209.039 115.75 208.305 116.461 207.352 117.148C206.414 117.836 205.289 118.398 203.977 118.836C202.664 119.258 201.195 119.469 199.57 119.469ZM224.414 106.578V106.086C224.414 104.227 224.68 102.516 225.211 100.953C225.742 99.375 226.523 98.0078 227.555 96.8516C228.586 95.6953 229.859 94.7969 231.375 94.1562C232.891 93.5 234.641 93.1719 236.625 93.1719C238.625 93.1719 240.383 93.5 241.898 94.1562C243.43 94.7969 244.711 95.6953 245.742 96.8516C246.773 98.0078 247.555 99.375 248.086 100.953C248.617 102.516 248.883 104.227 248.883 106.086V106.578C248.883 108.422 248.617 110.133 248.086 111.711C247.555 113.273 246.773 114.641 245.742 115.812C244.711 116.969 243.438 117.867 241.922 118.508C240.406 119.148 238.656 119.469 236.672 119.469C234.688 119.469 232.93 119.148 231.398 118.508C229.867 117.867 228.586 116.969 227.555 115.812C226.523 114.641 225.742 113.273 225.211 111.711C224.68 110.133 224.414 108.422 224.414 106.578ZM232.312 106.086V106.578C232.312 107.531 232.383 108.422 232.523 109.25C232.664 110.078 232.898 110.805 233.227 111.43C233.555 112.039 234 112.516 234.562 112.859C235.125 113.203 235.828 113.375 236.672 113.375C237.5 113.375 238.188 113.203 238.734 112.859C239.297 112.516 239.742 112.039 240.07 111.43C240.398 110.805 240.633 110.078 240.773 109.25C240.914 108.422 240.984 107.531 240.984 106.578V106.086C240.984 105.164 240.914 104.297 240.773 103.484C240.633 102.656 240.398 101.93 240.07 101.305C239.742 100.664 239.297 100.164 238.734 99.8047C238.172 99.4453 237.469 99.2656 236.625 99.2656C235.797 99.2656 235.102 99.4453 234.539 99.8047C233.992 100.164 233.555 100.664 233.227 101.305C232.898 101.93 232.664 102.656 232.523 103.484C232.383 104.297 232.312 105.164 232.312 106.086ZM262.078 119H254.133V91.5781C254.133 89.6094 254.531 87.9531 255.328 86.6094C256.125 85.2656 257.25 84.25 258.703 83.5625C260.156 82.8594 261.875 82.5078 263.859 82.5078C264.547 82.5078 265.195 82.5547 265.805 82.6484C266.414 82.7422 267.008 82.8594 267.586 83L267.609 88.8125C267.328 88.7344 267.039 88.6797 266.742 88.6484C266.445 88.6172 266.078 88.6016 265.641 88.6016C264.875 88.6016 264.227 88.7188 263.695 88.9531C263.164 89.1719 262.758 89.5078 262.477 89.9609C262.211 90.3984 262.078 90.9375 262.078 91.5781V119ZM267 93.6406V99.125H250.477V93.6406H267ZM301.57 107.445H309.773C309.664 109.82 309.023 111.914 307.852 113.727C306.68 115.539 305.055 116.953 302.977 117.969C300.914 118.969 298.477 119.469 295.664 119.469C293.383 119.469 291.344 119.086 289.547 118.32C287.766 117.555 286.25 116.453 285 115.016C283.766 113.578 282.82 111.836 282.164 109.789C281.523 107.742 281.203 105.438 281.203 102.875V101.023C281.203 98.4609 281.539 96.1562 282.211 94.1094C282.898 92.0469 283.867 90.2969 285.117 88.8594C286.383 87.4062 287.898 86.2969 289.664 85.5312C291.43 84.7656 293.391 84.3828 295.547 84.3828C298.516 84.3828 301.023 84.9141 303.07 85.9766C305.117 87.0391 306.703 88.5 307.828 90.3594C308.953 92.2031 309.617 94.3047 309.82 96.6641H301.617C301.586 95.3828 301.367 94.3125 300.961 93.4531C300.555 92.5781 299.914 91.9219 299.039 91.4844C298.164 91.0469 297 90.8281 295.547 90.8281C294.531 90.8281 293.648 91.0156 292.898 91.3906C292.148 91.7656 291.523 92.3594 291.023 93.1719C290.523 93.9844 290.148 95.0391 289.898 96.3359C289.664 97.6172 289.547 99.1641 289.547 100.977V102.875C289.547 104.688 289.656 106.234 289.875 107.516C290.094 108.797 290.445 109.844 290.93 110.656C291.414 111.469 292.039 112.07 292.805 112.461C293.586 112.836 294.539 113.023 295.664 113.023C296.914 113.023 297.969 112.828 298.828 112.438C299.688 112.031 300.352 111.422 300.82 110.609C301.289 109.781 301.539 108.727 301.57 107.445ZM312.305 106.578V106.086C312.305 104.227 312.57 102.516 313.102 100.953C313.633 99.375 314.414 98.0078 315.445 96.8516C316.477 95.6953 317.75 94.7969 319.266 94.1562C320.781 93.5 322.531 93.1719 324.516 93.1719C326.516 93.1719 328.273 93.5 329.789 94.1562C331.32 94.7969 332.602 95.6953 333.633 96.8516C334.664 98.0078 335.445 99.375 335.977 100.953C336.508 102.516 336.773 104.227 336.773 106.086V106.578C336.773 108.422 336.508 110.133 335.977 111.711C335.445 113.273 334.664 114.641 333.633 115.812C332.602 116.969 331.328 117.867 329.812 118.508C328.297 119.148 326.547 119.469 324.562 119.469C322.578 119.469 320.82 119.148 319.289 118.508C317.758 117.867 316.477 116.969 315.445 115.812C314.414 114.641 313.633 113.273 313.102 111.711C312.57 110.133 312.305 108.422 312.305 106.578ZM320.203 106.086V106.578C320.203 107.531 320.273 108.422 320.414 109.25C320.555 110.078 320.789 110.805 321.117 111.43C321.445 112.039 321.891 112.516 322.453 112.859C323.016 113.203 323.719 113.375 324.562 113.375C325.391 113.375 326.078 113.203 326.625 112.859C327.188 112.516 327.633 112.039 327.961 111.43C328.289 110.805 328.523 110.078 328.664 109.25C328.805 108.422 328.875 107.531 328.875 106.578V106.086C328.875 105.164 328.805 104.297 328.664 103.484C328.523 102.656 328.289 101.93 327.961 101.305C327.633 100.664 327.188 100.164 326.625 99.8047C326.062 99.4453 325.359 99.2656 324.516 99.2656C323.688 99.2656 322.992 99.4453 322.43 99.8047C321.883 100.164 321.445 100.664 321.117 101.305C320.789 101.93 320.555 102.656 320.414 103.484C320.273 104.297 320.203 105.164 320.203 106.086ZM348.047 99.0547V119H340.148V93.6406H347.555L348.047 99.0547ZM347.109 105.453L345.258 105.5C345.258 103.562 345.492 101.836 345.961 100.32C346.43 98.7891 347.094 97.4922 347.953 96.4297C348.812 95.3672 349.836 94.5625 351.023 94.0156C352.227 93.4531 353.562 93.1719 355.031 93.1719C356.203 93.1719 357.273 93.3438 358.242 93.6875C359.227 94.0312 360.07 94.5859 360.773 95.3516C361.492 96.1172 362.039 97.1328 362.414 98.3984C362.805 99.6484 363 101.195 363 103.039V119H355.055V103.016C355.055 102 354.914 101.227 354.633 100.695C354.352 100.148 353.945 99.7734 353.414 99.5703C352.883 99.3672 352.234 99.2656 351.469 99.2656C350.656 99.2656 349.969 99.4219 349.406 99.7344C348.844 100.047 348.391 100.484 348.047 101.047C347.719 101.594 347.477 102.242 347.32 102.992C347.18 103.742 347.109 104.562 347.109 105.453ZM380.742 93.6406V99.125H365.461V93.6406H380.742ZM368.672 87.3359H376.57V110.727C376.57 111.398 376.648 111.922 376.805 112.297C376.961 112.656 377.227 112.914 377.602 113.07C377.992 113.211 378.508 113.281 379.148 113.281C379.602 113.281 379.977 113.273 380.273 113.258C380.57 113.227 380.852 113.188 381.117 113.141V118.789C380.445 119.008 379.742 119.172 379.008 119.281C378.273 119.406 377.492 119.469 376.664 119.469C374.977 119.469 373.531 119.203 372.328 118.672C371.141 118.141 370.234 117.305 369.609 116.164C368.984 115.023 368.672 113.539 368.672 111.711V87.3359ZM396.164 119.469C394.102 119.469 392.258 119.148 390.633 118.508C389.008 117.852 387.633 116.953 386.508 115.812C385.398 114.672 384.547 113.359 383.953 111.875C383.375 110.391 383.086 108.82 383.086 107.164V106.273C383.086 104.414 383.344 102.695 383.859 101.117C384.375 99.5234 385.141 98.1328 386.156 96.9453C387.172 95.7578 388.445 94.8359 389.977 94.1797C391.508 93.5078 393.289 93.1719 395.32 93.1719C397.117 93.1719 398.727 93.4609 400.148 94.0391C401.57 94.6172 402.773 95.4453 403.758 96.5234C404.758 97.6016 405.516 98.9062 406.031 100.438C406.562 101.969 406.828 103.688 406.828 105.594V108.805H386.109V103.859H399.117V103.25C399.133 102.406 398.984 101.688 398.672 101.094C398.375 100.5 397.938 100.047 397.359 99.7344C396.781 99.4219 396.078 99.2656 395.25 99.2656C394.391 99.2656 393.68 99.4531 393.117 99.8281C392.57 100.203 392.141 100.719 391.828 101.375C391.531 102.016 391.32 102.758 391.195 103.602C391.07 104.445 391.008 105.336 391.008 106.273V107.164C391.008 108.102 391.133 108.953 391.383 109.719C391.648 110.484 392.023 111.141 392.508 111.688C393.008 112.219 393.602 112.633 394.289 112.93C394.992 113.227 395.789 113.375 396.68 113.375C397.758 113.375 398.82 113.172 399.867 112.766C400.914 112.359 401.812 111.688 402.562 110.75L406.148 115.016C405.633 115.75 404.898 116.461 403.945 117.148C403.008 117.836 401.883 118.398 400.57 118.836C399.258 119.258 397.789 119.469 396.164 119.469ZM417.797 99.0547V119H409.898V93.6406H417.305L417.797 99.0547ZM416.859 105.453L415.008 105.5C415.008 103.562 415.242 101.836 415.711 100.32C416.18 98.7891 416.844 97.4922 417.703 96.4297C418.562 95.3672 419.586 94.5625 420.773 94.0156C421.977 93.4531 423.312 93.1719 424.781 93.1719C425.953 93.1719 427.023 93.3438 427.992 93.6875C428.977 94.0312 429.82 94.5859 430.523 95.3516C431.242 96.1172 431.789 97.1328 432.164 98.3984C432.555 99.6484 432.75 101.195 432.75 103.039V119H424.805V103.016C424.805 102 424.664 101.227 424.383 100.695C424.102 100.148 423.695 99.7734 423.164 99.5703C422.633 99.3672 421.984 99.2656 421.219 99.2656C420.406 99.2656 419.719 99.4219 419.156 99.7344C418.594 100.047 418.141 100.484 417.797 101.047C417.469 101.594 417.227 102.242 417.07 102.992C416.93 103.742 416.859 104.562 416.859 105.453ZM450.492 93.6406V99.125H435.211V93.6406H450.492ZM438.422 87.3359H446.32V110.727C446.32 111.398 446.398 111.922 446.555 112.297C446.711 112.656 446.977 112.914 447.352 113.07C447.742 113.211 448.258 113.281 448.898 113.281C449.352 113.281 449.727 113.273 450.023 113.258C450.32 113.227 450.602 113.188 450.867 113.141V118.789C450.195 119.008 449.492 119.172 448.758 119.281C448.023 119.406 447.242 119.469 446.414 119.469C444.727 119.469 443.281 119.203 442.078 118.672C440.891 118.141 439.984 117.305 439.359 116.164C438.734 115.023 438.422 113.539 438.422 111.711V87.3359ZM466.922 111.875C466.922 111.438 466.773 111.062 466.477 110.75C466.195 110.422 465.695 110.125 464.977 109.859C464.258 109.578 463.25 109.297 461.953 109.016C460.719 108.75 459.555 108.398 458.461 107.961C457.383 107.523 456.438 106.992 455.625 106.367C454.812 105.742 454.172 105 453.703 104.141C453.25 103.281 453.023 102.297 453.023 101.188C453.023 100.109 453.25 99.0938 453.703 98.1406C454.172 97.1719 454.852 96.3203 455.742 95.5859C456.648 94.8359 457.75 94.25 459.047 93.8281C460.344 93.3906 461.82 93.1719 463.477 93.1719C465.758 93.1719 467.727 93.5234 469.383 94.2266C471.039 94.9141 472.312 95.8828 473.203 97.1328C474.109 98.3672 474.562 99.7969 474.562 101.422H466.664C466.664 100.781 466.555 100.234 466.336 99.7812C466.133 99.3281 465.797 98.9844 465.328 98.75C464.859 98.5 464.234 98.375 463.453 98.375C462.906 98.375 462.406 98.4766 461.953 98.6797C461.516 98.8828 461.164 99.1641 460.898 99.5234C460.633 99.8828 460.5 100.305 460.5 100.789C460.5 101.133 460.578 101.445 460.734 101.727C460.906 101.992 461.164 102.242 461.508 102.477C461.852 102.695 462.289 102.898 462.82 103.086C463.352 103.258 463.992 103.414 464.742 103.555C466.445 103.867 468.039 104.312 469.523 104.891C471.008 105.469 472.211 106.289 473.133 107.352C474.07 108.414 474.539 109.844 474.539 111.641C474.539 112.766 474.281 113.805 473.766 114.758C473.25 115.695 472.508 116.523 471.539 117.242C470.57 117.945 469.406 118.492 468.047 118.883C466.688 119.273 465.156 119.469 463.453 119.469C461.031 119.469 458.984 119.039 457.312 118.18C455.641 117.305 454.375 116.211 453.516 114.898C452.672 113.57 452.25 112.227 452.25 110.867H459.609C459.641 111.648 459.828 112.289 460.172 112.789C460.531 113.289 461.008 113.656 461.602 113.891C462.195 114.125 462.883 114.242 463.664 114.242C464.383 114.242 464.977 114.141 465.445 113.938C465.93 113.734 466.297 113.461 466.547 113.117C466.797 112.758 466.922 112.344 466.922 111.875Z" fill="black"/>
<path d="M1134 0H1348C1356.28 0 1363 6.71573 1363 15V148C1363 156.284 1356.28 163 1348 163H1134V0Z" fill="#3DA35D"/>
<mask id="mask0_401_272" style="mask-type:alpha" maskUnits="userSpaceOnUse" x="1209" y="42" width="79" height="79">
<rect x="1209" y="42" width="79" height="79" fill="white"/>
</mask>
<g mask="url(#mask0_401_272)">
<path d="M1238.63 104.542V97.9583H1278.13V104.542H1238.63ZM1238.63 84.7917V78.2083H1278.13V84.7917H1238.63ZM1238.63 65.0417V58.4583H1278.13V65.0417H1238.63ZM1225.46 107.833C1223.65 107.833 1222.1 107.189 1220.81 105.899C1219.52 104.61 1218.88 103.06 1218.88 101.25C1218.88 99.4396 1219.52 97.8897 1220.81 96.6005C1222.1 95.3113 1223.65 94.6667 1225.46 94.6667C1227.27 94.6667 1228.82 95.3113 1230.11 96.6005C1231.4 97.8897 1232.04 99.4396 1232.04 101.25C1232.04 103.06 1231.4 104.61 1230.11 105.899C1228.82 107.189 1227.27 107.833 1225.46 107.833ZM1225.46 88.0833C1223.65 88.0833 1222.1 87.4387 1220.81 86.1495C1219.52 84.8602 1218.88 83.3104 1218.88 81.5C1218.88 79.6896 1219.52 78.1397 1220.81 76.8505C1222.1 75.5613 1223.65 74.9167 1225.46 74.9167C1227.27 74.9167 1228.82 75.5613 1230.11 76.8505C1231.4 78.1397 1232.04 79.6896 1232.04 81.5C1232.04 83.3104 1231.4 84.8602 1230.11 86.1495C1228.82 87.4387 1227.27 88.0833 1225.46 88.0833ZM1225.46 68.3333C1223.65 68.3333 1222.1 67.6887 1220.81 66.3995C1219.52 65.1102 1218.88 63.5604 1218.88 61.75C1218.88 59.9396 1219.52 58.3897 1220.81 57.1005C1222.1 55.8113 1223.65 55.1667 1225.46 55.1667C1227.27 55.1667 1228.82 55.8113 1230.11 57.1005C1231.4 58.3897 1232.04 59.9396 1232.04 61.75C1232.04 63.5604 1231.4 65.1102 1230.11 66.3995C1228.82 67.6887 1227.27 68.3333 1225.46 68.3333Z" fill="white"/>
</g>
</svg>
