<svg width="1363" height="163" viewBox="0 0 1363 163" fill="none" xmlns="http://www.w3.org/2000/svg">
<path d="M0 15C0 6.71573 6.71573 0 15 0H37V163H15C6.71573 163 0 156.284 0 148V15Z" fill="#424242"/>
<rect width="1097" height="163" transform="translate(37)" fill="#F0F0F0"/>
<path d="M101.906 53.9219L94.3945 51.2383V48.0859L104.602 52.375V54.6367L101.906 53.9219ZM94.3945 56.1719L101.918 53.4297L104.602 52.7852V55.0352L94.3945 59.3242V56.1719ZM119.578 53.5117H115.195L115.172 51.0977H118.852C119.5 51.0977 120.031 51.0156 120.445 50.8516C120.859 50.6797 121.168 50.4336 121.371 50.1133C121.582 49.7852 121.688 49.3867 121.688 48.918C121.688 48.3867 121.586 47.957 121.383 47.6289C121.188 47.3008 120.879 47.0625 120.457 46.9141C120.043 46.7656 119.508 46.6914 118.852 46.6914H116.414V61H112.898V43.9375H118.852C119.844 43.9375 120.73 44.0312 121.512 44.2188C122.301 44.4062 122.969 44.6914 123.516 45.0742C124.062 45.457 124.48 45.9414 124.77 46.5273C125.059 47.1055 125.203 47.793 125.203 48.5898C125.203 49.293 125.043 49.9414 124.723 50.5352C124.41 51.1289 123.914 51.6133 123.234 51.9883C122.562 52.3633 121.684 52.5703 120.598 52.6094L119.578 53.5117ZM119.426 61H114.234L115.605 58.2578H119.426C120.043 58.2578 120.547 58.1602 120.938 57.9648C121.328 57.7617 121.617 57.4883 121.805 57.1445C121.992 56.8008 122.086 56.4062 122.086 55.9609C122.086 55.4609 122 55.0273 121.828 54.6602C121.664 54.293 121.398 54.0117 121.031 53.8164C120.664 53.6133 120.18 53.5117 119.578 53.5117H116.191L116.215 51.0977H120.434L121.242 52.0469C122.281 52.0312 123.117 52.2148 123.75 52.5977C124.391 52.9727 124.855 53.4609 125.145 54.0625C125.441 54.6641 125.59 55.3086 125.59 55.9961C125.59 57.0898 125.352 58.0117 124.875 58.7617C124.398 59.5039 123.699 60.0625 122.777 60.4375C121.863 60.8125 120.746 61 119.426 61ZM131.578 48.3203V61H128.191V48.3203H131.578ZM127.98 45.0156C127.98 44.5234 128.152 44.1172 128.496 43.7969C128.84 43.4766 129.301 43.3164 129.879 43.3164C130.449 43.3164 130.906 43.4766 131.25 43.7969C131.602 44.1172 131.777 44.5234 131.777 45.0156C131.777 45.5078 131.602 45.9141 131.25 46.2344C130.906 46.5547 130.449 46.7148 129.879 46.7148C129.301 46.7148 128.84 46.5547 128.496 46.2344C128.152 45.9141 127.98 45.5078 127.98 45.0156ZM137.672 51.0273V61H134.297V48.3203H137.461L137.672 51.0273ZM137.18 54.2148H136.266C136.266 53.2773 136.387 52.4336 136.629 51.6836C136.871 50.9258 137.211 50.2812 137.648 49.75C138.086 49.2109 138.605 48.8008 139.207 48.5195C139.816 48.2305 140.496 48.0859 141.246 48.0859C141.84 48.0859 142.383 48.1719 142.875 48.3438C143.367 48.5156 143.789 48.7891 144.141 49.1641C144.5 49.5391 144.773 50.0352 144.961 50.6523C145.156 51.2695 145.254 52.0234 145.254 52.9141V61H141.855V52.9023C141.855 52.3398 141.777 51.9023 141.621 51.5898C141.465 51.2773 141.234 51.0586 140.93 50.9336C140.633 50.8008 140.266 50.7344 139.828 50.7344C139.375 50.7344 138.98 50.8242 138.645 51.0039C138.316 51.1836 138.043 51.4336 137.824 51.7539C137.613 52.0664 137.453 52.4336 137.344 52.8555C137.234 53.2773 137.18 53.7305 137.18 54.2148ZM161.004 43.9375V61H157.5V43.9375H161.004ZM166.254 43.9375V46.6914H152.332V43.9375H166.254ZM170.602 51.0859V61H167.227V48.3203H170.402L170.602 51.0859ZM174.422 48.2383L174.363 51.3672C174.199 51.3438 174 51.3242 173.766 51.3086C173.539 51.2852 173.332 51.2734 173.145 51.2734C172.668 51.2734 172.254 51.3359 171.902 51.4609C171.559 51.5781 171.27 51.7539 171.035 51.9883C170.809 52.2227 170.637 52.5078 170.52 52.8438C170.41 53.1797 170.348 53.5625 170.332 53.9922L169.652 53.7812C169.652 52.9609 169.734 52.207 169.898 51.5195C170.062 50.8242 170.301 50.2188 170.613 49.7031C170.934 49.1875 171.324 48.7891 171.785 48.5078C172.246 48.2266 172.773 48.0859 173.367 48.0859C173.555 48.0859 173.746 48.1016 173.941 48.1328C174.137 48.1562 174.297 48.1914 174.422 48.2383ZM182.461 58.1406V52.4922C182.461 52.0859 182.395 51.7383 182.262 51.4492C182.129 51.1523 181.922 50.9219 181.641 50.7578C181.367 50.5938 181.012 50.5117 180.574 50.5117C180.199 50.5117 179.875 50.5781 179.602 50.7109C179.328 50.8359 179.117 51.0195 178.969 51.2617C178.82 51.4961 178.746 51.7734 178.746 52.0938H175.371C175.371 51.5547 175.496 51.043 175.746 50.5586C175.996 50.0742 176.359 49.6484 176.836 49.2812C177.312 48.9062 177.879 48.6133 178.535 48.4023C179.199 48.1914 179.941 48.0859 180.762 48.0859C181.746 48.0859 182.621 48.25 183.387 48.5781C184.152 48.9062 184.754 49.3984 185.191 50.0547C185.637 50.7109 185.859 51.5312 185.859 52.5156V57.9414C185.859 58.6367 185.902 59.207 185.988 59.6523C186.074 60.0898 186.199 60.4727 186.363 60.8008V61H182.953C182.789 60.6562 182.664 60.2266 182.578 59.7109C182.5 59.1875 182.461 58.6641 182.461 58.1406ZM182.906 53.2773L182.93 55.1875H181.043C180.598 55.1875 180.211 55.2383 179.883 55.3398C179.555 55.4414 179.285 55.5859 179.074 55.7734C178.863 55.9531 178.707 56.1641 178.605 56.4062C178.512 56.6484 178.465 56.9141 178.465 57.2031C178.465 57.4922 178.531 57.7539 178.664 57.9883C178.797 58.2148 178.988 58.3945 179.238 58.5273C179.488 58.6523 179.781 58.7148 180.117 58.7148C180.625 58.7148 181.066 58.6133 181.441 58.4102C181.816 58.207 182.105 57.957 182.309 57.6602C182.52 57.3633 182.629 57.082 182.637 56.8164L183.527 58.2461C183.402 58.5664 183.23 58.8984 183.012 59.2422C182.801 59.5859 182.531 59.9102 182.203 60.2148C181.875 60.5117 181.48 60.7578 181.02 60.9531C180.559 61.1406 180.012 61.2344 179.379 61.2344C178.574 61.2344 177.844 61.0742 177.188 60.7539C176.539 60.4258 176.023 59.9766 175.641 59.4062C175.266 58.8281 175.078 58.1719 175.078 57.4375C175.078 56.7734 175.203 56.1836 175.453 55.668C175.703 55.1523 176.07 54.7188 176.555 54.3672C177.047 54.0078 177.66 53.7383 178.395 53.5586C179.129 53.3711 179.98 53.2773 180.949 53.2773H182.906ZM193.699 58.5977C194.113 58.5977 194.48 58.5195 194.801 58.3633C195.121 58.1992 195.371 57.9727 195.551 57.6836C195.738 57.3867 195.836 57.0391 195.844 56.6406H199.02C199.012 57.5312 198.773 58.3242 198.305 59.0195C197.836 59.707 197.207 60.25 196.418 60.6484C195.629 61.0391 194.746 61.2344 193.77 61.2344C192.785 61.2344 191.926 61.0703 191.191 60.7422C190.465 60.4141 189.859 59.9609 189.375 59.3828C188.891 58.7969 188.527 58.1172 188.285 57.3438C188.043 56.5625 187.922 55.7266 187.922 54.8359V54.4961C187.922 53.5977 188.043 52.7617 188.285 51.9883C188.527 51.207 188.891 50.5273 189.375 49.9492C189.859 49.3633 190.465 48.9062 191.191 48.5781C191.918 48.25 192.77 48.0859 193.746 48.0859C194.785 48.0859 195.695 48.2852 196.477 48.6836C197.266 49.082 197.883 49.6523 198.328 50.3945C198.781 51.1289 199.012 52 199.02 53.0078H195.844C195.836 52.5859 195.746 52.2031 195.574 51.8594C195.41 51.5156 195.168 51.2422 194.848 51.0391C194.535 50.8281 194.148 50.7227 193.688 50.7227C193.195 50.7227 192.793 50.8281 192.48 51.0391C192.168 51.2422 191.926 51.5234 191.754 51.8828C191.582 52.2344 191.461 52.6367 191.391 53.0898C191.328 53.5352 191.297 54.0039 191.297 54.4961V54.8359C191.297 55.3281 191.328 55.8008 191.391 56.2539C191.453 56.707 191.57 57.1094 191.742 57.4609C191.922 57.8125 192.168 58.0898 192.48 58.293C192.793 58.4961 193.199 58.5977 193.699 58.5977ZM204.352 42.9883V61H200.977V42.9883H204.352ZM212.344 48.3203L206.836 54.6016L203.883 57.5898L202.652 55.1523L204.996 52.1758L208.289 48.3203H212.344ZM208.84 61L205.09 55.1406L207.422 53.1016L212.73 61H208.84ZM219.398 61.2344C218.414 61.2344 217.531 61.0781 216.75 60.7656C215.969 60.4453 215.305 60.0039 214.758 59.4414C214.219 58.8789 213.805 58.2266 213.516 57.4844C213.227 56.7344 213.082 55.9375 213.082 55.0938V54.625C213.082 53.6641 213.219 52.7852 213.492 51.9883C213.766 51.1914 214.156 50.5 214.664 49.9141C215.18 49.3281 215.805 48.8789 216.539 48.5664C217.273 48.2461 218.102 48.0859 219.023 48.0859C219.922 48.0859 220.719 48.2344 221.414 48.5312C222.109 48.8281 222.691 49.25 223.16 49.7969C223.637 50.3438 223.996 51 224.238 51.7656C224.48 52.5234 224.602 53.3672 224.602 54.2969V55.7031H214.523V53.4531H221.285V53.1953C221.285 52.7266 221.199 52.3086 221.027 51.9414C220.863 51.5664 220.613 51.2695 220.277 51.0508C219.941 50.832 219.512 50.7227 218.988 50.7227C218.543 50.7227 218.16 50.8203 217.84 51.0156C217.52 51.2109 217.258 51.4844 217.055 51.8359C216.859 52.1875 216.711 52.6016 216.609 53.0781C216.516 53.5469 216.469 54.0625 216.469 54.625V55.0938C216.469 55.6016 216.539 56.0703 216.68 56.5C216.828 56.9297 217.035 57.3008 217.301 57.6133C217.574 57.9258 217.902 58.168 218.285 58.3398C218.676 58.5117 219.117 58.5977 219.609 58.5977C220.219 58.5977 220.785 58.4805 221.309 58.2461C221.84 58.0039 222.297 57.6406 222.68 57.1562L224.32 58.9375C224.055 59.3203 223.691 59.6875 223.23 60.0391C222.777 60.3906 222.23 60.6797 221.59 60.9062C220.949 61.125 220.219 61.2344 219.398 61.2344ZM229.898 51.0859V61H226.523V48.3203H229.699L229.898 51.0859ZM233.719 48.2383L233.66 51.3672C233.496 51.3438 233.297 51.3242 233.062 51.3086C232.836 51.2852 232.629 51.2734 232.441 51.2734C231.965 51.2734 231.551 51.3359 231.199 51.4609C230.855 51.5781 230.566 51.7539 230.332 51.9883C230.105 52.2227 229.934 52.5078 229.816 52.8438C229.707 53.1797 229.645 53.5625 229.629 53.9922L228.949 53.7812C228.949 52.9609 229.031 52.207 229.195 51.5195C229.359 50.8242 229.598 50.2188 229.91 49.7031C230.23 49.1875 230.621 48.7891 231.082 48.5078C231.543 48.2266 232.07 48.0859 232.664 48.0859C232.852 48.0859 233.043 48.1016 233.238 48.1328C233.434 48.1562 233.594 48.1914 233.719 48.2383Z" fill="#888888"/>
<path d="M118.594 98.4219V104.75H101.086V98.4219H118.594ZM103.828 84.875V119H95.6016V84.875H103.828ZM124.125 84.875V119H115.922V84.875H124.125ZM127.992 106.578V106.086C127.992 104.227 128.258 102.516 128.789 100.953C129.32 99.375 130.102 98.0078 131.133 96.8516C132.164 95.6953 133.438 94.7969 134.953 94.1562C136.469 93.5 138.219 93.1719 140.203 93.1719C142.203 93.1719 143.961 93.5 145.477 94.1562C147.008 94.7969 148.289 95.6953 149.32 96.8516C150.352 98.0078 151.133 99.375 151.664 100.953C152.195 102.516 152.461 104.227 152.461 106.086V106.578C152.461 108.422 152.195 110.133 151.664 111.711C151.133 113.273 150.352 114.641 149.32 115.812C148.289 116.969 147.016 117.867 145.5 118.508C143.984 119.148 142.234 119.469 140.25 119.469C138.266 119.469 136.508 119.148 134.977 118.508C133.445 117.867 132.164 116.969 131.133 115.812C130.102 114.641 129.32 113.273 128.789 111.711C128.258 110.133 127.992 108.422 127.992 106.578ZM135.891 106.086V106.578C135.891 107.531 135.961 108.422 136.102 109.25C136.242 110.078 136.477 110.805 136.805 111.43C137.133 112.039 137.578 112.516 138.141 112.859C138.703 113.203 139.406 113.375 140.25 113.375C141.078 113.375 141.766 113.203 142.312 112.859C142.875 112.516 143.32 112.039 143.648 111.43C143.977 110.805 144.211 110.078 144.352 109.25C144.492 108.422 144.562 107.531 144.562 106.578V106.086C144.562 105.164 144.492 104.297 144.352 103.484C144.211 102.656 143.977 101.93 143.648 101.305C143.32 100.664 142.875 100.164 142.312 99.8047C141.75 99.4453 141.047 99.2656 140.203 99.2656C139.375 99.2656 138.68 99.4453 138.117 99.8047C137.57 100.164 137.133 100.664 136.805 101.305C136.477 101.93 136.242 102.656 136.102 103.484C135.961 104.297 135.891 105.164 135.891 106.086ZM163.688 111.453L168.375 93.6406H173.32L171.562 102.57L166.922 119H162.961L163.688 111.453ZM161.836 93.6406L164.742 111.312L165.07 119H160.266L154.266 93.6406H161.836ZM177.492 110.938L180.422 93.6406H187.992L182.039 119H177.234L177.492 110.938ZM173.883 93.6406L178.617 111.406L179.344 119H175.336L170.789 102.617L169.102 93.6406H173.883ZM218.297 84.875V119H210.07V84.875H218.297ZM228.562 84.875V91.2266H200.039V84.875H228.562ZM225.773 106.578V106.086C225.773 104.227 226.039 102.516 226.57 100.953C227.102 99.375 227.883 98.0078 228.914 96.8516C229.945 95.6953 231.219 94.7969 232.734 94.1562C234.25 93.5 236 93.1719 237.984 93.1719C239.984 93.1719 241.742 93.5 243.258 94.1562C244.789 94.7969 246.07 95.6953 247.102 96.8516C248.133 98.0078 248.914 99.375 249.445 100.953C249.977 102.516 250.242 104.227 250.242 106.086V106.578C250.242 108.422 249.977 110.133 249.445 111.711C248.914 113.273 248.133 114.641 247.102 115.812C246.07 116.969 244.797 117.867 243.281 118.508C241.766 119.148 240.016 119.469 238.031 119.469C236.047 119.469 234.289 119.148 232.758 118.508C231.227 117.867 229.945 116.969 228.914 115.812C227.883 114.641 227.102 113.273 226.57 111.711C226.039 110.133 225.773 108.422 225.773 106.578ZM233.672 106.086V106.578C233.672 107.531 233.742 108.422 233.883 109.25C234.023 110.078 234.258 110.805 234.586 111.43C234.914 112.039 235.359 112.516 235.922 112.859C236.484 113.203 237.188 113.375 238.031 113.375C238.859 113.375 239.547 113.203 240.094 112.859C240.656 112.516 241.102 112.039 241.43 111.43C241.758 110.805 241.992 110.078 242.133 109.25C242.273 108.422 242.344 107.531 242.344 106.578V106.086C242.344 105.164 242.273 104.297 242.133 103.484C241.992 102.656 241.758 101.93 241.43 101.305C241.102 100.664 240.656 100.164 240.094 99.8047C239.531 99.4453 238.828 99.2656 237.984 99.2656C237.156 99.2656 236.461 99.4453 235.898 99.8047C235.352 100.164 234.914 100.664 234.586 101.305C234.258 101.93 234.023 102.656 233.883 103.484C233.742 104.297 233.672 105.164 233.672 106.086ZM266.086 84.875H279.516C282.141 84.875 284.422 85.2656 286.359 86.0469C288.297 86.8281 289.789 87.9844 290.836 89.5156C291.898 91.0469 292.43 92.9375 292.43 95.1875C292.43 97.1406 292.125 98.7734 291.516 100.086C290.906 101.398 290.055 102.484 288.961 103.344C287.883 104.188 286.625 104.883 285.188 105.43L282.492 106.953H271.219L271.172 100.602H279.516C280.562 100.602 281.43 100.414 282.117 100.039C282.805 99.6641 283.32 99.1328 283.664 98.4453C284.023 97.7422 284.203 96.9062 284.203 95.9375C284.203 94.9531 284.023 94.1094 283.664 93.4062C283.305 92.7031 282.773 92.1641 282.07 91.7891C281.383 91.4141 280.531 91.2266 279.516 91.2266H274.312V119H266.086V84.875ZM284.766 119L277.219 103.906L285.938 103.859L293.578 118.648V119H284.766ZM311.836 112.836V93.6406H319.758V119H312.352L311.836 112.836ZM312.586 107.68L314.648 107.633C314.648 109.336 314.445 110.914 314.039 112.367C313.633 113.805 313.031 115.055 312.234 116.117C311.453 117.18 310.484 118.008 309.328 118.602C308.188 119.18 306.867 119.469 305.367 119.469C304.117 119.469 302.969 119.297 301.922 118.953C300.891 118.594 300 118.039 299.25 117.289C298.5 116.523 297.914 115.547 297.492 114.359C297.086 113.156 296.883 111.719 296.883 110.047V93.6406H304.781V110.094C304.781 110.656 304.852 111.141 304.992 111.547C305.133 111.953 305.336 112.297 305.602 112.578C305.867 112.844 306.195 113.047 306.586 113.188C306.992 113.312 307.453 113.375 307.969 113.375C309.156 113.375 310.086 113.125 310.758 112.625C311.43 112.125 311.898 111.445 312.164 110.586C312.445 109.727 312.586 108.758 312.586 107.68ZM331.875 99.0547V119H323.977V93.6406H331.383L331.875 99.0547ZM330.938 105.453L329.086 105.5C329.086 103.562 329.32 101.836 329.789 100.32C330.258 98.7891 330.922 97.4922 331.781 96.4297C332.641 95.3672 333.664 94.5625 334.852 94.0156C336.055 93.4531 337.391 93.1719 338.859 93.1719C340.031 93.1719 341.102 93.3438 342.07 93.6875C343.055 94.0312 343.898 94.5859 344.602 95.3516C345.32 96.1172 345.867 97.1328 346.242 98.3984C346.633 99.6484 346.828 101.195 346.828 103.039V119H338.883V103.016C338.883 102 338.742 101.227 338.461 100.695C338.18 100.148 337.773 99.7734 337.242 99.5703C336.711 99.3672 336.062 99.2656 335.297 99.2656C334.484 99.2656 333.797 99.4219 333.234 99.7344C332.672 100.047 332.219 100.484 331.875 101.047C331.547 101.594 331.305 102.242 331.148 102.992C331.008 103.742 330.938 104.562 330.938 105.453ZM363.773 108.195H357.047C357.047 106.82 357.141 105.609 357.328 104.562C357.531 103.5 357.875 102.547 358.359 101.703C358.844 100.859 359.5 100.078 360.328 99.3594C361.062 98.75 361.695 98.1641 362.227 97.6016C362.758 97.0391 363.164 96.4688 363.445 95.8906C363.727 95.3125 363.867 94.6953 363.867 94.0391C363.867 93.2266 363.75 92.5625 363.516 92.0469C363.297 91.5312 362.961 91.1484 362.508 90.8984C362.07 90.6328 361.516 90.5 360.844 90.5C360.297 90.5 359.781 90.6328 359.297 90.8984C358.828 91.1641 358.445 91.5781 358.148 92.1406C357.852 92.6875 357.688 93.4141 357.656 94.3203H349.711C349.758 91.9922 350.273 90.1016 351.258 88.6484C352.258 87.1797 353.586 86.1094 355.242 85.4375C356.914 84.75 358.781 84.4062 360.844 84.4062C363.125 84.4062 365.086 84.7578 366.727 85.4609C368.367 86.1641 369.625 87.2109 370.5 88.6016C371.375 89.9766 371.812 91.6719 371.812 93.6875C371.812 95.0312 371.555 96.2031 371.039 97.2031C370.539 98.1875 369.859 99.1094 369 99.9688C368.156 100.812 367.211 101.719 366.164 102.688C365.258 103.484 364.641 104.297 364.312 105.125C363.984 105.938 363.805 106.961 363.773 108.195ZM356.086 115.32C356.086 114.195 356.492 113.258 357.305 112.508C358.117 111.742 359.172 111.359 360.469 111.359C361.766 111.359 362.82 111.742 363.633 112.508C364.445 113.258 364.852 114.195 364.852 115.32C364.852 116.445 364.445 117.391 363.633 118.156C362.82 118.906 361.766 119.281 360.469 119.281C359.172 119.281 358.117 118.906 357.305 118.156C356.492 117.391 356.086 116.445 356.086 115.32Z" fill="black"/>
<path d="M1134 0H1348C1356.28 0 1363 6.71573 1363 15V148C1363 156.284 1356.28 163 1348 163H1134V0Z" fill="#3DA35D"/>
<path d="M1260.62 78.8078C1263.81 78.8078 1266.93 79.7552 1269.59 81.5302C1272.25 83.3052 1274.32 85.8281 1275.54 88.7798C1276.76 91.7315 1277.08 94.9795 1276.46 98.1131C1275.84 101.247 1274.3 104.125 1272.04 106.384C1269.78 108.643 1266.9 110.182 1263.77 110.805C1260.63 111.428 1257.39 111.108 1254.43 109.886C1251.48 108.663 1248.96 106.593 1247.18 103.936C1245.41 101.28 1244.46 98.1565 1244.46 94.9616C1244.46 90.6774 1246.16 86.5686 1249.19 83.5392C1252.22 80.5097 1256.33 78.8078 1260.62 78.8078ZM1260.62 73.4232C1256.36 73.4232 1252.19 74.6864 1248.65 77.0531C1245.11 79.4198 1242.35 82.7836 1240.72 86.7192C1239.09 90.6549 1238.66 94.9855 1239.49 99.1636C1240.32 103.342 1242.37 107.179 1245.39 110.192C1248.4 113.204 1252.24 115.255 1256.41 116.086C1260.59 116.917 1264.92 116.491 1268.86 114.861C1272.79 113.23 1276.16 110.47 1278.52 106.928C1280.89 103.386 1282.15 99.2215 1282.15 94.9616C1282.15 89.2493 1279.88 83.7709 1275.85 79.7317C1271.81 75.6924 1266.33 73.4232 1260.62 73.4232Z" fill="white"/>
<path d="M1274.08 46.4999H1220.23C1218.8 46.4999 1217.43 47.0672 1216.42 48.0771C1215.41 49.0869 1214.85 50.4565 1214.85 51.8845V105.731C1214.85 107.159 1215.41 108.528 1216.42 109.538C1217.43 110.548 1218.8 111.115 1220.23 111.115H1231V105.731H1220.23V68.0383H1279.46V51.8845C1279.46 50.4565 1278.89 49.0869 1277.88 48.0771C1276.87 47.0672 1275.5 46.4999 1274.08 46.4999ZM1220.23 62.6537V51.8845H1274.08V62.6537H1220.23Z" fill="white"/>
<path d="M1255.23 86.8848V103.039L1268.69 94.9617L1255.23 86.8848Z" fill="white"/>
</svg>
