<svg width="1363" height="163" viewBox="0 0 1363 163" fill="none" xmlns="http://www.w3.org/2000/svg">
<path d="M0 15C0 6.71573 6.71573 0 15 0H37V163H15C6.71573 163 0 156.284 0 148V15Z" fill="#424242"/>
<rect width="1097" height="163" transform="translate(37)" fill="#F0F0F0"/>
<path d="M101.906 53.9219L94.3945 51.2383V48.0859L104.602 52.375V54.6367L101.906 53.9219ZM94.3945 56.1719L101.918 53.4297L104.602 52.7852V55.0352L94.3945 59.3242V56.1719ZM119.578 53.5117H115.195L115.172 51.0977H118.852C119.5 51.0977 120.031 51.0156 120.445 50.8516C120.859 50.6797 121.168 50.4336 121.371 50.1133C121.582 49.7852 121.688 49.3867 121.688 48.918C121.688 48.3867 121.586 47.957 121.383 47.6289C121.188 47.3008 120.879 47.0625 120.457 46.9141C120.043 46.7656 119.508 46.6914 118.852 46.6914H116.414V61H112.898V43.9375H118.852C119.844 43.9375 120.73 44.0312 121.512 44.2188C122.301 44.4062 122.969 44.6914 123.516 45.0742C124.062 45.457 124.48 45.9414 124.77 46.5273C125.059 47.1055 125.203 47.793 125.203 48.5898C125.203 49.293 125.043 49.9414 124.723 50.5352C124.41 51.1289 123.914 51.6133 123.234 51.9883C122.562 52.3633 121.684 52.5703 120.598 52.6094L119.578 53.5117ZM119.426 61H114.234L115.605 58.2578H119.426C120.043 58.2578 120.547 58.1602 120.938 57.9648C121.328 57.7617 121.617 57.4883 121.805 57.1445C121.992 56.8008 122.086 56.4062 122.086 55.9609C122.086 55.4609 122 55.0273 121.828 54.6602C121.664 54.293 121.398 54.0117 121.031 53.8164C120.664 53.6133 120.18 53.5117 119.578 53.5117H116.191L116.215 51.0977H120.434L121.242 52.0469C122.281 52.0312 123.117 52.2148 123.75 52.5977C124.391 52.9727 124.855 53.4609 125.145 54.0625C125.441 54.6641 125.59 55.3086 125.59 55.9961C125.59 57.0898 125.352 58.0117 124.875 58.7617C124.398 59.5039 123.699 60.0625 122.777 60.4375C121.863 60.8125 120.746 61 119.426 61ZM131.578 48.3203V61H128.191V48.3203H131.578ZM127.98 45.0156C127.98 44.5234 128.152 44.1172 128.496 43.7969C128.84 43.4766 129.301 43.3164 129.879 43.3164C130.449 43.3164 130.906 43.4766 131.25 43.7969C131.602 44.1172 131.777 44.5234 131.777 45.0156C131.777 45.5078 131.602 45.9141 131.25 46.2344C130.906 46.5547 130.449 46.7148 129.879 46.7148C129.301 46.7148 128.84 46.5547 128.496 46.2344C128.152 45.9141 127.98 45.5078 127.98 45.0156ZM137.672 51.0273V61H134.297V48.3203H137.461L137.672 51.0273ZM137.18 54.2148H136.266C136.266 53.2773 136.387 52.4336 136.629 51.6836C136.871 50.9258 137.211 50.2812 137.648 49.75C138.086 49.2109 138.605 48.8008 139.207 48.5195C139.816 48.2305 140.496 48.0859 141.246 48.0859C141.84 48.0859 142.383 48.1719 142.875 48.3438C143.367 48.5156 143.789 48.7891 144.141 49.1641C144.5 49.5391 144.773 50.0352 144.961 50.6523C145.156 51.2695 145.254 52.0234 145.254 52.9141V61H141.855V52.9023C141.855 52.3398 141.777 51.9023 141.621 51.5898C141.465 51.2773 141.234 51.0586 140.93 50.9336C140.633 50.8008 140.266 50.7344 139.828 50.7344C139.375 50.7344 138.98 50.8242 138.645 51.0039C138.316 51.1836 138.043 51.4336 137.824 51.7539C137.613 52.0664 137.453 52.4336 137.344 52.8555C137.234 53.2773 137.18 53.7305 137.18 54.2148ZM161.004 43.9375V61H157.5V43.9375H161.004ZM166.254 43.9375V46.6914H152.332V43.9375H166.254ZM170.602 51.0859V61H167.227V48.3203H170.402L170.602 51.0859ZM174.422 48.2383L174.363 51.3672C174.199 51.3438 174 51.3242 173.766 51.3086C173.539 51.2852 173.332 51.2734 173.145 51.2734C172.668 51.2734 172.254 51.3359 171.902 51.4609C171.559 51.5781 171.27 51.7539 171.035 51.9883C170.809 52.2227 170.637 52.5078 170.52 52.8438C170.41 53.1797 170.348 53.5625 170.332 53.9922L169.652 53.7812C169.652 52.9609 169.734 52.207 169.898 51.5195C170.062 50.8242 170.301 50.2188 170.613 49.7031C170.934 49.1875 171.324 48.7891 171.785 48.5078C172.246 48.2266 172.773 48.0859 173.367 48.0859C173.555 48.0859 173.746 48.1016 173.941 48.1328C174.137 48.1562 174.297 48.1914 174.422 48.2383ZM182.461 58.1406V52.4922C182.461 52.0859 182.395 51.7383 182.262 51.4492C182.129 51.1523 181.922 50.9219 181.641 50.7578C181.367 50.5938 181.012 50.5117 180.574 50.5117C180.199 50.5117 179.875 50.5781 179.602 50.7109C179.328 50.8359 179.117 51.0195 178.969 51.2617C178.82 51.4961 178.746 51.7734 178.746 52.0938H175.371C175.371 51.5547 175.496 51.043 175.746 50.5586C175.996 50.0742 176.359 49.6484 176.836 49.2812C177.312 48.9062 177.879 48.6133 178.535 48.4023C179.199 48.1914 179.941 48.0859 180.762 48.0859C181.746 48.0859 182.621 48.25 183.387 48.5781C184.152 48.9062 184.754 49.3984 185.191 50.0547C185.637 50.7109 185.859 51.5312 185.859 52.5156V57.9414C185.859 58.6367 185.902 59.207 185.988 59.6523C186.074 60.0898 186.199 60.4727 186.363 60.8008V61H182.953C182.789 60.6562 182.664 60.2266 182.578 59.7109C182.5 59.1875 182.461 58.6641 182.461 58.1406ZM182.906 53.2773L182.93 55.1875H181.043C180.598 55.1875 180.211 55.2383 179.883 55.3398C179.555 55.4414 179.285 55.5859 179.074 55.7734C178.863 55.9531 178.707 56.1641 178.605 56.4062C178.512 56.6484 178.465 56.9141 178.465 57.2031C178.465 57.4922 178.531 57.7539 178.664 57.9883C178.797 58.2148 178.988 58.3945 179.238 58.5273C179.488 58.6523 179.781 58.7148 180.117 58.7148C180.625 58.7148 181.066 58.6133 181.441 58.4102C181.816 58.207 182.105 57.957 182.309 57.6602C182.52 57.3633 182.629 57.082 182.637 56.8164L183.527 58.2461C183.402 58.5664 183.23 58.8984 183.012 59.2422C182.801 59.5859 182.531 59.9102 182.203 60.2148C181.875 60.5117 181.48 60.7578 181.02 60.9531C180.559 61.1406 180.012 61.2344 179.379 61.2344C178.574 61.2344 177.844 61.0742 177.188 60.7539C176.539 60.4258 176.023 59.9766 175.641 59.4062C175.266 58.8281 175.078 58.1719 175.078 57.4375C175.078 56.7734 175.203 56.1836 175.453 55.668C175.703 55.1523 176.07 54.7188 176.555 54.3672C177.047 54.0078 177.66 53.7383 178.395 53.5586C179.129 53.3711 179.98 53.2773 180.949 53.2773H182.906ZM193.699 58.5977C194.113 58.5977 194.48 58.5195 194.801 58.3633C195.121 58.1992 195.371 57.9727 195.551 57.6836C195.738 57.3867 195.836 57.0391 195.844 56.6406H199.02C199.012 57.5312 198.773 58.3242 198.305 59.0195C197.836 59.707 197.207 60.25 196.418 60.6484C195.629 61.0391 194.746 61.2344 193.77 61.2344C192.785 61.2344 191.926 61.0703 191.191 60.7422C190.465 60.4141 189.859 59.9609 189.375 59.3828C188.891 58.7969 188.527 58.1172 188.285 57.3438C188.043 56.5625 187.922 55.7266 187.922 54.8359V54.4961C187.922 53.5977 188.043 52.7617 188.285 51.9883C188.527 51.207 188.891 50.5273 189.375 49.9492C189.859 49.3633 190.465 48.9062 191.191 48.5781C191.918 48.25 192.77 48.0859 193.746 48.0859C194.785 48.0859 195.695 48.2852 196.477 48.6836C197.266 49.082 197.883 49.6523 198.328 50.3945C198.781 51.1289 199.012 52 199.02 53.0078H195.844C195.836 52.5859 195.746 52.2031 195.574 51.8594C195.41 51.5156 195.168 51.2422 194.848 51.0391C194.535 50.8281 194.148 50.7227 193.688 50.7227C193.195 50.7227 192.793 50.8281 192.48 51.0391C192.168 51.2422 191.926 51.5234 191.754 51.8828C191.582 52.2344 191.461 52.6367 191.391 53.0898C191.328 53.5352 191.297 54.0039 191.297 54.4961V54.8359C191.297 55.3281 191.328 55.8008 191.391 56.2539C191.453 56.707 191.57 57.1094 191.742 57.4609C191.922 57.8125 192.168 58.0898 192.48 58.293C192.793 58.4961 193.199 58.5977 193.699 58.5977ZM204.352 42.9883V61H200.977V42.9883H204.352ZM212.344 48.3203L206.836 54.6016L203.883 57.5898L202.652 55.1523L204.996 52.1758L208.289 48.3203H212.344ZM208.84 61L205.09 55.1406L207.422 53.1016L212.73 61H208.84ZM219.398 61.2344C218.414 61.2344 217.531 61.0781 216.75 60.7656C215.969 60.4453 215.305 60.0039 214.758 59.4414C214.219 58.8789 213.805 58.2266 213.516 57.4844C213.227 56.7344 213.082 55.9375 213.082 55.0938V54.625C213.082 53.6641 213.219 52.7852 213.492 51.9883C213.766 51.1914 214.156 50.5 214.664 49.9141C215.18 49.3281 215.805 48.8789 216.539 48.5664C217.273 48.2461 218.102 48.0859 219.023 48.0859C219.922 48.0859 220.719 48.2344 221.414 48.5312C222.109 48.8281 222.691 49.25 223.16 49.7969C223.637 50.3438 223.996 51 224.238 51.7656C224.48 52.5234 224.602 53.3672 224.602 54.2969V55.7031H214.523V53.4531H221.285V53.1953C221.285 52.7266 221.199 52.3086 221.027 51.9414C220.863 51.5664 220.613 51.2695 220.277 51.0508C219.941 50.832 219.512 50.7227 218.988 50.7227C218.543 50.7227 218.16 50.8203 217.84 51.0156C217.52 51.2109 217.258 51.4844 217.055 51.8359C216.859 52.1875 216.711 52.6016 216.609 53.0781C216.516 53.5469 216.469 54.0625 216.469 54.625V55.0938C216.469 55.6016 216.539 56.0703 216.68 56.5C216.828 56.9297 217.035 57.3008 217.301 57.6133C217.574 57.9258 217.902 58.168 218.285 58.3398C218.676 58.5117 219.117 58.5977 219.609 58.5977C220.219 58.5977 220.785 58.4805 221.309 58.2461C221.84 58.0039 222.297 57.6406 222.68 57.1562L224.32 58.9375C224.055 59.3203 223.691 59.6875 223.23 60.0391C222.777 60.3906 222.23 60.6797 221.59 60.9062C220.949 61.125 220.219 61.2344 219.398 61.2344ZM229.898 51.0859V61H226.523V48.3203H229.699L229.898 51.0859ZM233.719 48.2383L233.66 51.3672C233.496 51.3438 233.297 51.3242 233.062 51.3086C232.836 51.2852 232.629 51.2734 232.441 51.2734C231.965 51.2734 231.551 51.3359 231.199 51.4609C230.855 51.5781 230.566 51.7539 230.332 51.9883C230.105 52.2227 229.934 52.5078 229.816 52.8438C229.707 53.1797 229.645 53.5625 229.629 53.9922L228.949 53.7812C228.949 52.9609 229.031 52.207 229.195 51.5195C229.359 50.8242 229.598 50.2188 229.91 49.7031C230.23 49.1875 230.621 48.7891 231.082 48.5078C231.543 48.2266 232.07 48.0859 232.664 48.0859C232.852 48.0859 233.043 48.1016 233.238 48.1328C233.434 48.1562 233.594 48.1914 233.719 48.2383Z" fill="#888888"/>
<path d="M104.344 84.875V119H96.1406V84.875H104.344ZM117.727 99.0078V119H109.828V93.6406H117.234L117.727 99.0078ZM116.766 105.453L114.961 105.5C114.961 103.719 115.172 102.078 115.594 100.578C116.016 99.0781 116.641 97.7734 117.469 96.6641C118.297 95.5547 119.312 94.6953 120.516 94.0859C121.734 93.4766 123.141 93.1719 124.734 93.1719C125.844 93.1719 126.852 93.3438 127.758 93.6875C128.664 94.0156 129.445 94.5391 130.102 95.2578C130.758 95.9609 131.258 96.8828 131.602 98.0234C131.961 99.1484 132.141 100.5 132.141 102.078V119H124.242V103.086C124.242 102.008 124.117 101.195 123.867 100.648C123.633 100.102 123.289 99.7344 122.836 99.5469C122.383 99.3594 121.828 99.2656 121.172 99.2656C120.484 99.2656 119.867 99.4219 119.32 99.7344C118.773 100.047 118.305 100.484 117.914 101.047C117.539 101.594 117.25 102.242 117.047 102.992C116.859 103.742 116.766 104.562 116.766 105.453ZM131.25 105.453L129.047 105.5C129.047 103.719 129.242 102.078 129.633 100.578C130.039 99.0781 130.641 97.7734 131.438 96.6641C132.25 95.5547 133.258 94.6953 134.461 94.0859C135.664 93.4766 137.062 93.1719 138.656 93.1719C139.812 93.1719 140.875 93.3438 141.844 93.6875C142.812 94.0312 143.648 94.5859 144.352 95.3516C145.055 96.1172 145.602 97.1328 145.992 98.3984C146.383 99.6484 146.578 101.195 146.578 103.039V119H138.656V103.039C138.656 101.992 138.531 101.203 138.281 100.672C138.047 100.125 137.703 99.7578 137.25 99.5703C136.797 99.3672 136.258 99.2656 135.633 99.2656C134.883 99.2656 134.234 99.4219 133.688 99.7344C133.141 100.047 132.68 100.484 132.305 101.047C131.945 101.594 131.68 102.242 131.508 102.992C131.336 103.742 131.25 104.562 131.25 105.453ZM159.07 98.5156V128.75H151.172V93.6406H158.531L159.07 98.5156ZM174.633 106.016V106.508C174.633 108.352 174.422 110.062 174 111.641C173.578 113.219 172.953 114.594 172.125 115.766C171.297 116.938 170.266 117.852 169.031 118.508C167.812 119.148 166.398 119.469 164.789 119.469C163.273 119.469 161.969 119.133 160.875 118.461C159.781 117.789 158.867 116.859 158.133 115.672C157.398 114.484 156.805 113.125 156.352 111.594C155.898 110.062 155.539 108.445 155.273 106.742V106.109C155.539 104.281 155.898 102.586 156.352 101.023C156.805 99.4453 157.398 98.0703 158.133 96.8984C158.867 95.7266 159.773 94.8125 160.852 94.1562C161.945 93.5 163.25 93.1719 164.766 93.1719C166.375 93.1719 167.789 93.4766 169.008 94.0859C170.242 94.6953 171.273 95.5703 172.102 96.7109C172.945 97.8359 173.578 99.1875 174 100.766C174.422 102.344 174.633 104.094 174.633 106.016ZM166.734 106.508V106.016C166.734 105.031 166.664 104.133 166.523 103.32C166.383 102.492 166.156 101.773 165.844 101.164C165.547 100.555 165.148 100.086 164.648 99.7578C164.148 99.4297 163.531 99.2656 162.797 99.2656C161.953 99.2656 161.242 99.3984 160.664 99.6641C160.102 99.9141 159.648 100.305 159.305 100.836C158.977 101.352 158.742 102 158.602 102.781C158.477 103.547 158.422 104.445 158.438 105.477V107.398C158.406 108.586 158.523 109.633 158.789 110.539C159.055 111.43 159.516 112.125 160.172 112.625C160.828 113.125 161.719 113.375 162.844 113.375C163.594 113.375 164.219 113.203 164.719 112.859C165.219 112.5 165.617 112.008 165.914 111.383C166.211 110.742 166.422 110.008 166.547 109.18C166.672 108.352 166.734 107.461 166.734 106.508ZM186.492 83V119H178.57V83H186.492ZM203.648 119.469C201.586 119.469 199.742 119.148 198.117 118.508C196.492 117.852 195.117 116.953 193.992 115.812C192.883 114.672 192.031 113.359 191.438 111.875C190.859 110.391 190.57 108.82 190.57 107.164V106.273C190.57 104.414 190.828 102.695 191.344 101.117C191.859 99.5234 192.625 98.1328 193.641 96.9453C194.656 95.7578 195.93 94.8359 197.461 94.1797C198.992 93.5078 200.773 93.1719 202.805 93.1719C204.602 93.1719 206.211 93.4609 207.633 94.0391C209.055 94.6172 210.258 95.4453 211.242 96.5234C212.242 97.6016 213 98.9062 213.516 100.438C214.047 101.969 214.312 103.688 214.312 105.594V108.805H193.594V103.859H206.602V103.25C206.617 102.406 206.469 101.688 206.156 101.094C205.859 100.5 205.422 100.047 204.844 99.7344C204.266 99.4219 203.562 99.2656 202.734 99.2656C201.875 99.2656 201.164 99.4531 200.602 99.8281C200.055 100.203 199.625 100.719 199.312 101.375C199.016 102.016 198.805 102.758 198.68 103.602C198.555 104.445 198.492 105.336 198.492 106.273V107.164C198.492 108.102 198.617 108.953 198.867 109.719C199.133 110.484 199.508 111.141 199.992 111.688C200.492 112.219 201.086 112.633 201.773 112.93C202.477 113.227 203.273 113.375 204.164 113.375C205.242 113.375 206.305 113.172 207.352 112.766C208.398 112.359 209.297 111.688 210.047 110.75L213.633 115.016C213.117 115.75 212.383 116.461 211.43 117.148C210.492 117.836 209.367 118.398 208.055 118.836C206.742 119.258 205.273 119.469 203.648 119.469ZM225.492 99.0078V119H217.594V93.6406H225L225.492 99.0078ZM224.531 105.453L222.727 105.5C222.727 103.719 222.938 102.078 223.359 100.578C223.781 99.0781 224.406 97.7734 225.234 96.6641C226.062 95.5547 227.078 94.6953 228.281 94.0859C229.5 93.4766 230.906 93.1719 232.5 93.1719C233.609 93.1719 234.617 93.3438 235.523 93.6875C236.43 94.0156 237.211 94.5391 237.867 95.2578C238.523 95.9609 239.023 96.8828 239.367 98.0234C239.727 99.1484 239.906 100.5 239.906 102.078V119H232.008V103.086C232.008 102.008 231.883 101.195 231.633 100.648C231.398 100.102 231.055 99.7344 230.602 99.5469C230.148 99.3594 229.594 99.2656 228.938 99.2656C228.25 99.2656 227.633 99.4219 227.086 99.7344C226.539 100.047 226.07 100.484 225.68 101.047C225.305 101.594 225.016 102.242 224.812 102.992C224.625 103.742 224.531 104.562 224.531 105.453ZM239.016 105.453L236.812 105.5C236.812 103.719 237.008 102.078 237.398 100.578C237.805 99.0781 238.406 97.7734 239.203 96.6641C240.016 95.5547 241.023 94.6953 242.227 94.0859C243.43 93.4766 244.828 93.1719 246.422 93.1719C247.578 93.1719 248.641 93.3438 249.609 93.6875C250.578 94.0312 251.414 94.5859 252.117 95.3516C252.82 96.1172 253.367 97.1328 253.758 98.3984C254.148 99.6484 254.344 101.195 254.344 103.039V119H246.422V103.039C246.422 101.992 246.297 101.203 246.047 100.672C245.812 100.125 245.469 99.7578 245.016 99.5703C244.562 99.3672 244.023 99.2656 243.398 99.2656C242.648 99.2656 242 99.4219 241.453 99.7344C240.906 100.047 240.445 100.484 240.07 101.047C239.711 101.594 239.445 102.242 239.273 102.992C239.102 103.742 239.016 104.562 239.016 105.453ZM271.148 119.469C269.086 119.469 267.242 119.148 265.617 118.508C263.992 117.852 262.617 116.953 261.492 115.812C260.383 114.672 259.531 113.359 258.938 111.875C258.359 110.391 258.07 108.82 258.07 107.164V106.273C258.07 104.414 258.328 102.695 258.844 101.117C259.359 99.5234 260.125 98.1328 261.141 96.9453C262.156 95.7578 263.43 94.8359 264.961 94.1797C266.492 93.5078 268.273 93.1719 270.305 93.1719C272.102 93.1719 273.711 93.4609 275.133 94.0391C276.555 94.6172 277.758 95.4453 278.742 96.5234C279.742 97.6016 280.5 98.9062 281.016 100.438C281.547 101.969 281.812 103.688 281.812 105.594V108.805H261.094V103.859H274.102V103.25C274.117 102.406 273.969 101.688 273.656 101.094C273.359 100.5 272.922 100.047 272.344 99.7344C271.766 99.4219 271.062 99.2656 270.234 99.2656C269.375 99.2656 268.664 99.4531 268.102 99.8281C267.555 100.203 267.125 100.719 266.812 101.375C266.516 102.016 266.305 102.758 266.18 103.602C266.055 104.445 265.992 105.336 265.992 106.273V107.164C265.992 108.102 266.117 108.953 266.367 109.719C266.633 110.484 267.008 111.141 267.492 111.688C267.992 112.219 268.586 112.633 269.273 112.93C269.977 113.227 270.773 113.375 271.664 113.375C272.742 113.375 273.805 113.172 274.852 112.766C275.898 112.359 276.797 111.688 277.547 110.75L281.133 115.016C280.617 115.75 279.883 116.461 278.93 117.148C277.992 117.836 276.867 118.398 275.555 118.836C274.242 119.258 272.773 119.469 271.148 119.469ZM292.781 99.0547V119H284.883V93.6406H292.289L292.781 99.0547ZM291.844 105.453L289.992 105.5C289.992 103.562 290.227 101.836 290.695 100.32C291.164 98.7891 291.828 97.4922 292.688 96.4297C293.547 95.3672 294.57 94.5625 295.758 94.0156C296.961 93.4531 298.297 93.1719 299.766 93.1719C300.938 93.1719 302.008 93.3438 302.977 93.6875C303.961 94.0312 304.805 94.5859 305.508 95.3516C306.227 96.1172 306.773 97.1328 307.148 98.3984C307.539 99.6484 307.734 101.195 307.734 103.039V119H299.789V103.016C299.789 102 299.648 101.227 299.367 100.695C299.086 100.148 298.68 99.7734 298.148 99.5703C297.617 99.3672 296.969 99.2656 296.203 99.2656C295.391 99.2656 294.703 99.4219 294.141 99.7344C293.578 100.047 293.125 100.484 292.781 101.047C292.453 101.594 292.211 102.242 292.055 102.992C291.914 103.742 291.844 104.562 291.844 105.453ZM325.477 93.6406V99.125H310.195V93.6406H325.477ZM313.406 87.3359H321.305V110.727C321.305 111.398 321.383 111.922 321.539 112.297C321.695 112.656 321.961 112.914 322.336 113.07C322.727 113.211 323.242 113.281 323.883 113.281C324.336 113.281 324.711 113.273 325.008 113.258C325.305 113.227 325.586 113.188 325.852 113.141V118.789C325.18 119.008 324.477 119.172 323.742 119.281C323.008 119.406 322.227 119.469 321.398 119.469C319.711 119.469 318.266 119.203 317.062 118.672C315.875 118.141 314.969 117.305 314.344 116.164C313.719 115.023 313.406 113.539 313.406 111.711V87.3359ZM341.789 112.625V102.172C341.789 101.453 341.688 100.836 341.484 100.32C341.281 99.8047 340.961 99.4062 340.523 99.125C340.086 98.8281 339.5 98.6797 338.766 98.6797C338.172 98.6797 337.664 98.7812 337.242 98.9844C336.82 99.1875 336.5 99.4922 336.281 99.8984C336.062 100.305 335.953 100.82 335.953 101.445H328.055C328.055 100.273 328.312 99.1875 328.828 98.1875C329.359 97.1719 330.109 96.2891 331.078 95.5391C332.062 94.7891 333.234 94.2109 334.594 93.8047C335.969 93.3828 337.5 93.1719 339.188 93.1719C341.203 93.1719 343 93.5078 344.578 94.1797C346.172 94.8516 347.43 95.8594 348.352 97.2031C349.273 98.5312 349.734 100.203 349.734 102.219V112.602C349.734 114.258 349.828 115.516 350.016 116.375C350.203 117.219 350.469 117.961 350.812 118.602V119H342.891C342.516 118.219 342.234 117.266 342.047 116.141C341.875 115 341.789 113.828 341.789 112.625ZM342.75 103.508L342.797 107.727H339.305C338.57 107.727 337.945 107.828 337.43 108.031C336.93 108.234 336.523 108.516 336.211 108.875C335.914 109.219 335.695 109.609 335.555 110.047C335.43 110.484 335.367 110.945 335.367 111.43C335.367 111.898 335.477 112.32 335.695 112.695C335.93 113.055 336.242 113.336 336.633 113.539C337.023 113.742 337.461 113.844 337.945 113.844C338.82 113.844 339.562 113.68 340.172 113.352C340.797 113.008 341.273 112.594 341.602 112.109C341.93 111.625 342.094 111.172 342.094 110.75L343.828 113.984C343.516 114.609 343.156 115.242 342.75 115.883C342.359 116.523 341.867 117.117 341.273 117.664C340.695 118.195 339.984 118.633 339.141 118.977C338.297 119.305 337.273 119.469 336.07 119.469C334.508 119.469 333.07 119.148 331.758 118.508C330.461 117.867 329.422 116.977 328.641 115.836C327.859 114.68 327.469 113.352 327.469 111.852C327.469 110.539 327.703 109.367 328.172 108.336C328.656 107.305 329.383 106.43 330.352 105.711C331.32 104.992 332.555 104.445 334.055 104.07C335.555 103.695 337.32 103.508 339.352 103.508H342.75ZM367.477 93.6406V99.125H352.195V93.6406H367.477ZM355.406 87.3359H363.305V110.727C363.305 111.398 363.383 111.922 363.539 112.297C363.695 112.656 363.961 112.914 364.336 113.07C364.727 113.211 365.242 113.281 365.883 113.281C366.336 113.281 366.711 113.273 367.008 113.258C367.305 113.227 367.586 113.188 367.852 113.141V118.789C367.18 119.008 366.477 119.172 365.742 119.281C365.008 119.406 364.227 119.469 363.398 119.469C361.711 119.469 360.266 119.203 359.062 118.672C357.875 118.141 356.969 117.305 356.344 116.164C355.719 115.023 355.406 113.539 355.406 111.711V87.3359ZM378.961 93.6406V119H371.039V93.6406H378.961ZM370.57 87.1016C370.57 85.9766 370.977 85.0547 371.789 84.3359C372.602 83.6172 373.656 83.2578 374.953 83.2578C376.25 83.2578 377.305 83.6172 378.117 84.3359C378.93 85.0547 379.336 85.9766 379.336 87.1016C379.336 88.2266 378.93 89.1484 378.117 89.8672C377.305 90.5859 376.25 90.9453 374.953 90.9453C373.656 90.9453 372.602 90.5859 371.789 89.8672C370.977 89.1484 370.57 88.2266 370.57 87.1016ZM382.852 106.578V106.086C382.852 104.227 383.117 102.516 383.648 100.953C384.18 99.375 384.961 98.0078 385.992 96.8516C387.023 95.6953 388.297 94.7969 389.812 94.1562C391.328 93.5 393.078 93.1719 395.062 93.1719C397.062 93.1719 398.82 93.5 400.336 94.1562C401.867 94.7969 403.148 95.6953 404.18 96.8516C405.211 98.0078 405.992 99.375 406.523 100.953C407.055 102.516 407.32 104.227 407.32 106.086V106.578C407.32 108.422 407.055 110.133 406.523 111.711C405.992 113.273 405.211 114.641 404.18 115.812C403.148 116.969 401.875 117.867 400.359 118.508C398.844 119.148 397.094 119.469 395.109 119.469C393.125 119.469 391.367 119.148 389.836 118.508C388.305 117.867 387.023 116.969 385.992 115.812C384.961 114.641 384.18 113.273 383.648 111.711C383.117 110.133 382.852 108.422 382.852 106.578ZM390.75 106.086V106.578C390.75 107.531 390.82 108.422 390.961 109.25C391.102 110.078 391.336 110.805 391.664 111.43C391.992 112.039 392.438 112.516 393 112.859C393.562 113.203 394.266 113.375 395.109 113.375C395.938 113.375 396.625 113.203 397.172 112.859C397.734 112.516 398.18 112.039 398.508 111.43C398.836 110.805 399.07 110.078 399.211 109.25C399.352 108.422 399.422 107.531 399.422 106.578V106.086C399.422 105.164 399.352 104.297 399.211 103.484C399.07 102.656 398.836 101.93 398.508 101.305C398.18 100.664 397.734 100.164 397.172 99.8047C396.609 99.4453 395.906 99.2656 395.062 99.2656C394.234 99.2656 393.539 99.4453 392.977 99.8047C392.43 100.164 391.992 100.664 391.664 101.305C391.336 101.93 391.102 102.656 390.961 103.484C390.82 104.297 390.75 105.164 390.75 106.086ZM418.594 99.0547V119H410.695V93.6406H418.102L418.594 99.0547ZM417.656 105.453L415.805 105.5C415.805 103.562 416.039 101.836 416.508 100.32C416.977 98.7891 417.641 97.4922 418.5 96.4297C419.359 95.3672 420.383 94.5625 421.57 94.0156C422.773 93.4531 424.109 93.1719 425.578 93.1719C426.75 93.1719 427.82 93.3438 428.789 93.6875C429.773 94.0312 430.617 94.5859 431.32 95.3516C432.039 96.1172 432.586 97.1328 432.961 98.3984C433.352 99.6484 433.547 101.195 433.547 103.039V119H425.602V103.016C425.602 102 425.461 101.227 425.18 100.695C424.898 100.148 424.492 99.7734 423.961 99.5703C423.43 99.3672 422.781 99.2656 422.016 99.2656C421.203 99.2656 420.516 99.4219 419.953 99.7344C419.391 100.047 418.938 100.484 418.594 101.047C418.266 101.594 418.023 102.242 417.867 102.992C417.727 103.742 417.656 104.562 417.656 105.453Z" fill="black"/>
<path d="M1134 0H1348C1356.28 0 1363 6.71573 1363 15V148C1363 156.284 1356.28 163 1348 163H1134V0Z" fill="#3DA35D"/>
<path d="M1281 46.5H1216L1213.5 49V114L1216 116.5H1281L1283.5 114V49L1281 46.5ZM1278.5 111.5H1233.5V101.5H1245C1246.5 104.5 1250 106.5 1253.5 106.5C1259 106.5 1263.5 102 1263.5 96.5C1263.5 91 1259 86.5 1253.5 86.5C1248 86.5 1243.5 91 1243.5 96.5H1228.5V111.5H1218.5V51.5H1228.5V63C1225.5 64.5 1223.5 68 1223.5 71.5C1223.5 77 1228 81.5 1233.5 81.5C1239 81.5 1243.5 77 1243.5 71.5H1253.5C1253.5 77 1258 81.5 1263.5 81.5C1269 81.5 1273.5 77 1273.5 71.5C1273.5 66 1269 61.5 1263.5 61.5C1260 61.5 1256.5 63.5 1255 66.5H1242C1240.5 63.5 1237 61.5 1233.5 61.5V51.5H1278.5V111.5ZM1248.5 96.5C1248.5 93.5 1250.5 91.5 1253.5 91.5C1256.5 91.5 1258.5 93.5 1258.5 96.5C1258.5 99.5 1256.5 101.5 1253.5 101.5C1250.5 101.5 1248.5 99.5 1248.5 96.5ZM1233.5 66.5C1236.5 66.5 1238.5 68.5 1238.5 71.5C1238.5 74.5 1236.5 76.5 1233.5 76.5C1230.5 76.5 1228.5 74.5 1228.5 71.5C1228.5 68.5 1230.5 66.5 1233.5 66.5ZM1263.5 66.5C1266.5 66.5 1268.5 68.5 1268.5 71.5C1268.5 74.5 1266.5 76.5 1263.5 76.5C1260.5 76.5 1258.5 74.5 1258.5 71.5C1258.5 68.5 1260.5 66.5 1263.5 66.5Z" fill="white"/>
</svg>
