<svg width="1363" height="297" viewBox="0 0 1363 297" fill="none" xmlns="http://www.w3.org/2000/svg">
<path d="M0 15C0 6.71573 6.71573 0 15 0H37V297H15C6.71573 297 0 290.284 0 282V15Z" fill="#3DA35D"/>
<path d="M37 0H1066V297H37V0Z" fill="#F0F0F0"/>
<path d="M105.691 53.7832L98.7305 75H93.123L102.633 49.4062H106.201L105.691 53.7832ZM111.475 75L104.496 53.7832L103.934 49.4062H107.537L117.1 75H111.475ZM111.158 65.4727V69.6035H97.6406V65.4727H111.158ZM123.656 59.918V75H118.576V55.9805H123.34L123.656 59.918ZM122.953 64.8223H121.547C121.547 63.498 121.705 62.2793 122.021 61.166C122.35 60.041 122.824 59.0684 123.445 58.248C124.078 57.416 124.857 56.7715 125.783 56.3145C126.709 55.8574 127.781 55.6289 129 55.6289C129.844 55.6289 130.617 55.7578 131.32 56.0156C132.023 56.2617 132.627 56.6543 133.131 57.1934C133.646 57.7207 134.045 58.4121 134.326 59.2676C134.607 60.1113 134.748 61.125 134.748 62.3086V75H129.686V62.8711C129.686 62.0039 129.568 61.3359 129.334 60.8672C129.1 60.3984 128.766 60.0703 128.332 59.8828C127.91 59.6953 127.4 59.6016 126.803 59.6016C126.146 59.6016 125.572 59.7363 125.08 60.0059C124.6 60.2754 124.201 60.6504 123.885 61.1309C123.568 61.5996 123.334 62.1504 123.182 62.7832C123.029 63.416 122.953 64.0957 122.953 64.8223ZM134.273 64.2422L132.463 64.4707C132.463 63.2285 132.615 62.0742 132.92 61.0078C133.236 59.9414 133.699 59.0039 134.309 58.1953C134.93 57.3867 135.697 56.7598 136.611 56.3145C137.525 55.8574 138.58 55.6289 139.775 55.6289C140.689 55.6289 141.521 55.7637 142.271 56.0332C143.021 56.291 143.66 56.707 144.188 57.2812C144.727 57.8438 145.137 58.582 145.418 59.4961C145.711 60.4102 145.857 61.5293 145.857 62.8535V75H140.777V62.8535C140.777 61.9746 140.66 61.3066 140.426 60.8496C140.203 60.3809 139.875 60.0586 139.441 59.8828C139.02 59.6953 138.516 59.6016 137.93 59.6016C137.32 59.6016 136.787 59.7246 136.33 59.9707C135.873 60.2051 135.492 60.5332 135.188 60.9551C134.883 61.377 134.654 61.8691 134.502 62.4316C134.35 62.9824 134.273 63.5859 134.273 64.2422ZM154.84 60.1289V75H149.777V55.9805H154.541L154.84 60.1289ZM160.57 55.8574L160.482 60.5508C160.236 60.5156 159.938 60.4863 159.586 60.4629C159.246 60.4277 158.936 60.4102 158.654 60.4102C157.939 60.4102 157.318 60.5039 156.791 60.6914C156.275 60.8672 155.842 61.1309 155.49 61.4824C155.15 61.834 154.893 62.2617 154.717 62.7656C154.553 63.2695 154.459 63.8438 154.436 64.4883L153.416 64.1719C153.416 62.9414 153.539 61.8105 153.785 60.7793C154.031 59.7363 154.389 58.8281 154.857 58.0547C155.338 57.2812 155.924 56.6836 156.615 56.2617C157.307 55.8398 158.098 55.6289 158.988 55.6289C159.27 55.6289 159.557 55.6523 159.85 55.6992C160.143 55.7344 160.383 55.7871 160.57 55.8574ZM189.311 59.8301V63.9434H175.951V59.8301H189.311ZM177.516 49.4062V75H172.242V49.4062H177.516ZM193.072 49.4062V75H187.816V49.4062H193.072ZM207.609 70.7109V62.2383C207.609 61.6289 207.51 61.1074 207.311 60.6738C207.111 60.2285 206.801 59.8828 206.379 59.6367C205.969 59.3906 205.436 59.2676 204.779 59.2676C204.217 59.2676 203.73 59.3672 203.32 59.5664C202.91 59.7539 202.594 60.0293 202.371 60.3926C202.148 60.7441 202.037 61.1602 202.037 61.6406H196.975C196.975 60.832 197.162 60.0645 197.537 59.3379C197.912 58.6113 198.457 57.9727 199.172 57.4219C199.887 56.8594 200.736 56.4199 201.721 56.1035C202.717 55.7871 203.83 55.6289 205.061 55.6289C206.537 55.6289 207.85 55.875 208.998 56.3672C210.146 56.8594 211.049 57.5977 211.705 58.582C212.373 59.5664 212.707 60.7969 212.707 62.2734V70.4121C212.707 71.4551 212.771 72.3105 212.9 72.9785C213.029 73.6348 213.217 74.209 213.463 74.7012V75H208.348C208.102 74.4844 207.914 73.8398 207.785 73.0664C207.668 72.2812 207.609 71.4961 207.609 70.7109ZM208.277 63.416L208.312 66.2812H205.482C204.814 66.2812 204.234 66.3574 203.742 66.5098C203.25 66.6621 202.846 66.8789 202.529 67.1602C202.213 67.4297 201.979 67.7461 201.826 68.1094C201.686 68.4727 201.615 68.8711 201.615 69.3047C201.615 69.7383 201.715 70.1309 201.914 70.4824C202.113 70.8223 202.4 71.0918 202.775 71.291C203.15 71.4785 203.59 71.5723 204.094 71.5723C204.855 71.5723 205.518 71.4199 206.08 71.1152C206.643 70.8105 207.076 70.4355 207.381 69.9902C207.697 69.5449 207.861 69.123 207.873 68.7246L209.209 70.8691C209.021 71.3496 208.764 71.8477 208.436 72.3633C208.119 72.8789 207.715 73.3652 207.223 73.8223C206.73 74.2676 206.139 74.6367 205.447 74.9297C204.756 75.2109 203.936 75.3516 202.986 75.3516C201.779 75.3516 200.684 75.1113 199.699 74.6309C198.727 74.1387 197.953 73.4648 197.379 72.6094C196.816 71.7422 196.535 70.7578 196.535 69.6562C196.535 68.6602 196.723 67.7754 197.098 67.002C197.473 66.2285 198.023 65.5781 198.75 65.0508C199.488 64.5117 200.408 64.1074 201.51 63.8379C202.611 63.5566 203.889 63.416 205.342 63.416H208.277ZM221.672 59.918V75H216.592V55.9805H221.355L221.672 59.918ZM220.969 64.8223H219.562C219.562 63.498 219.721 62.2793 220.037 61.166C220.365 60.041 220.84 59.0684 221.461 58.248C222.094 57.416 222.873 56.7715 223.799 56.3145C224.725 55.8574 225.797 55.6289 227.016 55.6289C227.859 55.6289 228.633 55.7578 229.336 56.0156C230.039 56.2617 230.643 56.6543 231.146 57.1934C231.662 57.7207 232.061 58.4121 232.342 59.2676C232.623 60.1113 232.764 61.125 232.764 62.3086V75H227.701V62.8711C227.701 62.0039 227.584 61.3359 227.35 60.8672C227.115 60.3984 226.781 60.0703 226.348 59.8828C225.926 59.6953 225.416 59.6016 224.818 59.6016C224.162 59.6016 223.588 59.7363 223.096 60.0059C222.615 60.2754 222.217 60.6504 221.9 61.1309C221.584 61.5996 221.35 62.1504 221.197 62.7832C221.045 63.416 220.969 64.0957 220.969 64.8223ZM232.289 64.2422L230.479 64.4707C230.479 63.2285 230.631 62.0742 230.936 61.0078C231.252 59.9414 231.715 59.0039 232.324 58.1953C232.945 57.3867 233.713 56.7598 234.627 56.3145C235.541 55.8574 236.596 55.6289 237.791 55.6289C238.705 55.6289 239.537 55.7637 240.287 56.0332C241.037 56.291 241.676 56.707 242.203 57.2812C242.742 57.8438 243.152 58.582 243.434 59.4961C243.727 60.4102 243.873 61.5293 243.873 62.8535V75H238.793V62.8535C238.793 61.9746 238.676 61.3066 238.441 60.8496C238.219 60.3809 237.891 60.0586 237.457 59.8828C237.035 59.6953 236.531 59.6016 235.945 59.6016C235.336 59.6016 234.803 59.7246 234.346 59.9707C233.889 60.2051 233.508 60.5332 233.203 60.9551C232.898 61.377 232.67 61.8691 232.518 62.4316C232.365 62.9824 232.289 63.5859 232.289 64.2422ZM252.855 59.918V75H247.775V55.9805H252.539L252.855 59.918ZM252.152 64.8223H250.746C250.746 63.498 250.904 62.2793 251.221 61.166C251.549 60.041 252.023 59.0684 252.645 58.248C253.277 57.416 254.057 56.7715 254.982 56.3145C255.908 55.8574 256.98 55.6289 258.199 55.6289C259.043 55.6289 259.816 55.7578 260.52 56.0156C261.223 56.2617 261.826 56.6543 262.33 57.1934C262.846 57.7207 263.244 58.4121 263.525 59.2676C263.807 60.1113 263.947 61.125 263.947 62.3086V75H258.885V62.8711C258.885 62.0039 258.768 61.3359 258.533 60.8672C258.299 60.3984 257.965 60.0703 257.531 59.8828C257.109 59.6953 256.6 59.6016 256.002 59.6016C255.346 59.6016 254.771 59.7363 254.279 60.0059C253.799 60.2754 253.4 60.6504 253.084 61.1309C252.768 61.5996 252.533 62.1504 252.381 62.7832C252.229 63.416 252.152 64.0957 252.152 64.8223ZM263.473 64.2422L261.662 64.4707C261.662 63.2285 261.814 62.0742 262.119 61.0078C262.436 59.9414 262.898 59.0039 263.508 58.1953C264.129 57.3867 264.896 56.7598 265.811 56.3145C266.725 55.8574 267.779 55.6289 268.975 55.6289C269.889 55.6289 270.721 55.7637 271.471 56.0332C272.221 56.291 272.859 56.707 273.387 57.2812C273.926 57.8438 274.336 58.582 274.617 59.4961C274.91 60.4102 275.057 61.5293 275.057 62.8535V75H269.977V62.8535C269.977 61.9746 269.859 61.3066 269.625 60.8496C269.402 60.3809 269.074 60.0586 268.641 59.8828C268.219 59.6953 267.715 59.6016 267.129 59.6016C266.52 59.6016 265.986 59.7246 265.529 59.9707C265.072 60.2051 264.691 60.5332 264.387 60.9551C264.082 61.377 263.854 61.8691 263.701 62.4316C263.549 62.9824 263.473 63.5859 263.473 64.2422ZM278.168 65.6836V65.3145C278.168 63.9199 278.367 62.6367 278.766 61.4648C279.164 60.2812 279.744 59.2559 280.506 58.3887C281.268 57.5215 282.205 56.8477 283.318 56.3672C284.432 55.875 285.709 55.6289 287.15 55.6289C288.592 55.6289 289.875 55.875 291 56.3672C292.125 56.8477 293.068 57.5215 293.83 58.3887C294.604 59.2559 295.189 60.2812 295.588 61.4648C295.986 62.6367 296.186 63.9199 296.186 65.3145V65.6836C296.186 67.0664 295.986 68.3496 295.588 69.5332C295.189 70.7051 294.604 71.7305 293.83 72.6094C293.068 73.4766 292.131 74.1504 291.018 74.6309C289.904 75.1113 288.627 75.3516 287.186 75.3516C285.744 75.3516 284.461 75.1113 283.336 74.6309C282.223 74.1504 281.279 73.4766 280.506 72.6094C279.744 71.7305 279.164 70.7051 278.766 69.5332C278.367 68.3496 278.168 67.0664 278.168 65.6836ZM283.23 65.3145V65.6836C283.23 66.4805 283.301 67.2246 283.441 67.916C283.582 68.6074 283.805 69.2168 284.109 69.7441C284.426 70.2598 284.836 70.6641 285.34 70.957C285.844 71.25 286.459 71.3965 287.186 71.3965C287.889 71.3965 288.492 71.25 288.996 70.957C289.5 70.6641 289.904 70.2598 290.209 69.7441C290.514 69.2168 290.736 68.6074 290.877 67.916C291.029 67.2246 291.105 66.4805 291.105 65.6836V65.3145C291.105 64.541 291.029 63.8145 290.877 63.1348C290.736 62.4434 290.508 61.834 290.191 61.3066C289.887 60.7676 289.482 60.3457 288.979 60.041C288.475 59.7363 287.865 59.584 287.15 59.584C286.436 59.584 285.826 59.7363 285.322 60.041C284.83 60.3457 284.426 60.7676 284.109 61.3066C283.805 61.834 283.582 62.4434 283.441 63.1348C283.301 63.8145 283.23 64.541 283.23 65.3145ZM310.547 70.4473V55.9805H315.609V75H310.846L310.547 70.4473ZM311.109 66.5449L312.604 66.5098C312.604 67.7754 312.457 68.9531 312.164 70.043C311.871 71.1211 311.432 72.0586 310.846 72.8555C310.26 73.6406 309.521 74.2559 308.631 74.7012C307.74 75.1348 306.691 75.3516 305.484 75.3516C304.559 75.3516 303.703 75.2227 302.918 74.9648C302.145 74.6953 301.477 74.2793 300.914 73.7168C300.363 73.1426 299.93 72.4102 299.613 71.5195C299.309 70.6172 299.156 69.5332 299.156 68.2676V55.9805H304.219V68.3027C304.219 68.8652 304.283 69.3398 304.412 69.7266C304.553 70.1133 304.746 70.4297 304.992 70.6758C305.238 70.9219 305.525 71.0977 305.854 71.2031C306.193 71.3086 306.568 71.3613 306.979 71.3613C308.021 71.3613 308.842 71.1504 309.439 70.7285C310.049 70.3066 310.477 69.7324 310.723 69.0059C310.98 68.2676 311.109 67.4473 311.109 66.5449ZM330.709 70.8516V48H335.807V75H331.219L330.709 70.8516ZM318.686 65.7188V65.3496C318.686 63.8965 318.85 62.5781 319.178 61.3945C319.506 60.1992 319.986 59.1738 320.619 58.3184C321.252 57.4629 322.031 56.8008 322.957 56.332C323.883 55.8633 324.938 55.6289 326.121 55.6289C327.234 55.6289 328.207 55.8633 329.039 56.332C329.883 56.8008 330.598 57.4688 331.184 58.3359C331.781 59.1914 332.262 60.2051 332.625 61.377C332.988 62.5371 333.252 63.8086 333.416 65.1914V66C333.252 67.3242 332.988 68.5547 332.625 69.6914C332.262 70.8281 331.781 71.8242 331.184 72.6797C330.598 73.5234 329.883 74.1797 329.039 74.6484C328.195 75.1172 327.211 75.3516 326.086 75.3516C324.902 75.3516 323.848 75.1113 322.922 74.6309C322.008 74.1504 321.234 73.4766 320.602 72.6094C319.98 71.7422 319.506 70.7227 319.178 69.5508C318.85 68.3789 318.686 67.1016 318.686 65.7188ZM323.748 65.3496V65.7188C323.748 66.5039 323.807 67.2363 323.924 67.916C324.053 68.5957 324.258 69.1992 324.539 69.7266C324.832 70.2422 325.207 70.6465 325.664 70.9395C326.133 71.2207 326.701 71.3613 327.369 71.3613C328.236 71.3613 328.951 71.168 329.514 70.7812C330.076 70.3828 330.504 69.8379 330.797 69.1465C331.102 68.4551 331.277 67.6582 331.324 66.7559V64.4531C331.289 63.7148 331.184 63.0527 331.008 62.4668C330.844 61.8691 330.598 61.3594 330.27 60.9375C329.953 60.5156 329.555 60.1875 329.074 59.9531C328.605 59.7188 328.049 59.6016 327.404 59.6016C326.748 59.6016 326.186 59.7539 325.717 60.0586C325.248 60.3516 324.867 60.7559 324.574 61.2715C324.293 61.7871 324.082 62.3965 323.941 63.0996C323.812 63.791 323.748 64.541 323.748 65.3496Z" fill="#888888"/>
<path d="M112.277 123.074H102.023L101.969 116.785H110.281C111.776 116.785 112.97 116.621 113.863 116.293C114.757 115.947 115.404 115.445 115.805 114.789C116.224 114.133 116.434 113.312 116.434 112.328C116.434 111.198 116.224 110.286 115.805 109.594C115.385 108.901 114.72 108.4 113.809 108.09C112.915 107.762 111.758 107.598 110.336 107.598H105.633V140H96.0352V100.188H110.336C112.797 100.188 114.993 100.415 116.926 100.871C118.858 101.309 120.499 101.983 121.848 102.895C123.215 103.806 124.254 104.954 124.965 106.34C125.676 107.707 126.031 109.32 126.031 111.18C126.031 112.802 125.685 114.324 124.992 115.746C124.299 117.168 123.142 118.326 121.52 119.219C119.915 120.094 117.719 120.549 114.93 120.586L112.277 123.074ZM111.895 140H99.6992L102.98 132.617H111.895C113.207 132.617 114.255 132.417 115.039 132.016C115.841 131.596 116.415 131.049 116.762 130.375C117.126 129.682 117.309 128.917 117.309 128.078C117.309 127.057 117.135 126.173 116.789 125.426C116.461 124.678 115.932 124.104 115.203 123.703C114.474 123.284 113.499 123.074 112.277 123.074H104.211L104.266 116.785H113.918L116.16 119.301C118.822 119.191 120.927 119.565 122.477 120.422C124.044 121.279 125.165 122.409 125.84 123.812C126.514 125.216 126.852 126.684 126.852 128.215C126.852 130.822 126.286 133 125.156 134.75C124.044 136.5 122.376 137.812 120.152 138.688C117.928 139.562 115.176 140 111.895 140ZM141.48 110.414V140H132.238V110.414H141.48ZM131.691 102.785C131.691 101.473 132.165 100.397 133.113 99.5586C134.061 98.7201 135.292 98.3008 136.805 98.3008C138.318 98.3008 139.548 98.7201 140.496 99.5586C141.444 100.397 141.918 101.473 141.918 102.785C141.918 104.098 141.444 105.173 140.496 106.012C139.548 106.85 138.318 107.27 136.805 107.27C135.292 107.27 134.061 106.85 133.113 106.012C132.165 105.173 131.691 104.098 131.691 102.785ZM156.219 116.73V140H147.004V110.414H155.645L156.219 116.73ZM155.125 124.195L152.965 124.25C152.965 121.99 153.238 119.975 153.785 118.207C154.332 116.421 155.107 114.908 156.109 113.668C157.112 112.428 158.306 111.49 159.691 110.852C161.095 110.195 162.654 109.867 164.367 109.867C165.734 109.867 166.983 110.068 168.113 110.469C169.262 110.87 170.246 111.517 171.066 112.41C171.905 113.303 172.543 114.488 172.98 115.965C173.436 117.423 173.664 119.228 173.664 121.379V140H164.395V121.352C164.395 120.167 164.23 119.264 163.902 118.645C163.574 118.007 163.1 117.569 162.48 117.332C161.861 117.095 161.104 116.977 160.211 116.977C159.263 116.977 158.461 117.159 157.805 117.523C157.148 117.888 156.62 118.398 156.219 119.055C155.836 119.693 155.553 120.449 155.371 121.324C155.207 122.199 155.125 123.156 155.125 124.195ZM210.797 100.188V140H201.199V100.188H210.797ZM222.773 100.188V107.598H189.496V100.188H222.773ZM233.902 117.742V140H224.688V110.414H233.301L233.902 117.742ZM242.652 110.195L242.488 118.754C242.124 118.717 241.632 118.672 241.012 118.617C240.392 118.562 239.872 118.535 239.453 118.535C238.378 118.535 237.448 118.663 236.664 118.918C235.898 119.155 235.26 119.52 234.75 120.012C234.258 120.486 233.893 121.087 233.656 121.816C233.438 122.546 233.337 123.393 233.355 124.359L231.688 123.266C231.688 121.279 231.879 119.474 232.262 117.852C232.663 116.211 233.228 114.798 233.957 113.613C234.686 112.41 235.57 111.49 236.609 110.852C237.648 110.195 238.815 109.867 240.109 109.867C240.565 109.867 241.012 109.895 241.449 109.949C241.905 110.004 242.306 110.086 242.652 110.195ZM260.371 132.562V120.367C260.371 119.529 260.253 118.809 260.016 118.207C259.779 117.605 259.405 117.141 258.895 116.812C258.384 116.466 257.701 116.293 256.844 116.293C256.151 116.293 255.559 116.411 255.066 116.648C254.574 116.885 254.201 117.241 253.945 117.715C253.69 118.189 253.562 118.79 253.562 119.52H244.348C244.348 118.152 244.648 116.885 245.25 115.719C245.87 114.534 246.745 113.504 247.875 112.629C249.023 111.754 250.391 111.079 251.977 110.605C253.581 110.113 255.367 109.867 257.336 109.867C259.688 109.867 261.784 110.259 263.625 111.043C265.484 111.827 266.952 113.003 268.027 114.57C269.103 116.12 269.641 118.07 269.641 120.422V132.535C269.641 134.467 269.75 135.935 269.969 136.938C270.188 137.922 270.497 138.788 270.898 139.535V140H261.656C261.219 139.089 260.891 137.977 260.672 136.664C260.471 135.333 260.371 133.966 260.371 132.562ZM261.492 121.926L261.547 126.848H257.473C256.616 126.848 255.887 126.966 255.285 127.203C254.702 127.44 254.228 127.768 253.863 128.188C253.517 128.589 253.262 129.044 253.098 129.555C252.952 130.065 252.879 130.603 252.879 131.168C252.879 131.715 253.007 132.207 253.262 132.645C253.535 133.064 253.9 133.392 254.355 133.629C254.811 133.866 255.322 133.984 255.887 133.984C256.908 133.984 257.773 133.793 258.484 133.41C259.214 133.009 259.77 132.526 260.152 131.961C260.535 131.396 260.727 130.867 260.727 130.375L262.75 134.148C262.385 134.878 261.966 135.616 261.492 136.363C261.036 137.111 260.462 137.803 259.77 138.441C259.095 139.061 258.266 139.572 257.281 139.973C256.297 140.355 255.103 140.547 253.699 140.547C251.876 140.547 250.199 140.173 248.668 139.426C247.155 138.678 245.943 137.639 245.031 136.309C244.12 134.96 243.664 133.41 243.664 131.66C243.664 130.129 243.938 128.762 244.484 127.559C245.049 126.355 245.897 125.335 247.027 124.496C248.158 123.658 249.598 123.02 251.348 122.582C253.098 122.145 255.158 121.926 257.527 121.926H261.492ZM287.25 133.438C288.107 133.438 288.836 133.283 289.438 132.973C290.057 132.645 290.522 132.189 290.832 131.605C291.16 131.004 291.315 130.284 291.297 129.445H299.965C299.983 131.669 299.436 133.62 298.324 135.297C297.23 136.956 295.736 138.25 293.84 139.18C291.962 140.091 289.839 140.547 287.469 140.547C285.154 140.547 283.13 140.173 281.398 139.426C279.667 138.66 278.217 137.603 277.051 136.254C275.902 134.887 275.036 133.292 274.453 131.469C273.888 129.646 273.605 127.668 273.605 125.535V124.906C273.605 122.773 273.888 120.796 274.453 118.973C275.036 117.132 275.902 115.536 277.051 114.188C278.217 112.82 279.658 111.763 281.371 111.016C283.103 110.25 285.117 109.867 287.414 109.867C289.875 109.867 292.044 110.332 293.922 111.262C295.818 112.191 297.303 113.54 298.379 115.309C299.454 117.077 299.983 119.219 299.965 121.734H291.297C291.315 120.841 291.178 120.039 290.887 119.328C290.595 118.617 290.139 118.052 289.52 117.633C288.918 117.195 288.143 116.977 287.195 116.977C286.247 116.977 285.482 117.186 284.898 117.605C284.315 118.025 283.868 118.608 283.559 119.355C283.267 120.085 283.066 120.923 282.957 121.871C282.866 122.819 282.82 123.831 282.82 124.906V125.535C282.82 126.629 282.866 127.659 282.957 128.625C283.066 129.573 283.276 130.411 283.586 131.141C283.896 131.852 284.342 132.417 284.926 132.836C285.509 133.237 286.284 133.438 287.25 133.438ZM313.199 97.9727V140H303.984V97.9727H313.199ZM332.121 110.414L319.27 125.48L312.543 132.207L308.523 126.355L314.129 119.055L321.074 110.414H332.121ZM322.25 140L314.348 126.52L321.156 121.68L332.805 140H322.25ZM348.309 140.547C345.902 140.547 343.751 140.173 341.855 139.426C339.96 138.66 338.355 137.612 337.043 136.281C335.749 134.951 334.755 133.419 334.062 131.688C333.388 129.956 333.051 128.124 333.051 126.191V125.152C333.051 122.983 333.352 120.978 333.953 119.137C334.555 117.277 335.448 115.655 336.633 114.27C337.818 112.884 339.303 111.809 341.09 111.043C342.876 110.259 344.954 109.867 347.324 109.867C349.421 109.867 351.298 110.204 352.957 110.879C354.616 111.553 356.02 112.52 357.168 113.777C358.335 115.035 359.219 116.557 359.82 118.344C360.44 120.13 360.75 122.135 360.75 124.359V128.105H336.578V122.336H351.754V121.625C351.772 120.641 351.599 119.802 351.234 119.109C350.888 118.417 350.378 117.888 349.703 117.523C349.029 117.159 348.208 116.977 347.242 116.977C346.24 116.977 345.41 117.195 344.754 117.633C344.116 118.07 343.615 118.672 343.25 119.438C342.904 120.185 342.658 121.051 342.512 122.035C342.366 123.02 342.293 124.059 342.293 125.152V126.191C342.293 127.285 342.439 128.279 342.73 129.172C343.04 130.065 343.478 130.831 344.043 131.469C344.626 132.089 345.319 132.572 346.121 132.918C346.941 133.264 347.871 133.438 348.91 133.438C350.168 133.438 351.408 133.201 352.629 132.727C353.85 132.253 354.898 131.469 355.773 130.375L359.957 135.352C359.355 136.208 358.499 137.038 357.387 137.84C356.293 138.642 354.98 139.298 353.449 139.809C351.918 140.301 350.204 140.547 348.309 140.547ZM373.793 117.742V140H364.578V110.414H373.191L373.793 117.742ZM382.543 110.195L382.379 118.754C382.014 118.717 381.522 118.672 380.902 118.617C380.283 118.562 379.763 118.535 379.344 118.535C378.268 118.535 377.339 118.663 376.555 118.918C375.789 119.155 375.151 119.52 374.641 120.012C374.148 120.486 373.784 121.087 373.547 121.816C373.328 122.546 373.228 123.393 373.246 124.359L371.578 123.266C371.578 121.279 371.77 119.474 372.152 117.852C372.553 116.211 373.118 114.798 373.848 113.613C374.577 112.41 375.461 111.49 376.5 110.852C377.539 110.195 378.706 109.867 380 109.867C380.456 109.867 380.902 109.895 381.34 109.949C381.796 110.004 382.197 110.086 382.543 110.195Z" fill="black"/>
<rect x="93" y="178" width="917" height="77" rx="10" fill="#D3D3D3"/>
<rect x="111" y="196" width="91" height="41" rx="3" fill="#424242"/>
<path d="M134.141 210.203H139.177C140.161 210.203 141.017 210.35 141.743 210.643C142.47 210.936 143.029 211.369 143.422 211.943C143.82 212.518 144.02 213.227 144.02 214.07C144.02 214.803 143.905 215.415 143.677 215.907C143.448 216.399 143.129 216.807 142.719 217.129C142.314 217.445 141.843 217.706 141.304 217.911L140.293 218.482H136.065L136.048 216.101H139.177C139.569 216.101 139.895 216.03 140.152 215.89C140.41 215.749 140.604 215.55 140.732 215.292C140.867 215.028 140.935 214.715 140.935 214.352C140.935 213.982 140.867 213.666 140.732 213.402C140.598 213.139 140.398 212.937 140.135 212.796C139.877 212.655 139.558 212.585 139.177 212.585H137.226V223H134.141V210.203ZM141.146 223L138.315 217.34L141.585 217.322L144.45 222.868V223H141.146ZM150.348 223.176C149.574 223.176 148.883 223.056 148.273 222.815C147.664 222.569 147.148 222.232 146.727 221.805C146.311 221.377 145.991 220.885 145.769 220.328C145.552 219.771 145.443 219.183 145.443 218.562V218.228C145.443 217.53 145.54 216.886 145.733 216.294C145.927 215.696 146.214 215.175 146.595 214.729C146.976 214.284 147.453 213.938 148.027 213.692C148.602 213.44 149.27 213.314 150.031 213.314C150.705 213.314 151.309 213.423 151.842 213.64C152.375 213.856 152.826 214.167 153.195 214.571C153.57 214.976 153.854 215.465 154.048 216.039C154.247 216.613 154.347 217.258 154.347 217.973V219.177H146.577V217.322H151.455V217.094C151.461 216.777 151.405 216.508 151.288 216.285C151.177 216.062 151.013 215.893 150.796 215.775C150.579 215.658 150.315 215.6 150.005 215.6C149.683 215.6 149.416 215.67 149.205 215.811C149 215.951 148.839 216.145 148.722 216.391C148.61 216.631 148.531 216.909 148.484 217.226C148.438 217.542 148.414 217.876 148.414 218.228V218.562C148.414 218.913 148.461 219.232 148.555 219.52C148.654 219.807 148.795 220.053 148.977 220.258C149.164 220.457 149.387 220.612 149.645 220.724C149.908 220.835 150.207 220.891 150.541 220.891C150.945 220.891 151.344 220.814 151.736 220.662C152.129 220.51 152.466 220.258 152.747 219.906L154.092 221.506C153.898 221.781 153.623 222.048 153.266 222.306C152.914 222.563 152.492 222.774 152 222.938C151.508 223.097 150.957 223.176 150.348 223.176ZM160.49 220.609V216.689C160.49 216.42 160.452 216.188 160.376 215.995C160.3 215.802 160.18 215.652 160.016 215.547C159.852 215.436 159.632 215.38 159.356 215.38C159.134 215.38 158.943 215.418 158.785 215.494C158.627 215.57 158.507 215.685 158.425 215.837C158.343 215.989 158.302 216.183 158.302 216.417H155.34C155.34 215.978 155.437 215.57 155.63 215.195C155.829 214.814 156.11 214.483 156.474 214.202C156.843 213.921 157.282 213.704 157.792 213.552C158.308 213.394 158.882 213.314 159.515 213.314C160.271 213.314 160.944 213.44 161.536 213.692C162.134 213.944 162.605 214.322 162.951 214.826C163.297 215.324 163.47 215.951 163.47 216.707V220.601C163.47 221.222 163.505 221.693 163.575 222.016C163.646 222.332 163.745 222.61 163.874 222.851V223H160.903C160.763 222.707 160.657 222.35 160.587 221.928C160.522 221.5 160.49 221.061 160.49 220.609ZM160.851 217.19L160.868 218.772H159.559C159.283 218.772 159.049 218.811 158.855 218.887C158.668 218.963 158.516 219.068 158.398 219.203C158.287 219.332 158.205 219.479 158.152 219.643C158.105 219.807 158.082 219.979 158.082 220.161C158.082 220.337 158.123 220.495 158.205 220.636C158.293 220.771 158.41 220.876 158.557 220.952C158.703 221.028 158.867 221.066 159.049 221.066C159.377 221.066 159.655 221.005 159.884 220.882C160.118 220.753 160.297 220.598 160.42 220.416C160.543 220.234 160.604 220.064 160.604 219.906L161.255 221.119C161.138 221.354 161.003 221.591 160.851 221.831C160.704 222.071 160.52 222.294 160.297 222.499C160.08 222.698 159.813 222.862 159.497 222.991C159.181 223.114 158.797 223.176 158.346 223.176C157.76 223.176 157.221 223.056 156.729 222.815C156.242 222.575 155.853 222.241 155.56 221.813C155.267 221.38 155.12 220.882 155.12 220.319C155.12 219.827 155.208 219.388 155.384 219.001C155.565 218.614 155.838 218.286 156.201 218.017C156.564 217.747 157.027 217.542 157.59 217.401C158.152 217.261 158.814 217.19 159.576 217.19H160.851ZM169.13 220.891C169.405 220.891 169.64 220.841 169.833 220.741C170.032 220.636 170.182 220.489 170.281 220.302C170.387 220.108 170.437 219.877 170.431 219.607H173.217C173.223 220.322 173.047 220.949 172.689 221.488C172.338 222.021 171.857 222.438 171.248 222.736C170.645 223.029 169.962 223.176 169.2 223.176C168.456 223.176 167.806 223.056 167.249 222.815C166.692 222.569 166.227 222.229 165.852 221.796C165.482 221.356 165.204 220.844 165.017 220.258C164.835 219.672 164.744 219.036 164.744 218.351V218.148C164.744 217.463 164.835 216.827 165.017 216.241C165.204 215.649 165.482 215.137 165.852 214.703C166.227 214.264 166.689 213.924 167.24 213.684C167.797 213.438 168.444 213.314 169.183 213.314C169.974 213.314 170.671 213.464 171.274 213.763C171.884 214.062 172.361 214.495 172.707 215.063C173.053 215.632 173.223 216.32 173.217 217.129H170.431C170.437 216.842 170.393 216.584 170.299 216.355C170.205 216.127 170.059 215.945 169.859 215.811C169.666 215.67 169.417 215.6 169.112 215.6C168.808 215.6 168.562 215.667 168.374 215.802C168.187 215.937 168.043 216.124 167.943 216.364C167.85 216.599 167.785 216.868 167.75 217.173C167.721 217.478 167.706 217.803 167.706 218.148V218.351C167.706 218.702 167.721 219.033 167.75 219.344C167.785 219.648 167.853 219.918 167.952 220.152C168.052 220.381 168.195 220.562 168.383 220.697C168.57 220.826 168.819 220.891 169.13 220.891ZM179.492 213.49V215.547H173.762V213.49H179.492ZM174.966 211.126H177.928V219.897C177.928 220.149 177.957 220.346 178.016 220.486C178.074 220.621 178.174 220.718 178.314 220.776C178.461 220.829 178.654 220.855 178.895 220.855C179.064 220.855 179.205 220.853 179.316 220.847C179.428 220.835 179.533 220.82 179.633 220.803V222.921C179.381 223.003 179.117 223.064 178.842 223.105C178.566 223.152 178.273 223.176 177.963 223.176C177.33 223.176 176.788 223.076 176.337 222.877C175.892 222.678 175.552 222.364 175.317 221.937C175.083 221.509 174.966 220.952 174.966 220.267V211.126Z" fill="white"/>
<rect x="111" y="196" width="91" height="41" rx="3" stroke="#424242" stroke-width="4"/>
<rect x="222" y="196" width="130" height="41" rx="3" fill="#424242"/>
<path d="M253.883 220.627V223H247.062V220.627H253.883ZM248.161 210.203V223H245.076V210.203H248.161ZM253.004 215.283V217.577H247.062V215.283H253.004ZM253.909 210.203V212.585H247.062V210.203H253.909ZM257.521 213.49L258.857 216.109L260.237 213.49H263.313L260.817 218.122L263.445 223H260.343L258.857 220.188L257.381 223H254.278L256.906 218.122L254.419 213.49H257.521ZM267.277 215.318V226.656H264.315V213.49H267.075L267.277 215.318ZM273.113 218.131V218.315C273.113 219.007 273.034 219.648 272.876 220.24C272.718 220.832 272.483 221.348 272.173 221.787C271.862 222.227 271.476 222.569 271.013 222.815C270.556 223.056 270.025 223.176 269.422 223.176C268.854 223.176 268.364 223.05 267.954 222.798C267.544 222.546 267.201 222.197 266.926 221.752C266.65 221.307 266.428 220.797 266.258 220.223C266.088 219.648 265.953 219.042 265.854 218.403V218.166C265.953 217.48 266.088 216.845 266.258 216.259C266.428 215.667 266.65 215.151 266.926 214.712C267.201 214.272 267.541 213.93 267.945 213.684C268.355 213.438 268.845 213.314 269.413 213.314C270.017 213.314 270.547 213.429 271.004 213.657C271.467 213.886 271.854 214.214 272.164 214.642C272.48 215.063 272.718 215.57 272.876 216.162C273.034 216.754 273.113 217.41 273.113 218.131ZM270.151 218.315V218.131C270.151 217.762 270.125 217.425 270.072 217.12C270.02 216.81 269.935 216.54 269.817 216.312C269.706 216.083 269.557 215.907 269.369 215.784C269.182 215.661 268.95 215.6 268.675 215.6C268.358 215.6 268.092 215.649 267.875 215.749C267.664 215.843 267.494 215.989 267.365 216.188C267.242 216.382 267.154 216.625 267.102 216.918C267.055 217.205 267.034 217.542 267.04 217.929V218.649C267.028 219.095 267.072 219.487 267.172 219.827C267.271 220.161 267.444 220.422 267.69 220.609C267.937 220.797 268.271 220.891 268.692 220.891C268.974 220.891 269.208 220.826 269.396 220.697C269.583 220.562 269.732 220.378 269.844 220.144C269.955 219.903 270.034 219.628 270.081 219.317C270.128 219.007 270.151 218.673 270.151 218.315ZM277.42 215.846V223H274.458V213.49H277.227L277.42 215.846ZM280.232 213.42L280.18 216.171C280.062 216.159 279.904 216.145 279.705 216.127C279.506 216.109 279.339 216.101 279.204 216.101C278.858 216.101 278.56 216.142 278.308 216.224C278.062 216.3 277.856 216.417 277.692 216.575C277.534 216.728 277.417 216.921 277.341 217.155C277.271 217.39 277.238 217.662 277.244 217.973L276.708 217.621C276.708 216.982 276.77 216.402 276.893 215.881C277.021 215.354 277.203 214.899 277.438 214.519C277.672 214.132 277.956 213.836 278.29 213.631C278.624 213.42 278.999 213.314 279.415 213.314C279.562 213.314 279.705 213.323 279.846 213.341C279.992 213.358 280.121 213.385 280.232 213.42ZM285.682 223.176C284.908 223.176 284.217 223.056 283.607 222.815C282.998 222.569 282.482 222.232 282.061 221.805C281.645 221.377 281.325 220.885 281.103 220.328C280.886 219.771 280.777 219.183 280.777 218.562V218.228C280.777 217.53 280.874 216.886 281.067 216.294C281.261 215.696 281.548 215.175 281.929 214.729C282.31 214.284 282.787 213.938 283.361 213.692C283.936 213.44 284.604 213.314 285.365 213.314C286.039 213.314 286.643 213.423 287.176 213.64C287.709 213.856 288.16 214.167 288.529 214.571C288.904 214.976 289.188 215.465 289.382 216.039C289.581 216.613 289.681 217.258 289.681 217.973V219.177H281.911V217.322H286.789V217.094C286.795 216.777 286.739 216.508 286.622 216.285C286.511 216.062 286.347 215.893 286.13 215.775C285.913 215.658 285.649 215.6 285.339 215.6C285.017 215.6 284.75 215.67 284.539 215.811C284.334 215.951 284.173 216.145 284.056 216.391C283.944 216.631 283.865 216.909 283.818 217.226C283.771 217.542 283.748 217.876 283.748 218.228V218.562C283.748 218.913 283.795 219.232 283.889 219.52C283.988 219.807 284.129 220.053 284.311 220.258C284.498 220.457 284.721 220.612 284.979 220.724C285.242 220.835 285.541 220.891 285.875 220.891C286.279 220.891 286.678 220.814 287.07 220.662C287.463 220.51 287.8 220.258 288.081 219.906L289.426 221.506C289.232 221.781 288.957 222.048 288.6 222.306C288.248 222.563 287.826 222.774 287.334 222.938C286.842 223.097 286.291 223.176 285.682 223.176ZM295.868 220.328C295.868 220.164 295.812 220.023 295.701 219.906C295.596 219.783 295.408 219.672 295.139 219.572C294.869 219.467 294.491 219.361 294.005 219.256C293.542 219.156 293.105 219.024 292.695 218.86C292.291 218.696 291.937 218.497 291.632 218.263C291.327 218.028 291.087 217.75 290.911 217.428C290.741 217.105 290.656 216.736 290.656 216.32C290.656 215.916 290.741 215.535 290.911 215.178C291.087 214.814 291.342 214.495 291.676 214.22C292.016 213.938 292.429 213.719 292.915 213.561C293.401 213.396 293.955 213.314 294.576 213.314C295.432 213.314 296.17 213.446 296.791 213.71C297.412 213.968 297.89 214.331 298.224 214.8C298.563 215.263 298.733 215.799 298.733 216.408H295.771C295.771 216.168 295.73 215.963 295.648 215.793C295.572 215.623 295.446 215.494 295.271 215.406C295.095 215.312 294.86 215.266 294.567 215.266C294.362 215.266 294.175 215.304 294.005 215.38C293.841 215.456 293.709 215.562 293.609 215.696C293.51 215.831 293.46 215.989 293.46 216.171C293.46 216.3 293.489 216.417 293.548 216.522C293.612 216.622 293.709 216.716 293.838 216.804C293.967 216.886 294.131 216.962 294.33 217.032C294.529 217.097 294.77 217.155 295.051 217.208C295.689 217.325 296.287 217.492 296.844 217.709C297.4 217.926 297.852 218.233 298.197 218.632C298.549 219.03 298.725 219.566 298.725 220.24C298.725 220.662 298.628 221.052 298.435 221.409C298.241 221.761 297.963 222.071 297.6 222.341C297.236 222.604 296.8 222.81 296.29 222.956C295.78 223.103 295.206 223.176 294.567 223.176C293.659 223.176 292.892 223.015 292.265 222.692C291.638 222.364 291.163 221.954 290.841 221.462C290.524 220.964 290.366 220.46 290.366 219.95H293.126C293.138 220.243 293.208 220.483 293.337 220.671C293.472 220.858 293.65 220.996 293.873 221.084C294.096 221.172 294.354 221.216 294.646 221.216C294.916 221.216 295.139 221.178 295.314 221.102C295.496 221.025 295.634 220.923 295.728 220.794C295.821 220.659 295.868 220.504 295.868 220.328ZM305.097 220.328C305.097 220.164 305.041 220.023 304.93 219.906C304.824 219.783 304.637 219.672 304.367 219.572C304.098 219.467 303.72 219.361 303.233 219.256C302.771 219.156 302.334 219.024 301.924 218.86C301.52 218.696 301.165 218.497 300.86 218.263C300.556 218.028 300.315 217.75 300.14 217.428C299.97 217.105 299.885 216.736 299.885 216.32C299.885 215.916 299.97 215.535 300.14 215.178C300.315 214.814 300.57 214.495 300.904 214.22C301.244 213.938 301.657 213.719 302.144 213.561C302.63 213.396 303.184 213.314 303.805 213.314C304.66 213.314 305.398 213.446 306.02 213.71C306.641 213.968 307.118 214.331 307.452 214.8C307.792 215.263 307.962 215.799 307.962 216.408H305C305 216.168 304.959 215.963 304.877 215.793C304.801 215.623 304.675 215.494 304.499 215.406C304.323 215.312 304.089 215.266 303.796 215.266C303.591 215.266 303.403 215.304 303.233 215.38C303.069 215.456 302.938 215.562 302.838 215.696C302.738 215.831 302.688 215.989 302.688 216.171C302.688 216.3 302.718 216.417 302.776 216.522C302.841 216.622 302.938 216.716 303.066 216.804C303.195 216.886 303.359 216.962 303.559 217.032C303.758 217.097 303.998 217.155 304.279 217.208C304.918 217.325 305.516 217.492 306.072 217.709C306.629 217.926 307.08 218.233 307.426 218.632C307.777 219.03 307.953 219.566 307.953 220.24C307.953 220.662 307.856 221.052 307.663 221.409C307.47 221.761 307.191 222.071 306.828 222.341C306.465 222.604 306.028 222.81 305.519 222.956C305.009 223.103 304.435 223.176 303.796 223.176C302.888 223.176 302.12 223.015 301.493 222.692C300.866 222.364 300.392 221.954 300.069 221.462C299.753 220.964 299.595 220.46 299.595 219.95H302.354C302.366 220.243 302.437 220.483 302.565 220.671C302.7 220.858 302.879 220.996 303.102 221.084C303.324 221.172 303.582 221.216 303.875 221.216C304.145 221.216 304.367 221.178 304.543 221.102C304.725 221.025 304.862 220.923 304.956 220.794C305.05 220.659 305.097 220.504 305.097 220.328ZM314.571 218.983V210.203H317.647V218.983C317.647 219.839 317.451 220.58 317.059 221.207C316.672 221.834 316.145 222.32 315.477 222.666C314.814 223.006 314.07 223.176 313.244 223.176C312.389 223.176 311.627 223.032 310.959 222.745C310.297 222.458 309.775 222.016 309.395 221.418C309.02 220.82 308.832 220.059 308.832 219.133H311.926C311.926 219.566 311.976 219.906 312.075 220.152C312.175 220.393 312.321 220.562 312.515 220.662C312.714 220.756 312.957 220.803 313.244 220.803C313.525 220.803 313.763 220.732 313.956 220.592C314.155 220.445 314.308 220.237 314.413 219.968C314.519 219.692 314.571 219.364 314.571 218.983ZM326.199 219.599C326.199 219.399 326.17 219.221 326.111 219.062C326.053 218.898 325.944 218.746 325.786 218.605C325.628 218.465 325.399 218.324 325.101 218.184C324.808 218.037 324.421 217.885 323.94 217.727C323.378 217.539 322.836 217.328 322.314 217.094C321.793 216.854 321.327 216.575 320.917 216.259C320.507 215.937 320.182 215.562 319.941 215.134C319.701 214.7 319.581 214.196 319.581 213.622C319.581 213.071 319.704 212.576 319.95 212.137C320.196 211.691 320.539 211.313 320.979 211.003C321.424 210.687 321.945 210.446 322.543 210.282C323.141 210.112 323.794 210.027 324.503 210.027C325.44 210.027 326.267 210.191 326.981 210.52C327.702 210.842 328.265 211.302 328.669 211.899C329.079 212.491 329.284 213.191 329.284 214H326.217C326.217 213.678 326.149 213.394 326.015 213.147C325.886 212.901 325.689 212.708 325.426 212.567C325.162 212.427 324.831 212.356 324.433 212.356C324.046 212.356 323.721 212.415 323.457 212.532C323.193 212.649 322.994 212.808 322.859 213.007C322.725 213.2 322.657 213.414 322.657 213.648C322.657 213.842 322.71 214.018 322.815 214.176C322.927 214.328 323.082 214.472 323.281 214.606C323.486 214.741 323.732 214.87 324.02 214.993C324.312 215.116 324.641 215.236 325.004 215.354C325.684 215.57 326.287 215.813 326.814 216.083C327.348 216.347 327.796 216.648 328.159 216.988C328.528 217.322 328.807 217.703 328.994 218.131C329.188 218.559 329.284 219.042 329.284 219.581C329.284 220.155 329.173 220.665 328.95 221.11C328.728 221.556 328.408 221.934 327.992 222.244C327.576 222.549 327.078 222.78 326.498 222.938C325.918 223.097 325.271 223.176 324.556 223.176C323.899 223.176 323.252 223.094 322.613 222.93C321.98 222.76 321.406 222.502 320.891 222.156C320.375 221.805 319.962 221.356 319.651 220.812C319.347 220.261 319.194 219.607 319.194 218.852H322.288C322.288 219.227 322.338 219.543 322.438 219.801C322.537 220.059 322.684 220.267 322.877 220.425C323.07 220.577 323.308 220.688 323.589 220.759C323.87 220.823 324.192 220.855 324.556 220.855C324.948 220.855 325.265 220.8 325.505 220.688C325.745 220.571 325.921 220.419 326.032 220.231C326.144 220.038 326.199 219.827 326.199 219.599Z" fill="white"/>
<rect x="222" y="196" width="130" height="41" rx="3" stroke="#424242" stroke-width="4"/>
<rect x="372" y="196" width="109" height="41" rx="3" fill="#424242"/>
<path d="M406.118 210.203V223H403.042L398.516 215.037V223H395.431V210.203H398.516L403.042 218.166V210.203H406.118ZM407.56 218.342V218.157C407.56 217.46 407.659 216.818 407.858 216.232C408.058 215.641 408.351 215.128 408.737 214.694C409.124 214.261 409.602 213.924 410.17 213.684C410.738 213.438 411.395 213.314 412.139 213.314C412.889 213.314 413.548 213.438 414.116 213.684C414.69 213.924 415.171 214.261 415.558 214.694C415.944 215.128 416.237 215.641 416.437 216.232C416.636 216.818 416.735 217.46 416.735 218.157V218.342C416.735 219.033 416.636 219.675 416.437 220.267C416.237 220.853 415.944 221.365 415.558 221.805C415.171 222.238 414.693 222.575 414.125 222.815C413.557 223.056 412.9 223.176 412.156 223.176C411.412 223.176 410.753 223.056 410.179 222.815C409.604 222.575 409.124 222.238 408.737 221.805C408.351 221.365 408.058 220.853 407.858 220.267C407.659 219.675 407.56 219.033 407.56 218.342ZM410.521 218.157V218.342C410.521 218.699 410.548 219.033 410.601 219.344C410.653 219.654 410.741 219.927 410.864 220.161C410.987 220.39 411.154 220.568 411.365 220.697C411.576 220.826 411.84 220.891 412.156 220.891C412.467 220.891 412.725 220.826 412.93 220.697C413.141 220.568 413.308 220.39 413.431 220.161C413.554 219.927 413.642 219.654 413.694 219.344C413.747 219.033 413.773 218.699 413.773 218.342V218.157C413.773 217.812 413.747 217.486 413.694 217.182C413.642 216.871 413.554 216.599 413.431 216.364C413.308 216.124 413.141 215.937 412.93 215.802C412.719 215.667 412.455 215.6 412.139 215.6C411.828 215.6 411.567 215.667 411.356 215.802C411.151 215.937 410.987 216.124 410.864 216.364C410.741 216.599 410.653 216.871 410.601 217.182C410.548 217.486 410.521 217.812 410.521 218.157ZM423.521 220.82V209.5H426.5V223H423.828L423.521 220.82ZM417.685 218.359V218.175C417.685 217.454 417.764 216.798 417.922 216.206C418.08 215.608 418.314 215.096 418.625 214.668C418.936 214.234 419.322 213.9 419.785 213.666C420.248 213.432 420.781 213.314 421.385 213.314C421.924 213.314 422.396 213.44 422.8 213.692C423.204 213.938 423.55 214.284 423.837 214.729C424.124 215.175 424.358 215.696 424.54 216.294C424.722 216.886 424.859 217.524 424.953 218.21V218.43C424.859 219.074 424.722 219.684 424.54 220.258C424.358 220.826 424.124 221.33 423.837 221.77C423.55 222.209 423.201 222.555 422.791 222.807C422.387 223.053 421.912 223.176 421.367 223.176C420.764 223.176 420.23 223.056 419.768 222.815C419.311 222.575 418.927 222.238 418.616 221.805C418.312 221.371 418.08 220.861 417.922 220.275C417.764 219.689 417.685 219.051 417.685 218.359ZM420.646 218.175V218.359C420.646 218.717 420.67 219.048 420.717 219.353C420.764 219.657 420.843 219.927 420.954 220.161C421.071 220.39 421.224 220.568 421.411 220.697C421.604 220.826 421.842 220.891 422.123 220.891C422.504 220.891 422.817 220.8 423.063 220.618C423.315 220.437 423.5 220.179 423.617 219.845C423.74 219.511 423.793 219.118 423.775 218.667V217.973C423.787 217.586 423.761 217.246 423.696 216.953C423.632 216.654 423.529 216.405 423.389 216.206C423.254 216.007 423.081 215.857 422.87 215.758C422.665 215.652 422.422 215.6 422.141 215.6C421.865 215.6 421.631 215.664 421.438 215.793C421.25 215.922 421.098 216.104 420.98 216.338C420.863 216.566 420.778 216.839 420.726 217.155C420.673 217.466 420.646 217.806 420.646 218.175ZM432.784 223.176C432.011 223.176 431.319 223.056 430.71 222.815C430.101 222.569 429.585 222.232 429.163 221.805C428.747 221.377 428.428 220.885 428.205 220.328C427.988 219.771 427.88 219.183 427.88 218.562V218.228C427.88 217.53 427.977 216.886 428.17 216.294C428.363 215.696 428.65 215.175 429.031 214.729C429.412 214.284 429.89 213.938 430.464 213.692C431.038 213.44 431.706 213.314 432.468 213.314C433.142 213.314 433.745 213.423 434.278 213.64C434.812 213.856 435.263 214.167 435.632 214.571C436.007 214.976 436.291 215.465 436.484 216.039C436.684 216.613 436.783 217.258 436.783 217.973V219.177H429.014V217.322H433.892V217.094C433.897 216.777 433.842 216.508 433.725 216.285C433.613 216.062 433.449 215.893 433.232 215.775C433.016 215.658 432.752 215.6 432.441 215.6C432.119 215.6 431.853 215.67 431.642 215.811C431.437 215.951 431.275 216.145 431.158 216.391C431.047 216.631 430.968 216.909 430.921 217.226C430.874 217.542 430.851 217.876 430.851 218.228V218.562C430.851 218.913 430.897 219.232 430.991 219.52C431.091 219.807 431.231 220.053 431.413 220.258C431.601 220.457 431.823 220.612 432.081 220.724C432.345 220.835 432.644 220.891 432.978 220.891C433.382 220.891 433.78 220.814 434.173 220.662C434.565 220.51 434.902 220.258 435.184 219.906L436.528 221.506C436.335 221.781 436.06 222.048 435.702 222.306C435.351 222.563 434.929 222.774 434.437 222.938C433.944 223.097 433.394 223.176 432.784 223.176ZM443.217 218.983V210.203H446.293V218.983C446.293 219.839 446.097 220.58 445.704 221.207C445.317 221.834 444.79 222.32 444.122 222.666C443.46 223.006 442.716 223.176 441.89 223.176C441.034 223.176 440.272 223.032 439.604 222.745C438.942 222.458 438.421 222.016 438.04 221.418C437.665 220.82 437.478 220.059 437.478 219.133H440.571C440.571 219.566 440.621 219.906 440.721 220.152C440.82 220.393 440.967 220.562 441.16 220.662C441.359 220.756 441.603 220.803 441.89 220.803C442.171 220.803 442.408 220.732 442.602 220.592C442.801 220.445 442.953 220.237 443.059 219.968C443.164 219.692 443.217 219.364 443.217 218.983ZM454.845 219.599C454.845 219.399 454.815 219.221 454.757 219.062C454.698 218.898 454.59 218.746 454.432 218.605C454.273 218.465 454.045 218.324 453.746 218.184C453.453 218.037 453.066 217.885 452.586 217.727C452.023 217.539 451.481 217.328 450.96 217.094C450.438 216.854 449.973 216.575 449.562 216.259C449.152 215.937 448.827 215.562 448.587 215.134C448.347 214.7 448.227 214.196 448.227 213.622C448.227 213.071 448.35 212.576 448.596 212.137C448.842 211.691 449.185 211.313 449.624 211.003C450.069 210.687 450.591 210.446 451.188 210.282C451.786 210.112 452.439 210.027 453.148 210.027C454.086 210.027 454.912 210.191 455.627 210.52C456.348 210.842 456.91 211.302 457.314 211.899C457.725 212.491 457.93 213.191 457.93 214H454.862C454.862 213.678 454.795 213.394 454.66 213.147C454.531 212.901 454.335 212.708 454.071 212.567C453.808 212.427 453.477 212.356 453.078 212.356C452.691 212.356 452.366 212.415 452.103 212.532C451.839 212.649 451.64 212.808 451.505 213.007C451.37 213.2 451.303 213.414 451.303 213.648C451.303 213.842 451.355 214.018 451.461 214.176C451.572 214.328 451.728 214.472 451.927 214.606C452.132 214.741 452.378 214.87 452.665 214.993C452.958 215.116 453.286 215.236 453.649 215.354C454.329 215.57 454.933 215.813 455.46 216.083C455.993 216.347 456.441 216.648 456.805 216.988C457.174 217.322 457.452 217.703 457.64 218.131C457.833 218.559 457.93 219.042 457.93 219.581C457.93 220.155 457.818 220.665 457.596 221.11C457.373 221.556 457.054 221.934 456.638 222.244C456.222 222.549 455.724 222.78 455.144 222.938C454.563 223.097 453.916 223.176 453.201 223.176C452.545 223.176 451.897 223.094 451.259 222.93C450.626 222.76 450.052 222.502 449.536 222.156C449.021 221.805 448.607 221.356 448.297 220.812C447.992 220.261 447.84 219.607 447.84 218.852H450.934C450.934 219.227 450.983 219.543 451.083 219.801C451.183 220.059 451.329 220.267 451.522 220.425C451.716 220.577 451.953 220.688 452.234 220.759C452.516 220.823 452.838 220.855 453.201 220.855C453.594 220.855 453.91 220.8 454.15 220.688C454.391 220.571 454.566 220.419 454.678 220.231C454.789 220.038 454.845 219.827 454.845 219.599Z" fill="white"/>
<rect x="372" y="196" width="109" height="41" rx="3" stroke="#424242" stroke-width="4"/>
<rect x="501" y="196" width="98" height="41" rx="3" fill="#424242"/>
<path d="M527.078 210.203V223H523.993V210.203H527.078ZM532.053 215.529V217.902H526.199V215.529H532.053ZM532.554 210.203V212.585H526.199V210.203H532.554ZM536.825 209.5V223H533.854V209.5H536.825ZM544.208 220.688V213.49H547.179V223H544.401L544.208 220.688ZM544.489 218.755L545.263 218.737C545.263 219.376 545.187 219.968 545.034 220.513C544.882 221.052 544.656 221.521 544.357 221.919C544.064 222.317 543.701 222.628 543.268 222.851C542.84 223.067 542.345 223.176 541.782 223.176C541.313 223.176 540.883 223.111 540.49 222.982C540.104 222.848 539.77 222.64 539.488 222.358C539.207 222.071 538.987 221.705 538.829 221.26C538.677 220.809 538.601 220.27 538.601 219.643V213.49H541.562V219.66C541.562 219.871 541.589 220.053 541.642 220.205C541.694 220.357 541.771 220.486 541.87 220.592C541.97 220.691 542.093 220.768 542.239 220.82C542.392 220.867 542.564 220.891 542.758 220.891C543.203 220.891 543.552 220.797 543.804 220.609C544.056 220.422 544.231 220.167 544.331 219.845C544.437 219.522 544.489 219.159 544.489 218.755ZM553.823 213.49V215.547H548.093V213.49H553.823ZM549.297 211.126H552.259V219.897C552.259 220.149 552.288 220.346 552.347 220.486C552.405 220.621 552.505 220.718 552.646 220.776C552.792 220.829 552.985 220.855 553.226 220.855C553.396 220.855 553.536 220.853 553.647 220.847C553.759 220.835 553.864 220.82 553.964 220.803V222.921C553.712 223.003 553.448 223.064 553.173 223.105C552.897 223.152 552.604 223.176 552.294 223.176C551.661 223.176 551.119 223.076 550.668 222.877C550.223 222.678 549.883 222.364 549.648 221.937C549.414 221.509 549.297 220.952 549.297 220.267V211.126ZM560.011 213.49V215.547H554.28V213.49H560.011ZM555.484 211.126H558.446V219.897C558.446 220.149 558.476 220.346 558.534 220.486C558.593 220.621 558.692 220.718 558.833 220.776C558.979 220.829 559.173 220.855 559.413 220.855C559.583 220.855 559.724 220.853 559.835 220.847C559.946 220.835 560.052 220.82 560.151 220.803V222.921C559.899 223.003 559.636 223.064 559.36 223.105C559.085 223.152 558.792 223.176 558.481 223.176C557.849 223.176 557.307 223.076 556.855 222.877C556.41 222.678 556.07 222.364 555.836 221.937C555.602 221.509 555.484 220.952 555.484 220.267V211.126ZM565.794 223.176C565.021 223.176 564.329 223.056 563.72 222.815C563.11 222.569 562.595 222.232 562.173 221.805C561.757 221.377 561.438 220.885 561.215 220.328C560.998 219.771 560.89 219.183 560.89 218.562V218.228C560.89 217.53 560.986 216.886 561.18 216.294C561.373 215.696 561.66 215.175 562.041 214.729C562.422 214.284 562.899 213.938 563.474 213.692C564.048 213.44 564.716 213.314 565.478 213.314C566.151 213.314 566.755 213.423 567.288 213.64C567.821 213.856 568.272 214.167 568.642 214.571C569.017 214.976 569.301 215.465 569.494 216.039C569.693 216.613 569.793 217.258 569.793 217.973V219.177H562.023V217.322H566.901V217.094C566.907 216.777 566.852 216.508 566.734 216.285C566.623 216.062 566.459 215.893 566.242 215.775C566.025 215.658 565.762 215.6 565.451 215.6C565.129 215.6 564.862 215.67 564.651 215.811C564.446 215.951 564.285 216.145 564.168 216.391C564.057 216.631 563.978 216.909 563.931 217.226C563.884 217.542 563.86 217.876 563.86 218.228V218.562C563.86 218.913 563.907 219.232 564.001 219.52C564.101 219.807 564.241 220.053 564.423 220.258C564.61 220.457 564.833 220.612 565.091 220.724C565.354 220.835 565.653 220.891 565.987 220.891C566.392 220.891 566.79 220.814 567.183 220.662C567.575 220.51 567.912 220.258 568.193 219.906L569.538 221.506C569.345 221.781 569.069 222.048 568.712 222.306C568.36 222.563 567.938 222.774 567.446 222.938C566.954 223.097 566.403 223.176 565.794 223.176ZM573.985 215.846V223H571.023V213.49H573.792L573.985 215.846ZM576.798 213.42L576.745 216.171C576.628 216.159 576.47 216.145 576.271 216.127C576.071 216.109 575.904 216.101 575.77 216.101C575.424 216.101 575.125 216.142 574.873 216.224C574.627 216.3 574.422 216.417 574.258 216.575C574.1 216.728 573.982 216.921 573.906 217.155C573.836 217.39 573.804 217.662 573.81 217.973L573.273 217.621C573.273 216.982 573.335 216.402 573.458 215.881C573.587 215.354 573.769 214.899 574.003 214.519C574.237 214.132 574.521 213.836 574.855 213.631C575.189 213.42 575.564 213.314 575.98 213.314C576.127 213.314 576.271 213.323 576.411 213.341C576.558 213.358 576.687 213.385 576.798 213.42Z" fill="white"/>
<rect x="501" y="196" width="98" height="41" rx="3" stroke="#424242" stroke-width="4"/>
<rect x="619" y="196" width="131" height="41" rx="3" fill="#424242"/>
<path d="M648.359 210.203V223H645.274V210.203H648.359ZM652.209 210.203V212.585H641.513V210.203H652.209ZM655.575 221.884L658.036 213.49H661.218L657.395 224.415C657.312 224.655 657.204 224.913 657.069 225.188C656.935 225.47 656.75 225.736 656.516 225.988C656.281 226.24 655.979 226.445 655.61 226.604C655.247 226.762 654.796 226.841 654.257 226.841C653.97 226.841 653.759 226.826 653.624 226.797C653.495 226.773 653.296 226.729 653.026 226.665V224.547C653.103 224.547 653.167 224.547 653.22 224.547C653.278 224.547 653.343 224.547 653.413 224.547C653.729 224.547 653.981 224.515 654.169 224.45C654.362 224.386 654.509 224.292 654.608 224.169C654.714 224.046 654.796 223.896 654.854 223.721L655.575 221.884ZM654.951 213.49L656.823 220.144L657.148 223.281H655.162L651.778 213.49H654.951ZM664.979 215.318V226.656H662.018V213.49H664.777L664.979 215.318ZM670.815 218.131V218.315C670.815 219.007 670.736 219.648 670.578 220.24C670.42 220.832 670.186 221.348 669.875 221.787C669.564 222.227 669.178 222.569 668.715 222.815C668.258 223.056 667.728 223.176 667.124 223.176C666.556 223.176 666.066 223.05 665.656 222.798C665.246 222.546 664.903 222.197 664.628 221.752C664.353 221.307 664.13 220.797 663.96 220.223C663.79 219.648 663.655 219.042 663.556 218.403V218.166C663.655 217.48 663.79 216.845 663.96 216.259C664.13 215.667 664.353 215.151 664.628 214.712C664.903 214.272 665.243 213.93 665.647 213.684C666.058 213.438 666.547 213.314 667.115 213.314C667.719 213.314 668.249 213.429 668.706 213.657C669.169 213.886 669.556 214.214 669.866 214.642C670.183 215.063 670.42 215.57 670.578 216.162C670.736 216.754 670.815 217.41 670.815 218.131ZM667.854 218.315V218.131C667.854 217.762 667.827 217.425 667.774 217.12C667.722 216.81 667.637 216.54 667.52 216.312C667.408 216.083 667.259 215.907 667.071 215.784C666.884 215.661 666.652 215.6 666.377 215.6C666.061 215.6 665.794 215.649 665.577 215.749C665.366 215.843 665.196 215.989 665.067 216.188C664.944 216.382 664.856 216.625 664.804 216.918C664.757 217.205 664.736 217.542 664.742 217.929V218.649C664.73 219.095 664.774 219.487 664.874 219.827C664.974 220.161 665.146 220.422 665.393 220.609C665.639 220.797 665.973 220.891 666.395 220.891C666.676 220.891 666.91 220.826 667.098 220.697C667.285 220.562 667.435 220.378 667.546 220.144C667.657 219.903 667.736 219.628 667.783 219.317C667.83 219.007 667.854 218.673 667.854 218.315ZM676.739 223.176C675.966 223.176 675.274 223.056 674.665 222.815C674.056 222.569 673.54 222.232 673.118 221.805C672.702 221.377 672.383 220.885 672.16 220.328C671.943 219.771 671.835 219.183 671.835 218.562V218.228C671.835 217.53 671.932 216.886 672.125 216.294C672.318 215.696 672.605 215.175 672.986 214.729C673.367 214.284 673.845 213.938 674.419 213.692C674.993 213.44 675.661 213.314 676.423 213.314C677.097 213.314 677.7 213.423 678.233 213.64C678.767 213.856 679.218 214.167 679.587 214.571C679.962 214.976 680.246 215.465 680.439 216.039C680.639 216.613 680.738 217.258 680.738 217.973V219.177H672.969V217.322H677.847V217.094C677.853 216.777 677.797 216.508 677.68 216.285C677.568 216.062 677.404 215.893 677.188 215.775C676.971 215.658 676.707 215.6 676.396 215.6C676.074 215.6 675.808 215.67 675.597 215.811C675.392 215.951 675.23 216.145 675.113 216.391C675.002 216.631 674.923 216.909 674.876 217.226C674.829 217.542 674.806 217.876 674.806 218.228V218.562C674.806 218.913 674.853 219.232 674.946 219.52C675.046 219.807 675.187 220.053 675.368 220.258C675.556 220.457 675.778 220.612 676.036 220.724C676.3 220.835 676.599 220.891 676.933 220.891C677.337 220.891 677.735 220.814 678.128 220.662C678.521 220.51 678.857 220.258 679.139 219.906L680.483 221.506C680.29 221.781 680.015 222.048 679.657 222.306C679.306 222.563 678.884 222.774 678.392 222.938C677.899 223.097 677.349 223.176 676.739 223.176ZM686.926 220.328C686.926 220.164 686.87 220.023 686.759 219.906C686.653 219.783 686.466 219.672 686.196 219.572C685.927 219.467 685.549 219.361 685.062 219.256C684.6 219.156 684.163 219.024 683.753 218.86C683.349 218.696 682.994 218.497 682.689 218.263C682.385 218.028 682.145 217.75 681.969 217.428C681.799 217.105 681.714 216.736 681.714 216.32C681.714 215.916 681.799 215.535 681.969 215.178C682.145 214.814 682.399 214.495 682.733 214.22C683.073 213.938 683.486 213.719 683.973 213.561C684.459 213.396 685.013 213.314 685.634 213.314C686.489 213.314 687.228 213.446 687.849 213.71C688.47 213.968 688.947 214.331 689.281 214.8C689.621 215.263 689.791 215.799 689.791 216.408H686.829C686.829 216.168 686.788 215.963 686.706 215.793C686.63 215.623 686.504 215.494 686.328 215.406C686.152 215.312 685.918 215.266 685.625 215.266C685.42 215.266 685.232 215.304 685.062 215.38C684.898 215.456 684.767 215.562 684.667 215.696C684.567 215.831 684.518 215.989 684.518 216.171C684.518 216.3 684.547 216.417 684.605 216.522C684.67 216.622 684.767 216.716 684.896 216.804C685.024 216.886 685.188 216.962 685.388 217.032C685.587 217.097 685.827 217.155 686.108 217.208C686.747 217.325 687.345 217.492 687.901 217.709C688.458 217.926 688.909 218.233 689.255 218.632C689.606 219.03 689.782 219.566 689.782 220.24C689.782 220.662 689.686 221.052 689.492 221.409C689.299 221.761 689.021 222.071 688.657 222.341C688.294 222.604 687.857 222.81 687.348 222.956C686.838 223.103 686.264 223.176 685.625 223.176C684.717 223.176 683.949 223.015 683.322 222.692C682.695 222.364 682.221 221.954 681.898 221.462C681.582 220.964 681.424 220.46 681.424 219.95H684.184C684.195 220.243 684.266 220.483 684.395 220.671C684.529 220.858 684.708 220.996 684.931 221.084C685.153 221.172 685.411 221.216 685.704 221.216C685.974 221.216 686.196 221.178 686.372 221.102C686.554 221.025 686.691 220.923 686.785 220.794C686.879 220.659 686.926 220.504 686.926 220.328ZM695.188 220.891C695.463 220.891 695.697 220.841 695.891 220.741C696.09 220.636 696.239 220.489 696.339 220.302C696.444 220.108 696.494 219.877 696.488 219.607H699.274C699.28 220.322 699.104 220.949 698.747 221.488C698.396 222.021 697.915 222.438 697.306 222.736C696.702 223.029 696.02 223.176 695.258 223.176C694.514 223.176 693.863 223.056 693.307 222.815C692.75 222.569 692.284 222.229 691.909 221.796C691.54 221.356 691.262 220.844 691.074 220.258C690.893 219.672 690.802 219.036 690.802 218.351V218.148C690.802 217.463 690.893 216.827 691.074 216.241C691.262 215.649 691.54 215.137 691.909 214.703C692.284 214.264 692.747 213.924 693.298 213.684C693.854 213.438 694.502 213.314 695.24 213.314C696.031 213.314 696.729 213.464 697.332 213.763C697.941 214.062 698.419 214.495 698.765 215.063C699.11 215.632 699.28 216.32 699.274 217.129H696.488C696.494 216.842 696.45 216.584 696.356 216.355C696.263 216.127 696.116 215.945 695.917 215.811C695.724 215.67 695.475 215.6 695.17 215.6C694.865 215.6 694.619 215.667 694.432 215.802C694.244 215.937 694.101 216.124 694.001 216.364C693.907 216.599 693.843 216.868 693.808 217.173C693.778 217.478 693.764 217.803 693.764 218.148V218.351C693.764 218.702 693.778 219.033 693.808 219.344C693.843 219.648 693.91 219.918 694.01 220.152C694.109 220.381 694.253 220.562 694.44 220.697C694.628 220.826 694.877 220.891 695.188 220.891ZM703.528 215.846V223H700.566V213.49H703.335L703.528 215.846ZM706.341 213.42L706.288 216.171C706.171 216.159 706.013 216.145 705.813 216.127C705.614 216.109 705.447 216.101 705.312 216.101C704.967 216.101 704.668 216.142 704.416 216.224C704.17 216.3 703.965 216.417 703.801 216.575C703.643 216.728 703.525 216.921 703.449 217.155C703.379 217.39 703.347 217.662 703.353 217.973L702.816 217.621C702.816 216.982 702.878 216.402 703.001 215.881C703.13 215.354 703.312 214.899 703.546 214.519C703.78 214.132 704.064 213.836 704.398 213.631C704.732 213.42 705.107 213.314 705.523 213.314C705.67 213.314 705.813 213.323 705.954 213.341C706.101 213.358 706.229 213.385 706.341 213.42ZM710.489 213.49V223H707.519V213.49H710.489ZM707.343 211.038C707.343 210.616 707.495 210.271 707.8 210.001C708.104 209.731 708.5 209.597 708.986 209.597C709.473 209.597 709.868 209.731 710.173 210.001C710.478 210.271 710.63 210.616 710.63 211.038C710.63 211.46 710.478 211.806 710.173 212.075C709.868 212.345 709.473 212.479 708.986 212.479C708.5 212.479 708.104 212.345 707.8 212.075C707.495 211.806 707.343 211.46 707.343 211.038ZM715.306 215.318V226.656H712.344V213.49H715.104L715.306 215.318ZM721.142 218.131V218.315C721.142 219.007 721.062 219.648 720.904 220.24C720.746 220.832 720.512 221.348 720.201 221.787C719.891 222.227 719.504 222.569 719.041 222.815C718.584 223.056 718.054 223.176 717.45 223.176C716.882 223.176 716.393 223.05 715.982 222.798C715.572 222.546 715.229 222.197 714.954 221.752C714.679 221.307 714.456 220.797 714.286 220.223C714.116 219.648 713.981 219.042 713.882 218.403V218.166C713.981 217.48 714.116 216.845 714.286 216.259C714.456 215.667 714.679 215.151 714.954 214.712C715.229 214.272 715.569 213.93 715.974 213.684C716.384 213.438 716.873 213.314 717.441 213.314C718.045 213.314 718.575 213.429 719.032 213.657C719.495 213.886 719.882 214.214 720.192 214.642C720.509 215.063 720.746 215.57 720.904 216.162C721.062 216.754 721.142 217.41 721.142 218.131ZM718.18 218.315V218.131C718.18 217.762 718.153 217.425 718.101 217.12C718.048 216.81 717.963 216.54 717.846 216.312C717.734 216.083 717.585 215.907 717.397 215.784C717.21 215.661 716.979 215.6 716.703 215.6C716.387 215.6 716.12 215.649 715.903 215.749C715.692 215.843 715.522 215.989 715.394 216.188C715.271 216.382 715.183 216.625 715.13 216.918C715.083 217.205 715.062 217.542 715.068 217.929V218.649C715.057 219.095 715.101 219.487 715.2 219.827C715.3 220.161 715.473 220.422 715.719 220.609C715.965 220.797 716.299 220.891 716.721 220.891C717.002 220.891 717.236 220.826 717.424 220.697C717.611 220.562 717.761 220.378 717.872 220.144C717.983 219.903 718.062 219.628 718.109 219.317C718.156 219.007 718.18 218.673 718.18 218.315ZM727.47 213.49V215.547H721.739V213.49H727.47ZM722.943 211.126H725.905V219.897C725.905 220.149 725.935 220.346 725.993 220.486C726.052 220.621 726.151 220.718 726.292 220.776C726.438 220.829 726.632 220.855 726.872 220.855C727.042 220.855 727.183 220.853 727.294 220.847C727.405 220.835 727.511 220.82 727.61 220.803V222.921C727.358 223.003 727.095 223.064 726.819 223.105C726.544 223.152 726.251 223.176 725.94 223.176C725.308 223.176 724.766 223.076 724.314 222.877C723.869 222.678 723.529 222.364 723.295 221.937C723.061 221.509 722.943 220.952 722.943 220.267V211.126Z" fill="white"/>
<rect x="619" y="196" width="131" height="41" rx="3" stroke="#424242" stroke-width="4"/>
<path d="M1066 0H1348C1356.28 0 1363 6.71573 1363 15V282C1363 290.284 1356.28 297 1348 297H1066V0Z" fill="white"/>
<g clip-path="url(#clip0_3_61)">
<path d="M1244.67 206.869C1243.51 204.389 1242.03 202.474 1239.1 202.232C1239.1 200.56 1239.1 199.023 1239.1 197.433H1228.22C1228.22 199.05 1228.22 200.587 1228.22 202.232C1226.15 202.474 1224.5 203.31 1223.59 205.089C1221.68 208.783 1219.76 212.477 1218.04 216.224C1216.34 219.864 1218.88 223.8 1222.89 223.827C1230.13 223.908 1237.37 223.908 1244.62 223.827C1248.74 223.773 1251.13 219.513 1249.25 215.847C1247.69 212.881 1246.12 209.915 1244.67 206.869Z" fill="#3DA35D"/>
<path d="M1205.2 206.788C1204.04 204.308 1202.53 202.393 1199.7 202.178C1199.7 200.479 1199.7 198.889 1199.7 197.379H1188.75C1188.75 199.023 1188.75 200.56 1188.75 202.178C1186.7 202.474 1184.98 203.31 1184.01 205.224C1182.2 208.837 1180.32 212.396 1178.62 216.062C1176.87 219.81 1179.32 223.773 1183.44 223.8C1190.68 223.881 1197.93 223.881 1205.17 223.8C1209.29 223.746 1211.69 219.486 1209.8 215.793C1208.19 212.8 1206.6 209.834 1205.2 206.788Z" fill="#3DA35D"/>
<path d="M1177.76 199.482C1175.53 198.565 1174.23 196.948 1174.15 194.467C1174.1 193.119 1173.94 191.798 1173.8 190.45C1195.64 190.45 1217.45 190.45 1239.28 190.423C1239.66 190.423 1240.07 190.45 1240.44 190.423C1242.76 190.288 1244.62 188.455 1244.8 186.136C1244.94 184.546 1245.18 182.982 1245.4 181.391L1245.37 181.311C1248.36 181.338 1251.35 181.365 1254.34 181.391C1253.88 186.11 1253.47 190.828 1252.94 195.519C1252.69 197.541 1251.21 198.646 1249.49 199.428C1225.58 199.482 1201.67 199.482 1177.76 199.482Z" fill="#3DA35D"/>
<path d="M1165.48 93.4472C1166.13 88.4596 1166.72 83.472 1167.39 78.4843C1168.12 72.8227 1168.9 67.161 1169.63 61.4994C1170.01 58.5068 1170.33 55.5412 1172.65 53.2226C1174.75 51.0928 1177.2 49.9874 1180.16 50.0413C1181.31 50.0683 1182.47 50.0683 1183.66 50.0683C1183.63 58.5068 1183.63 66.9993 1183.63 75.4378C1183.63 78.1338 1184.41 78.8887 1187.08 78.8887C1204.79 78.8887 1222.51 78.8887 1240.23 78.8887C1242.89 78.8887 1243.67 78.0799 1243.67 75.4109C1243.7 67.5385 1243.7 59.6661 1243.7 51.7668C1244.8 52.8721 1246.15 53.8157 1246.98 55.0829C1248.39 57.1858 1248.33 59.747 1248.65 62.2004C1249.17 66.4062 1249.79 70.585 1250.35 74.7908C1250.81 78.1878 1251.32 81.5578 1251.72 84.9548C1252.07 87.7586 1252.34 90.5895 1252.64 93.4203C1252.29 93.4472 1251.97 93.4472 1251.62 93.4472C1223.29 93.4472 1194.97 93.4472 1166.64 93.4472C1166.26 93.5012 1165.89 93.4742 1165.48 93.4472Z" fill="#9AE59C"/>
<path d="M1243.73 51.8207C1243.7 59.6931 1243.7 67.5655 1243.7 75.4648C1243.7 78.1609 1242.89 78.9427 1240.25 78.9427C1222.54 78.9427 1204.79 78.9427 1187.1 78.9427C1184.41 78.9427 1183.66 78.1608 1183.66 75.4918C1183.66 67.0532 1183.68 58.5608 1183.68 50.1222C1200.16 50.0953 1216.59 50.0953 1233.06 50.0953C1236.62 50.0953 1240.15 50.1222 1243.7 50.1222C1243.67 50.6614 1243.67 51.2546 1243.73 51.8207Z" fill="#3DA35D"/>
<path d="M1165.48 93.4473C1165.86 93.4742 1166.26 93.5012 1166.64 93.5012C1194.97 93.5012 1223.29 93.5012 1251.62 93.5012C1251.97 93.5012 1252.29 93.4743 1252.64 93.4743C1253.9 93.5012 1255.17 93.5012 1256.44 93.5282C1256.62 94.3639 1256.97 95.1727 1257 96.0085C1257.08 98.0844 1257.08 100.133 1257 102.209C1256.97 103.18 1256.65 104.124 1256.46 105.094C1255.17 105.067 1253.88 105.04 1252.61 105.013C1252.18 104.986 1251.75 104.932 1251.32 104.932C1223.26 104.932 1195.18 104.932 1167.13 104.932C1166.88 104.932 1166.64 104.959 1166.4 104.959C1165.91 105.013 1165.43 105.04 1164.94 105.094C1164.35 105.121 1163.79 105.175 1163.19 105.148C1161.82 105.121 1161.15 104.474 1161.15 103.126C1161.12 100.511 1161.15 97.8957 1161.12 95.2806C1161.12 94.0135 1161.74 93.4203 1163.01 93.4473C1163.87 93.5282 1164.68 93.4742 1165.48 93.4473Z" fill="#4DAA6A"/>
<path d="M1252.64 105.04C1253.93 105.067 1255.22 105.094 1256.49 105.121C1258.24 105.148 1259.99 105.202 1261.74 105.229C1261.2 110.891 1260.72 116.525 1260.15 122.187C1259.72 126.716 1259.24 131.245 1258.81 135.802C1258.16 142.326 1257.51 148.851 1256.84 155.348C1256.3 160.659 1255.82 165.97 1255.3 171.281C1254.98 174.651 1254.66 178.048 1254.34 181.418C1251.35 181.391 1248.36 181.365 1245.37 181.338C1245.75 177.428 1246.12 173.546 1246.5 169.664C1246.82 166.267 1247.09 162.816 1247.42 159.419C1247.77 155.968 1248.17 152.517 1248.49 149.039C1248.74 146.694 1248.9 144.321 1249.14 141.976C1249.49 138.363 1249.89 134.777 1250.24 131.165C1250.57 127.768 1250.84 124.317 1251.19 120.92C1251.54 117.469 1251.94 114.018 1252.26 110.54C1252.48 108.734 1252.53 106.873 1252.64 105.04Z" fill="#6ED6A2"/>
<path d="M1172.97 181.445C1173.21 181.418 1173.45 181.391 1173.7 181.391C1197.6 181.391 1221.49 181.391 1245.4 181.391C1245.21 182.982 1244.94 184.546 1244.8 186.136C1244.62 188.428 1242.76 190.288 1240.44 190.423C1240.07 190.45 1239.66 190.423 1239.28 190.423C1217.45 190.423 1195.64 190.423 1173.8 190.45C1173.53 187.431 1173.26 184.438 1172.97 181.445Z" fill="#4EAB6C"/>
<path d="M1256.46 93.5551C1255.2 93.5282 1253.93 93.5282 1252.67 93.5012C1252.37 90.6704 1252.07 87.8396 1251.75 85.0357C1251.35 81.6387 1250.84 78.2687 1250.38 74.8717C1249.81 70.6929 1249.19 66.4871 1248.68 62.2813C1248.39 59.8279 1248.44 57.2667 1247.01 55.1638C1246.15 53.8967 1244.83 52.9261 1243.73 51.8477C1243.7 51.2546 1243.67 50.6884 1243.65 50.0953C1245.77 50.1762 1247.95 49.9605 1249.97 50.4458C1254.15 51.4163 1256.81 54.8942 1257.35 59.1809C1258.32 66.9993 1259.42 74.8178 1260.47 82.6362C1260.93 86.222 1261.36 89.8346 1261.79 93.4473C1260.02 93.4473 1258.24 93.5012 1256.46 93.5551Z" fill="#6FD6A3"/>
<path d="M1256.46 93.5551C1258.24 93.5281 1260.02 93.4742 1261.79 93.4203C1262.66 93.4472 1263.54 93.4742 1264.41 93.5012C1265.54 93.5012 1266.1 94.0404 1266.1 95.1997C1266.1 97.8957 1266.07 100.619 1266.1 103.315C1266.13 104.555 1265.43 105.067 1264.32 105.148C1263.46 105.229 1262.57 105.202 1261.71 105.229C1259.96 105.202 1258.21 105.148 1256.46 105.121C1256.65 104.15 1256.97 103.207 1257 102.209C1257.08 100.133 1257.08 98.0844 1257 96.0085C1257 95.1727 1256.68 94.3639 1256.46 93.5551Z" fill="#3DA35D"/>
<path d="M1164.94 105.148C1165.43 105.094 1165.91 105.067 1166.4 105.013C1166.1 105.094 1165.81 105.148 1165.48 105.256C1165.32 105.202 1165.13 105.175 1164.94 105.148Z" fill="#6ED6A2"/>
<path d="M1251.32 104.959C1223.26 104.959 1195.18 104.959 1167.13 104.959C1166.88 104.959 1166.64 104.986 1166.4 104.986C1166.1 105.067 1165.81 105.121 1165.48 105.229C1165.59 106.469 1165.67 107.736 1165.81 109.003C1166.21 113.398 1166.61 117.792 1167.04 122.16C1167.58 127.714 1168.18 133.241 1168.71 138.794C1169.14 143.189 1169.55 147.583 1169.98 151.951C1170.52 157.451 1171.08 162.951 1171.62 168.424C1172.05 172.764 1172.51 177.105 1172.94 181.418C1173.18 181.391 1173.43 181.365 1173.67 181.365C1197.58 181.365 1221.46 181.365 1245.37 181.365L1245.34 181.284C1245.72 177.374 1246.1 173.492 1246.47 169.61C1246.8 166.213 1247.07 162.762 1247.39 159.365C1247.74 155.914 1248.14 152.463 1248.47 148.985C1248.71 146.64 1248.87 144.267 1249.11 141.922C1249.46 138.309 1249.87 134.723 1250.22 131.111C1250.54 127.714 1250.81 124.263 1251.16 120.866C1251.51 117.415 1251.91 113.964 1252.24 110.486C1252.4 108.653 1252.48 106.82 1252.56 104.986C1252.21 105.013 1251.75 104.959 1251.32 104.959Z" fill="#9BE59D"/>
<path d="M1177.36 129.358C1177.76 127.741 1179 126.77 1180.16 125.746C1186.32 120.165 1193.46 116.444 1201.67 114.962C1215.97 112.373 1228.76 115.716 1239.93 125.099C1240.74 125.773 1241.52 126.5 1242.25 127.228C1243.38 128.388 1243.78 129.763 1243.22 131.299C1242.65 132.809 1241.52 133.645 1239.9 133.753C1238.69 133.861 1237.72 133.348 1236.83 132.54C1235.6 131.434 1234.38 130.302 1233.09 129.304C1227.68 125.179 1221.57 122.699 1214.81 121.944C1205.84 120.947 1197.58 122.861 1189.98 127.768C1187.86 129.143 1185.92 130.787 1184.09 132.54C1182.69 133.888 1180.99 134.184 1179.43 133.321C1178.57 132.863 1178 132.189 1177.68 131.245C1177.63 131.057 1177.55 130.895 1177.44 130.733C1177.36 130.302 1177.36 129.844 1177.36 129.358Z" fill="white"/>
<path d="M1210.96 126.662C1219.25 126.797 1226.9 129.87 1233.25 136.044C1234.33 137.096 1234.81 138.363 1234.41 139.846C1234.06 141.275 1233.12 142.191 1231.69 142.596C1230.51 142.892 1229.38 142.704 1228.41 141.895C1227.36 141.032 1226.39 140.088 1225.31 139.28C1221.65 136.476 1217.5 134.858 1212.95 134.427C1205.76 133.78 1199.35 135.775 1193.89 140.574C1193.03 141.329 1192.27 142.245 1191.09 142.569C1189.5 142.973 1187.83 142.38 1186.92 141.005C1186.03 139.684 1186.05 137.824 1187.1 136.611C1188.64 134.831 1190.47 133.402 1192.41 132.108C1197.82 128.496 1203.85 126.716 1210.96 126.662Z" fill="white"/>
<path d="M1210.21 139.226C1215.86 139.307 1220.57 141.221 1224.5 145.022C1226.04 146.505 1226.09 148.824 1224.66 150.36C1223.32 151.843 1221.03 152.032 1219.44 150.63C1217.96 149.336 1216.43 148.123 1214.51 147.529C1209.94 146.074 1205.79 146.882 1202.1 149.983C1201.51 150.468 1200.92 151.007 1200.22 151.304C1198.55 152.005 1196.66 151.331 1195.69 149.848C1194.72 148.338 1194.94 146.343 1196.26 145.049C1199.87 141.544 1204.15 139.549 1209.21 139.28C1209.61 139.253 1209.99 139.253 1210.21 139.226Z" fill="white"/>
<path d="M1216.88 159.311C1216.88 162.897 1214 165.808 1210.42 165.808C1206.84 165.835 1203.96 162.951 1203.93 159.338C1203.91 155.725 1206.87 152.76 1210.42 152.814C1214.03 152.841 1216.88 155.725 1216.88 159.311Z" fill="white"/>
<path d="M1239.13 40.1551C1239.62 37.294 1237.71 34.5743 1234.85 34.0804C1231.99 33.5865 1229.28 35.5055 1228.78 38.3666C1228.29 41.2277 1230.21 43.9475 1233.06 44.4414C1235.92 44.9353 1238.64 43.0163 1239.13 40.1551Z" fill="#3DA35D"/>
<path d="M1228.79 38.3769L1225.35 58.3018L1235.73 60.0949L1239.16 40.17L1228.79 38.3769Z" fill="#3DA35D"/>
<path d="M1192.7 44.5145C1195.6 44.5145 1197.95 42.1607 1197.95 39.2572C1197.95 36.3537 1195.6 34 1192.7 34C1189.8 34 1187.45 36.3537 1187.45 39.2572C1187.45 42.1607 1189.8 44.5145 1192.7 44.5145Z" fill="#3DA35D"/>
<path d="M1197.91 38.3711L1187.53 40.1653L1190.97 60.0902L1201.34 58.2961L1197.91 38.3711Z" fill="#3DA35D"/>
<path d="M1225.77 69.8302C1228.67 69.8302 1231.02 67.4764 1231.02 64.5729C1231.02 61.6694 1228.67 59.3157 1225.77 59.3157C1222.87 59.3157 1220.52 61.6694 1220.52 64.5729C1220.52 67.4764 1222.87 69.8302 1225.77 69.8302Z" fill="white"/>
<path d="M1201.78 69.8302C1204.68 69.8302 1207.03 67.4764 1207.03 64.5729C1207.03 61.6694 1204.68 59.3157 1201.78 59.3157C1198.88 59.3157 1196.53 61.6694 1196.53 64.5729C1196.53 67.4764 1198.88 69.8302 1201.78 69.8302Z" fill="white"/>
<path d="M1135.25 262.703C1134.41 262.703 1133.74 262.515 1133.23 262.137C1132.74 261.76 1132.5 261.328 1132.5 260.789V235.069C1132.5 234.422 1132.77 233.937 1133.33 233.613C1133.93 233.29 1134.57 233.128 1135.22 233.128H1143.49C1144.83 233.128 1146.12 233.344 1147.36 233.721C1148.6 234.099 1149.62 234.854 1150.38 235.905C1151.16 236.929 1151.56 238.385 1151.56 240.326C1151.56 241.971 1151.24 243.319 1150.62 244.397C1150.03 245.449 1149.19 246.204 1148.12 246.662C1148.95 246.959 1149.68 247.363 1150.3 247.875C1150.92 248.361 1151.4 249.008 1151.75 249.843C1152.1 250.679 1152.26 251.785 1152.26 253.133V253.995C1152.26 256.125 1151.91 257.824 1151.16 259.091C1150.46 260.358 1149.49 261.275 1148.25 261.841C1147.04 262.407 1145.67 262.703 1144.13 262.703H1135.25ZM1138.75 257.204H1142.79C1143.81 257.204 1144.62 256.907 1145.18 256.314C1145.75 255.721 1146.02 254.777 1146.02 253.483V252.836C1146.02 251.461 1145.75 250.517 1145.18 249.978C1144.62 249.412 1143.84 249.115 1142.79 249.115H1138.75V257.204ZM1138.75 244.263H1143C1143.78 244.263 1144.37 243.966 1144.75 243.373C1145.13 242.78 1145.32 242.16 1145.32 241.486C1145.32 241 1145.21 240.542 1145.02 240.111C1144.86 239.679 1144.62 239.329 1144.27 239.059C1143.94 238.79 1143.51 238.655 1143 238.655H1138.75V244.263ZM1158.35 239.733C1157.43 239.733 1156.65 239.437 1156.01 238.844C1155.36 238.251 1155.04 237.577 1155.04 236.822C1155.04 236.04 1155.36 235.366 1156.01 234.8C1156.65 234.233 1157.43 233.937 1158.35 233.937C1159.26 233.937 1160.02 234.206 1160.66 234.8C1161.31 235.366 1161.63 236.04 1161.63 236.822C1161.63 237.577 1161.31 238.251 1160.66 238.844C1160.04 239.437 1159.26 239.733 1158.35 239.733ZM1158.35 262.703C1157.43 262.703 1156.68 262.488 1156.09 262.11C1155.52 261.706 1155.22 261.248 1155.22 260.762V245.368C1155.22 244.802 1155.52 244.344 1156.09 243.993C1156.68 243.643 1157.43 243.454 1158.35 243.454C1159.21 243.454 1159.94 243.643 1160.56 243.993C1161.18 244.344 1161.47 244.802 1161.47 245.368V260.789C1161.47 261.275 1161.18 261.733 1160.56 262.137C1159.94 262.542 1159.21 262.703 1158.35 262.703ZM1168.23 262.703C1167.31 262.703 1166.56 262.488 1165.97 262.11C1165.4 261.706 1165.13 261.248 1165.13 260.762V245.368C1165.13 244.802 1165.43 244.344 1165.97 243.993C1166.56 243.643 1167.31 243.454 1168.23 243.454C1168.98 243.454 1169.63 243.643 1170.17 243.993C1170.71 244.344 1170.98 244.802 1170.98 245.368V246.312C1171.35 245.53 1172.03 244.829 1172.97 244.209C1173.91 243.562 1175.07 243.238 1176.41 243.238C1177.65 243.238 1178.78 243.643 1179.81 244.424C1180.86 245.179 1181.69 246.204 1182.31 247.498C1182.96 248.765 1183.28 250.194 1183.28 251.758V260.816C1183.28 261.463 1182.96 261.949 1182.26 262.272C1181.61 262.596 1180.88 262.757 1180.1 262.757C1179.38 262.757 1178.68 262.596 1178 262.272C1177.33 261.949 1176.98 261.463 1176.98 260.816V251.758C1176.98 251.245 1176.85 250.76 1176.58 250.302C1176.33 249.843 1175.98 249.466 1175.53 249.169C1175.1 248.873 1174.61 248.711 1174.07 248.711C1173.64 248.711 1173.21 248.846 1172.78 249.089C1172.38 249.331 1172.03 249.682 1171.76 250.14C1171.49 250.571 1171.35 251.111 1171.35 251.758V260.816C1171.35 261.301 1171.06 261.76 1170.44 262.164C1169.82 262.569 1169.09 262.703 1168.23 262.703ZM1194.51 262.703C1194.16 262.703 1193.86 262.623 1193.59 262.461C1193.32 262.272 1193.19 262.002 1193.19 261.652V235.662H1186.4C1186.08 235.662 1185.84 235.528 1185.65 235.312C1185.46 235.042 1185.35 234.746 1185.35 234.422C1185.35 234.099 1185.46 233.829 1185.65 233.559C1185.84 233.29 1186.08 233.155 1186.4 233.155H1202.59C1202.94 233.155 1203.18 233.29 1203.37 233.559C1203.53 233.802 1203.61 234.072 1203.61 234.368C1203.61 234.692 1203.53 234.988 1203.37 235.258C1203.2 235.528 1202.96 235.662 1202.59 235.662H1195.85V261.679C1195.85 262.029 1195.69 262.299 1195.42 262.488C1195.13 262.623 1194.83 262.703 1194.51 262.703ZM1204.2 262.703C1203.85 262.703 1203.53 262.596 1203.26 262.38C1203.02 262.164 1202.88 261.922 1202.88 261.652V244.586C1202.88 244.263 1203.02 244.02 1203.26 243.858C1203.53 243.67 1203.82 243.589 1204.2 243.589C1204.55 243.589 1204.85 243.67 1205.09 243.858C1205.33 244.02 1205.47 244.263 1205.47 244.586V246.554C1205.76 245.988 1206.17 245.476 1206.68 244.991C1207.19 244.505 1207.78 244.128 1208.51 243.804C1209.21 243.481 1209.99 243.319 1210.91 243.319H1212.31C1212.6 243.319 1212.84 243.454 1213.03 243.696C1213.25 243.939 1213.36 244.209 1213.36 244.532C1213.36 244.883 1213.25 245.179 1213.03 245.422C1212.84 245.638 1212.6 245.745 1212.31 245.745H1210.91C1210.02 245.745 1209.16 245.988 1208.32 246.473C1207.51 246.959 1206.84 247.633 1206.33 248.495C1205.82 249.358 1205.55 250.41 1205.55 251.65V261.625C1205.55 261.895 1205.41 262.137 1205.14 262.353C1204.9 262.596 1204.58 262.703 1204.2 262.703ZM1219.58 263C1218.04 263 1216.75 262.569 1215.67 261.706C1214.62 260.816 1214.08 259.468 1214.08 257.662C1214.08 256.179 1214.49 255.047 1215.27 254.265C1216.08 253.456 1217.18 252.917 1218.58 252.62C1220.01 252.297 1221.65 252.135 1223.51 252.135H1225.55V251.218C1225.55 250.329 1225.39 249.466 1225.07 248.63C1224.77 247.767 1224.29 247.067 1223.59 246.527C1222.91 245.961 1221.97 245.665 1220.79 245.665C1219.9 245.665 1219.17 245.772 1218.61 245.961C1218.04 246.15 1217.58 246.339 1217.29 246.554C1216.96 246.743 1216.69 246.824 1216.48 246.824C1216.16 246.824 1215.89 246.662 1215.67 246.339C1215.48 246.015 1215.38 245.718 1215.38 245.449C1215.38 245.071 1215.67 244.748 1216.24 244.424C1216.8 244.101 1217.5 243.858 1218.34 243.67C1219.2 243.454 1220.06 243.346 1220.89 243.346C1222.7 243.346 1224.13 243.723 1225.18 244.478C1226.25 245.206 1227.03 246.15 1227.46 247.363C1227.95 248.549 1228.19 249.816 1228.19 251.164V261.679C1228.19 261.976 1228.06 262.218 1227.81 262.434C1227.6 262.623 1227.28 262.73 1226.87 262.73C1226.55 262.73 1226.25 262.623 1225.98 262.434C1225.74 262.218 1225.61 261.949 1225.61 261.679V259.9C1224.93 260.708 1224.1 261.436 1223.1 262.083C1222.13 262.676 1220.95 263 1219.58 263ZM1220.22 260.762C1221.11 260.762 1221.97 260.52 1222.78 260.088C1223.59 259.63 1224.26 259.064 1224.77 258.417C1225.31 257.743 1225.58 257.123 1225.58 256.53V253.941H1223.88C1222.67 253.941 1221.51 254.022 1220.41 254.184C1219.33 254.319 1218.44 254.642 1217.74 255.128C1217.07 255.613 1216.72 256.368 1216.72 257.419C1216.72 258.579 1217.04 259.441 1217.74 259.98C1218.42 260.493 1219.25 260.762 1220.22 260.762ZM1240.23 263C1238.45 263 1236.97 262.676 1235.81 261.975C1234.65 261.301 1233.79 260.385 1233.23 259.226C1232.66 258.066 1232.39 256.745 1232.39 255.316V251.03C1232.39 249.574 1232.66 248.28 1233.2 247.12C1233.76 245.961 1234.63 245.044 1235.78 244.37C1236.97 243.696 1238.45 243.346 1240.23 243.346C1241.36 243.346 1242.33 243.481 1243.16 243.804C1244.02 244.074 1244.67 244.397 1245.15 244.829C1245.64 245.233 1245.88 245.638 1245.88 245.988C1245.88 246.177 1245.83 246.393 1245.72 246.581C1245.64 246.77 1245.5 246.932 1245.32 247.067C1245.15 247.201 1244.97 247.282 1244.75 247.282C1244.51 247.282 1244.21 247.174 1243.92 246.932C1243.62 246.662 1243.22 246.393 1242.68 246.177C1242.14 245.934 1241.36 245.799 1240.36 245.799C1238.61 245.799 1237.29 246.285 1236.35 247.201C1235.46 248.118 1235.03 249.412 1235.03 251.03V255.316C1235.03 256.961 1235.46 258.255 1236.35 259.199C1237.27 260.115 1238.61 260.574 1240.39 260.574C1241.41 260.574 1242.22 260.439 1242.78 260.196C1243.35 259.927 1243.78 259.684 1244.08 259.441C1244.4 259.172 1244.7 259.037 1244.97 259.037C1245.21 259.037 1245.4 259.091 1245.56 259.253C1245.75 259.387 1245.88 259.549 1245.96 259.738C1246.07 259.927 1246.12 260.142 1246.12 260.331C1246.12 260.681 1245.88 261.086 1245.4 261.517C1244.91 261.922 1244.21 262.272 1243.35 262.569C1242.49 262.838 1241.44 263 1240.23 263ZM1251.02 262.703C1250.67 262.703 1250.38 262.596 1250.11 262.38C1249.87 262.164 1249.73 261.922 1249.73 261.652V232.858C1249.73 232.535 1249.87 232.292 1250.11 232.131C1250.38 231.942 1250.67 231.861 1251.02 231.861C1251.4 231.861 1251.72 231.942 1251.97 232.131C1252.24 232.292 1252.37 232.535 1252.37 232.858V252.512L1262.22 243.75C1262.44 243.589 1262.63 243.508 1262.82 243.508C1263.03 243.508 1263.22 243.562 1263.41 243.723C1263.62 243.831 1263.79 243.966 1263.92 244.155C1264.06 244.317 1264.14 244.532 1264.14 244.748C1264.14 244.883 1264.11 245.018 1264.06 245.152C1264.03 245.26 1263.95 245.368 1263.84 245.476L1257.92 250.733L1264.89 260.924C1265 261.086 1265.05 261.275 1265.05 261.49C1265.05 261.679 1265 261.868 1264.84 262.083C1264.7 262.299 1264.51 262.461 1264.27 262.596C1264.06 262.73 1263.84 262.811 1263.62 262.811C1263.3 262.811 1263.03 262.65 1262.82 262.326L1256.03 252.378L1252.32 255.613V261.625C1252.32 261.895 1252.18 262.137 1251.91 262.353C1251.7 262.596 1251.4 262.703 1251.02 262.703ZM1275.58 263C1273.88 263 1272.38 262.676 1271.06 262.029C1269.76 261.382 1268.74 260.493 1267.99 259.36C1267.26 258.201 1266.88 256.853 1266.88 255.316V250.814C1266.88 249.466 1267.23 248.226 1267.93 247.093C1268.63 245.934 1269.55 245.018 1270.73 244.344C1271.92 243.67 1273.21 243.319 1274.61 243.319C1275.96 243.319 1277.19 243.643 1278.33 244.29C1279.48 244.91 1280.43 245.772 1281.1 246.878C1281.8 247.983 1282.15 249.25 1282.15 250.706C1282.15 251.731 1281.96 252.459 1281.61 252.917C1281.26 253.375 1280.8 253.672 1280.26 253.78C1279.75 253.86 1279.21 253.887 1278.62 253.887H1269.49V255.397C1269.49 257.015 1270.09 258.309 1271.24 259.226C1272.4 260.169 1273.88 260.627 1275.63 260.627C1276.71 260.627 1277.54 260.493 1278.14 260.223C1278.73 259.953 1279.19 259.684 1279.51 259.414C1279.86 259.145 1280.18 259.01 1280.48 259.01C1280.7 259.01 1280.88 259.091 1281.05 259.253C1281.23 259.387 1281.37 259.549 1281.45 259.738C1281.56 259.927 1281.61 260.115 1281.61 260.277C1281.61 260.574 1281.37 260.951 1280.88 261.355C1280.4 261.787 1279.7 262.164 1278.78 262.488C1277.89 262.838 1276.82 263 1275.58 263ZM1269.52 252H1277.6C1278.41 252 1278.94 251.919 1279.21 251.758C1279.48 251.569 1279.62 251.191 1279.62 250.625C1279.62 249.763 1279.4 248.954 1278.97 248.199C1278.54 247.417 1277.95 246.797 1277.19 246.312C1276.44 245.799 1275.58 245.557 1274.56 245.557C1273.64 245.557 1272.81 245.772 1272 246.231C1271.24 246.689 1270.65 247.282 1270.17 248.01C1269.71 248.738 1269.49 249.574 1269.49 250.49V252H1269.52ZM1287.37 262.703C1287.02 262.703 1286.7 262.596 1286.43 262.38C1286.19 262.164 1286.08 261.922 1286.08 261.652V244.586C1286.08 244.263 1286.19 244.02 1286.43 243.858C1286.7 243.67 1287.02 243.589 1287.37 243.589C1287.72 243.589 1288.02 243.67 1288.26 243.858C1288.5 244.02 1288.61 244.263 1288.61 244.586V246.554C1288.91 245.988 1289.31 245.476 1289.82 244.991C1290.33 244.505 1290.95 244.128 1291.65 243.804C1292.35 243.481 1293.16 243.319 1294.05 243.319H1295.45C1295.75 243.319 1295.99 243.454 1296.18 243.696C1296.39 243.939 1296.5 244.209 1296.5 244.532C1296.5 244.883 1296.39 245.179 1296.18 245.422C1295.99 245.638 1295.75 245.745 1295.45 245.745H1294.05C1293.16 245.745 1292.3 245.988 1291.47 246.473C1290.66 246.959 1290.01 247.633 1289.5 248.495C1288.99 249.358 1288.75 250.41 1288.75 251.65V261.625C1288.75 261.895 1288.61 262.137 1288.34 262.353C1288.07 262.596 1287.75 262.703 1287.37 262.703Z" fill="#4EAB6C"/>
</g>
<defs>
<clipPath id="clip0_3_61">
<rect width="164" height="229" fill="white" transform="translate(1132.5 34)"/>
</clipPath>
</defs>
</svg>
